<svg xmlns="http://www.w3.org/2000/svg" class="rs-diagram" viewBox="0 0 800 560" width="100%" height="100%" role="img" aria-label="ROS topics on the robot flow into ReductBridge, which writes records, labels and the ROS schema to the local ReductStore. A replication task sends selected camera and IMU entries over HTTP(S) to ReductStore in the cloud or a central on-premises server, where ReductROS extracts messages as JSON and ReductSelect runs SQL over them."><defs><style>
:root{--rs-card-bg:#FFFFFF;--rs-card-stroke:#DAD4E0;--rs-brand:#2B0548;--rs-accent:#2B0548;
--rs-halo:rgba(43,5,72,.05);--rs-inner:#FBF9FC;--rs-text-main:#333333;--rs-text-muted:#707070;--rs-wire:#B8AEC3;--rs-boxline:#C4B2D4}
[data-theme='dark']{--rs-card-bg:#1E1E1E;--rs-card-stroke:#3A3440;--rs-accent:#BFA6DC;
--rs-halo:rgba(205,184,230,.07);--rs-inner:#232026;--rs-text-main:#EFEFEF;--rs-text-muted:#A0A0A0;--rs-wire:#6E6478;--rs-boxline:#5C4F69}
:where(.rs-diagram) text{font-family:system-ui,-apple-system,"Segoe UI",Roboto,Helvetica,Arial,sans-serif}
.rs-mono{font-family:SFMono-Regular,Menlo,Monaco,Consolas,"Liberation Mono",monospace}
.rs-card{fill:var(--rs-card-bg);stroke:var(--rs-card-stroke);stroke-width:1.5}
.rs-halo{fill:var(--rs-halo)}
.rs-box{fill:var(--rs-inner);stroke:var(--rs-boxline);stroke-width:1.5;stroke-dasharray:6 5}
.rs-pill{fill:var(--rs-brand)}
.rs-chip{fill:var(--rs-card-bg);stroke:var(--rs-card-stroke);stroke-width:1.2}
.rs-t{font-weight:600;font-size:15px;fill:var(--rs-text-main)}
.rs-bt{font-weight:600;font-size:14px;fill:var(--rs-accent)}
.rs-pt{font-weight:600;font-size:15px;fill:#FFFFFF}
.rs-s{font-size:12.5px;fill:var(--rs-text-muted)}
.rs-wire{fill:none;stroke:var(--rs-wire);stroke-width:1.5;stroke-dasharray:4 6;stroke-linecap:round}
.rs-flow-in{animation:rs-flow 1.6s linear infinite}
.rs-flow-rep{stroke:var(--rs-accent);stroke-width:2;animation:rs-flow 1.6s linear infinite}
.rs-bl{font-weight:600;font-size:14px;fill:var(--rs-accent)}
.rs-small{font-size:12px;font-weight:600}
.rs-big{font-size:26px}
.rs-static{animation:none}
.rs-logo{fill:var(--rs-accent)}
.rs-head{font-size:15px;fill:var(--rs-text-muted)}
.rs-coral{fill:#DB817B}
.rs-cchip{fill:none;stroke:#FFFFFF;stroke-opacity:.7;stroke-width:1.2}
.rs-ct{font-weight:600;font-size:14px;fill:#FFFFFF}
.rs-cs{font-size:12.5px;fill:#FFFFFF}
.rs-cap{font-size:13px;font-style:italic;fill:var(--rs-text-muted)}
.rs-si{font-size:12.5px;fill:#D9CCE6}
.rs-flow-out{animation:rs-flow 1.6s linear infinite}
[data-theme='dark'] .rs-pill{fill:#CDB8E6}
[data-theme='dark'] .rs-pill+.rs-pt{fill:#2B0548}
@keyframes rs-flow{to{stroke-dashoffset:-20}}
.rs-port{fill:var(--rs-card-bg);stroke:var(--rs-wire);stroke-width:1.5}
@media (prefers-reduced-motion: reduce){.rs-flow-in,.rs-flow-out,.rs-flow-rep{animation:none}}
</style><style>
.rs-line{stroke:var(--rs-card-stroke);stroke-width:1}
.rs-hl{fill:#DB817B;fill-opacity:.18}
.rs-sel{fill:var(--rs-card-bg);stroke:var(--rs-accent);stroke-width:2}
.rs-code{font-size:13px;fill:var(--rs-text-main)}
</style></defs><rect x="10" y="10" width="780" height="270" rx="32" class="rs-halo"/>
<rect x="22" y="22" width="756" height="246" rx="24" class="rs-card"/>
<rect x="10" y="360" width="780" height="190" rx="32" class="rs-halo"/>
<rect x="22" y="372" width="756" height="166" rx="24" class="rs-card"/>
<path d="M224,119 C256,119 258,175.0 290,175.0" class="rs-wire rs-flow-in"/>
<path d="M224,171 C256,171 258,175.0 290,175.0" class="rs-wire rs-flow-in"/>
<path d="M224,223 C256,223 258,175.0 290,175.0" class="rs-wire rs-flow-in"/>
<path d="M480,175.0 L560,175.0" class="rs-wire rs-flow-in"/>
<path d="M663.0,262 L663.0,372" class="rs-wire rs-flow-rep"/>
<path d="M264,475 L310,475" class="rs-wire rs-flow-out"/>
<path d="M520,475 L566,475" class="rs-wire rs-flow-out"/>
<text x="42.0" y="52.0" class="rs-bt" text-anchor="start">Awesome Robot</text>
<text x="44.0" y="86.0" class="rs-s" text-anchor="start">ROS topics</text>
<rect x="44.0" y="100.0" width="180.0" height="38.0" rx="19" class="rs-chip"/>
<text x="134.0" y="124.0" class="rs-code rs-mono" text-anchor="middle">/camera/image_raw</text>
<rect x="44.0" y="152.0" width="180.0" height="38.0" rx="19" class="rs-chip"/>
<text x="134.0" y="176.0" class="rs-code rs-mono" text-anchor="middle">/gps/fix</text>
<rect x="44.0" y="204.0" width="180.0" height="38.0" rx="19" class="rs-chip"/>
<text x="134.0" y="228.0" class="rs-code rs-mono" text-anchor="middle">/imu/data</text>
<circle cx="290.0" cy="175.0" r="5" class="rs-port"/>
<rect x="290.0" y="110.0" width="190.0" height="130.0" rx="20" class="rs-coral"/>
<text x="385.0" y="140.0" class="rs-ct" text-anchor="middle">ReductBridge</text>
<text x="385.0" y="166.0" class="rs-cs" text-anchor="middle">subscribes to topics</text>
<text x="385.0" y="185.0" class="rs-cs" text-anchor="middle">stores payloads</text>
<text x="385.0" y="204.0" class="rs-cs" text-anchor="middle">applies labels</text>
<text x="385.0" y="223.0" class="rs-cs" text-anchor="middle">attaches ROS schema</text>
<circle cx="480.0" cy="175.0" r="5" class="rs-port"/>
<circle cx="560.0" cy="175.0" r="5" class="rs-port"/>
<text x="520.0" y="131.0" class="rs-s rs-mono" text-anchor="middle">records</text>
<text x="520.0" y="147.0" class="rs-s rs-mono" text-anchor="middle">labels</text>
<text x="520.0" y="163.0" class="rs-s rs-mono" text-anchor="middle">$schema</text>
<rect x="560.0" y="62.0" width="206.0" height="200.0" rx="20" class="rs-card"/>
<rect x="594.3" y="76.0" width="137.4" height="34.0" rx="17" class="rs-pill"/>
<text x="663.0" y="98.0" class="rs-pt" text-anchor="middle">ReductStore</text>
<rect x="574.0" y="122.0" width="178.0" height="58.0" rx="16" class="rs-box"/>
<text x="663.0" y="145.0" class="rs-bt" text-anchor="middle">bucket: robot-data</text>
<text x="663.0" y="165.0" class="rs-s rs-mono" text-anchor="middle">entries + labels</text>
<rect x="574.0" y="190.0" width="178.0" height="58.0" rx="16" class="rs-box"/>
<text x="663.0" y="213.0" class="rs-bt" text-anchor="middle">replication task</text>
<text x="663.0" y="233.0" class="rs-s rs-mono" text-anchor="middle">camera + IMU entries</text>
<circle cx="663.0" cy="262.0" r="5" class="rs-port"/>
<circle cx="663.0" cy="372.0" r="5" class="rs-port"/>
<text x="649.0" y="322.0" class="rs-bl" text-anchor="end">selected records over HTTP(S)</text>
<text x="42.0" y="402.0" class="rs-bt" text-anchor="start">Cloud or central on-premises</text>
<rect x="331.3" y="384.0" width="137.4" height="34.0" rx="17" class="rs-pill"/>
<text x="400.0" y="406.0" class="rs-pt" text-anchor="middle">ReductStore</text>
<rect x="44.0" y="440.0" width="220.0" height="70.0" rx="16" class="rs-box"/>
<text x="154.0" y="469.0" class="rs-bt" text-anchor="middle">bucket: demo</text>
<text x="154.0" y="489.0" class="rs-s rs-mono" text-anchor="middle">replicated robot data</text>
<rect x="310.0" y="440.0" width="210.0" height="70.0" rx="16" class="rs-box"/>
<text x="415.0" y="469.0" class="rs-bt" text-anchor="middle">ReductROS</text>
<text x="415.0" y="489.0" class="rs-s rs-mono" text-anchor="middle">messages to JSON</text>
<rect x="566.0" y="440.0" width="200.0" height="70.0" rx="16" class="rs-box"/>
<text x="666.0" y="469.0" class="rs-bt" text-anchor="middle">ReductSelect</text>
<text x="666.0" y="489.0" class="rs-s rs-mono" text-anchor="middle">SQL over JSON</text>
<circle cx="264.0" cy="475.0" r="5" class="rs-port"/>
<circle cx="310.0" cy="475.0" r="5" class="rs-port"/>
<circle cx="520.0" cy="475.0" r="5" class="rs-port"/>
<circle cx="566.0" cy="475.0" r="5" class="rs-port"/>
<text x="543.0" y="530.0" class="rs-s" text-anchor="middle">query pipeline</text></svg>
