<svg version="1.2" xmlns="http://www.w3.org/2000/svg" viewBox="0 0 920 920" width="920" height="920">
	<style>
		.s0 { fill: #2c0548 } 
		.s1 { fill: #ffffff } 
	</style>
	<g id="Background">
		<path id="Path 0" class="s0" d="m0 460v460h920v-920h-920z"/>
		<path id="Path 1" fill-rule="evenodd" class="s1" d="m101 72.37c3.95 0.2 8.07 1.12 10.5 2.35 2.2 1.11 5.46 3.66 7.25 5.65 1.79 2 3.81 4.87 4.5 6.38 0.96 2.1 1.37 23.17 2.25 176.75l668.5 0.5 0.25-86.75c0.25-86.5 0.26-86.76 2.39-90.75 1.18-2.2 3.43-5.29 5-6.86 1.57-1.57 4.66-3.81 6.86-4.98 3.05-1.61 5.79-2.11 11.5-2.11 5.69 0 8.46 0.5 11.5 2.1 2.2 1.16 5.69 3.96 7.75 6.23 2.06 2.27 4.22 5.81 4.79 7.87 0.72 2.58 0.95 118.62 0.46 739.08l-3 4.28c-1.65 2.35-4.95 5.66-7.34 7.34-3.75 2.63-5.38 3.1-12 3.4-4.21 0.2-9.35-0.14-11.41-0.75-2.06-0.6-5.38-2.56-7.38-4.35-1.99-1.79-4.7-5.05-6.02-7.25-1.74-2.9-2.59-6.27-3.85-20.51l-668.5 0.01 0.01 7.75c0.01 6.98-0.31 8.3-3.25 13.21-1.81 3.03-5.19 6.82-7.6 8.5-3.82 2.68-5.31 3.08-12.5 3.37-5.61 0.23-9.41-0.14-12.16-1.19-2.2-0.84-5.91-3.58-8.25-6.09-2.34-2.5-4.81-5.79-5.5-7.3-0.99-2.18-1.3-78.13-1.51-366.75-0.17-246.46 0.08-365.78 0.78-369.5 0.56-3.03 2.25-7.23 3.75-9.35 1.5-2.12 4.28-4.82 6.18-6 1.9-1.18 4.83-2.71 6.5-3.38 1.72-0.7 5.89-1.09 9.55-0.9zm73 16.63h155v155h-155zm209 0h154v155h-154z"/>
		<path id="Path 2" class="s0" d="m125.25 413.25l0.25 97.25 668.5 0.5v-195h-669.01zm0 247l0.26 97.25 668.5 0.5v-195h-669.01z"/>
		<path id="Path 3" class="s1" d="m591 413.5v77.5h155v-155h-155zm-417.01 1.01l0.01 77.49h155c0-144.56-0.18-154.06-1.5-154.5-0.82-0.27-35.7-0.5-77.51-0.49l-76.01 0.01zm209.54-76.87c-0.47 0.38-0.79 35.27-0.7 77.53l0.17 76.83h154l-0.5-154.5c-117.89-0.43-152.5-0.24-152.97 0.14zm-209.53 322.86v77.5l154.5-0.5 0.48-154.5h-154.98zm209 0v77.5h154v-155h-154z"/>
	</g>
</svg>