<?xml version="1.0" encoding="UTF-8"?><svg id="Layer_1" xmlns="http://www.w3.org/2000/svg" width="1103.3" height="792.17" xmlns:xlink="http://www.w3.org/1999/xlink" viewBox="0 0 1103.3 792.17"><defs><style>.cls-1{fill:url(#linear-gradient-12);}.cls-1,.cls-2,.cls-3,.cls-4,.cls-5,.cls-6,.cls-7,.cls-8,.cls-9,.cls-10,.cls-11,.cls-12,.cls-13,.cls-14,.cls-15,.cls-16,.cls-17,.cls-18,.cls-19,.cls-20{stroke-width:0px;}.cls-2{fill:url(#linear-gradient);}.cls-3{fill:#3a1161;}.cls-4{fill:url(#linear-gradient-6);}.cls-5{fill:url(#linear-gradient-15);}.cls-6{fill:url(#linear-gradient-11);}.cls-7{fill:url(#linear-gradient-5);}.cls-8{fill:url(#linear-gradient-13);}.cls-9{fill:url(#linear-gradient-16);}.cls-10{fill:#fff;}.cls-11{fill:url(#linear-gradient-14);}.cls-12{fill:url(#linear-gradient-2);}.cls-13{fill:url(#linear-gradient-7);}.cls-14{fill:url(#linear-gradient-3);}.cls-15{fill:url(#linear-gradient-9);}.cls-16{fill:url(#linear-gradient-8);}.cls-17{fill:#2b0548;}.cls-18{fill:url(#linear-gradient-10);}.cls-19{fill:#c3aaf2;}.cls-20{fill:url(#linear-gradient-4);}</style><linearGradient id="linear-gradient" x1="109.47" y1="596.96" x2="999.2" y2="596.96" gradientUnits="userSpaceOnUse"><stop offset=".47" stop-color="#b097d0"/><stop offset=".55" stop-color="#d6c9e2"/></linearGradient><linearGradient id="linear-gradient-2" x1="736.48" y1="169.03" x2="878.87" y2="294.94" gradientUnits="userSpaceOnUse"><stop offset="0" stop-color="#3a1161"/><stop offset="1" stop-color="#6938b2"/></linearGradient><linearGradient id="linear-gradient-3" x1="794.74" y1="285.44" x2="980.33" y2="285.44" gradientUnits="userSpaceOnUse"><stop offset="0" stop-color="#41176e"/><stop offset="1" stop-color="#6938b2"/></linearGradient><linearGradient id="linear-gradient-4" x1="305.78" y1="454.72" x2="817.44" y2="454.72" xlink:href="#linear-gradient-2"/><linearGradient id="linear-gradient-5" x1="364.32" y1="468.42" x2="357.87" y2="321.07" xlink:href="#linear-gradient-2"/><linearGradient id="linear-gradient-6" x1="305.7" y1="410.99" x2="817.41" y2="410.99" gradientUnits="userSpaceOnUse"><stop offset=".45" stop-color="#b097d0"/><stop offset=".53" stop-color="#d6c9e2"/></linearGradient><linearGradient id="linear-gradient-7" x1="305.78" y1="212.14" x2="817.44" y2="212.14" gradientUnits="userSpaceOnUse"><stop offset=".44" stop-color="#b097d0"/><stop offset=".54" stop-color="#d6c9e2"/></linearGradient><linearGradient id="linear-gradient-8" x1="305.79" y1="292.72" x2="817.44" y2="292.72" xlink:href="#linear-gradient-7"/><linearGradient id="linear-gradient-9" x1="321.51" y1="212.14" x2="801.71" y2="212.14" xlink:href="#linear-gradient-7"/><linearGradient id="linear-gradient-10" x1="321.51" y1="212.14" x2="801.71" y2="212.14" xlink:href="#linear-gradient-7"/><linearGradient id="linear-gradient-11" x1="466.84" y1="400.82" x2="274.52" y2="574.43" xlink:href="#linear-gradient-2"/><linearGradient id="linear-gradient-12" x1="212.76" y1="573.11" x2="403.25" y2="573.11" gradientTransform="translate(694.37) rotate(-180) scale(1 -1)" xlink:href="#linear-gradient-3"/><linearGradient id="linear-gradient-13" x1="461.6" y1="209.85" x2="653.06" y2="209.85" xlink:href="#linear-gradient-7"/><linearGradient id="linear-gradient-14" x1="479.47" y1="151.12" x2="635.32" y2="151.12" gradientUnits="userSpaceOnUse"><stop offset="0" stop-color="#b097d0"/><stop offset="1" stop-color="#d6c9e2"/></linearGradient><linearGradient id="linear-gradient-15" x1="577.79" y1="5383.34" x2="642.14" y2="5383.34" gradientTransform="translate(0 -4456.67) rotate(-49.11) scale(1.53 .65) skewX(-26.33)" gradientUnits="userSpaceOnUse"><stop offset="0" stop-color="#2b0548"/><stop offset="1" stop-color="#6938b2"/></linearGradient><linearGradient id="linear-gradient-16" x1="617.83" y1="5683.3" x2="781.69" y2="5683.3" xlink:href="#linear-gradient-15"/></defs><path class="cls-2" d="m976.23,461.14l-850.51-7.43-16.25.11v25.76h.08c.24,8.03,5.23,15.65,15.16,21.39l399.19,230.49c22.48,12.98,61.74,11.35,87.71-3.64l366.12-211.54c13.8-7.97,21.05-18.11,21.44-27.82h.03v-27.48l-22.97.16Z"/><path class="cls-17" d="m561.97,740.69c-14.37,0-28.09-2.89-38.33-8.8L124.46,501.4c-9.5-5.49-14.94-13.04-15.39-21.32h-.02l-.08-.5v-26.25l16.74-.11,850.52,7.43,23.47-.17v28.48h-.06c-.64,10.05-8.51,20.14-21.67,27.75l-366.12,211.54c-14.25,8.23-32.54,12.45-49.88,12.45ZM109.97,479.15l.08.41c.24,8.11,5.54,15.56,14.91,20.97l399.19,230.49c22.31,12.88,61.43,11.25,87.21-3.64l366.12-211.54c13.07-7.55,20.79-17.54,21.19-27.41l.03-.48v-26.47l-22.47.16-850.51-7.43-15.74.11v24.84Z"/><path class="cls-10" d="m977.72,489.95l-366.12,211.54c-25.96,14.98-65.22,16.62-87.71,3.64L124.71,474.64c-22.49-12.99-19.67-35.65,6.3-50.64l366.12-211.54c25.96-14.98,65.22-16.62,87.71-3.63l399.18,230.48c22.49,12.99,19.67,35.65-6.3,50.64Z"/><path class="cls-17" d="m561.96,714.36c-14.37,0-28.09-2.89-38.32-8.8L124.46,475.07c-9.95-5.75-15.43-13.71-15.43-22.43,0-10.51,7.92-21.11,21.73-29.08l366.12-211.54c26.06-15.04,65.63-16.67,88.21-3.63l399.18,230.48c9.95,5.75,15.43,13.71,15.43,22.43,0,10.51-7.92,21.1-21.73,29.08l-366.12,211.54c-14.25,8.22-32.54,12.44-49.89,12.44Zm-15.21-513.79c-17.16,0-35.26,4.17-49.38,12.32l-366.12,211.54c-13.49,7.79-21.23,18.08-21.23,28.21,0,8.34,5.3,16,14.93,21.56l399.18,230.49c22.31,12.87,61.43,11.24,87.21-3.64l366.12-211.54c13.49-7.79,21.23-18.08,21.23-28.21,0-8.35-5.3-16-14.93-21.57l-399.18-230.48c-10.09-5.83-23.64-8.69-37.83-8.69Z"/><path class="cls-12" d="m993.11,209.02l-208.47,155.01-112.4-64.86.05-.04.11-.09c-3.33-2.2-5.33-6.3-5.33-12.02v-7.45c0-2.91.52-5.99,1.46-9.12.25-.84.55-1.7.87-2.56,3.86-10.34,12.14-20.74,21.74-26.28l127.12-73.18,27.13-15.63,17.1-9.85c5.33-2.9,11.22-2.61,15.97-.13l1.12.65,113.53,65.55Z"/><path class="cls-17" d="m784.65,364.53c-.09,0-.17-.02-.25-.07l-112.4-64.86c-.14-.08-.24-.23-.25-.39,0,0,0-.01,0-.02-3.38-2.45-5.17-6.64-5.17-12.17v-7.45c0-2.89.5-6,1.48-9.26.23-.78.52-1.63.88-2.59,4.01-10.74,12.63-21.16,21.96-26.54l127.12-73.18,44.23-25.48c5.21-2.83,11.21-2.88,16.45-.14l114.67,66.21c.15.08.24.24.25.4s-.07.33-.2.43l-208.47,155.01c-.09.07-.19.1-.3.1Zm-111.74-65.56l111.71,64.46,207.59-154.36-113.99-65.82c-4.93-2.57-10.58-2.53-15.48.14l-44.22,25.48-127.12,73.18c-9.14,5.28-17.59,15.49-21.52,26.02-.35.94-.63,1.76-.86,2.52-.96,3.16-1.44,6.18-1.44,8.97v7.45c0,5.38,1.77,9.4,5.11,11.61.12.08.2.21.22.35Z"/><path class="cls-10" d="m779.25,344.51v7.45c0,5.75,2.02,9.87,5.4,12.07,4.41,2.87,11.13,2.46,18.67-1.9l175.65-101.27c12.92-7.46,20.88-21.24,20.88-36.16v-1.96c0-13.11-14.2-21.31-25.55-14.75l-170.97,98.57c-13.29,7.68-24.07,24.67-24.07,37.95Z"/><path class="cls-17" d="m791.29,366.36c-2.61,0-4.95-.63-6.92-1.92-3.63-2.36-5.62-6.79-5.62-12.49v-7.45c0-13.42,10.91-30.64,24.32-38.39l170.97-98.57c5.49-3.17,12.05-3.17,17.54,0,5.49,3.17,8.77,8.85,8.77,15.19v1.96c0,15.05-8.09,29.07-21.13,36.59l-175.65,101.27c-4.36,2.52-8.58,3.8-12.27,3.8Zm191.51-160.18c-2.84,0-5.68.75-8.27,2.24l-170.97,98.57c-13.13,7.58-23.82,24.42-23.82,37.52v7.45c0,5.35,1.84,9.48,5.17,11.65,4.43,2.89,11.04,2.19,18.15-1.91l175.65-101.27c12.72-7.34,20.63-21.03,20.63-35.72v-1.96c0-5.98-3.09-11.33-8.27-14.32-2.59-1.5-5.43-2.24-8.27-2.24Z"/><path class="cls-3" d="m984.78,231.89v2.4c0,7.36-3.92,14.16-10.28,17.86l-166.83,96.79c-4.05,2.34-7.66,2.56-10.03,1.01-.71-.46-1.32-1.09-1.79-1.88-.04-.07-.08-.13-.11-.21-.65-1.15-1-2.63-1-4.39v-3.99c0-7.13,5.78-16.25,12.92-20.37l163.67-94.96c2.3-1.34,4.83-1.51,7.06-.83,3.56,1.07,6.37,4.33,6.37,8.57Z"/><path class="cls-14" d="m980.33,228.88v2.4c0,7.36-3.92,14.16-10.28,17.86l-166.82,96.8c-2.8,1.61-5.39,2.22-7.49,1.92-.65-1.15-1-2.63-1-4.39v-3.99c0-7.13,5.78-16.25,12.92-20.37l163.67-94.96c2.3-1.34,4.83-1.51,7.06-.83,1.2,1.49,1.93,3.4,1.93,5.56Z"/><path class="cls-17" d="m952.13,221.05c-.08,0-.17-.02-.25-.07l-112.17-64.67c-.24-.14-.32-.44-.18-.68s.44-.32.68-.18l112.17,64.67c.24.14.32.44.18.68-.09.16-.26.25-.43.25Z"/><path class="cls-17" d="m900.27,251.17c-.08,0-.17-.02-.25-.07l-112.17-64.67c-.24-.14-.32-.44-.18-.68s.44-.32.68-.18l112.17,64.67c.24.14.32.44.18.68-.09.16-.26.25-.43.25Z"/><path class="cls-17" d="m848.12,281.05c-.08,0-.17-.02-.25-.07l-112.17-64.67c-.24-.14-.32-.44-.18-.68.14-.24.44-.32.68-.18l112.17,64.67c.24.14.32.44.18.68-.09.16-.26.25-.43.25Z"/><path class="cls-17" d="m790.88,317.39c-.08,0-.17-.02-.25-.07l-112.17-64.67c-.24-.14-.32-.44-.18-.68.14-.24.44-.32.68-.18l112.17,64.67c.24.14.32.44.18.68-.09.16-.26.25-.43.25Z"/><polygon class="cls-17" points="800.68 272.45 747.12 241.52 787.6 218.14 841.16 249.08 800.68 272.45"/><polygon class="cls-10" points="800.72 239.83 751.34 211.31 787.83 190.25 837.2 218.76 800.72 239.83"/><path class="cls-17" d="m800.72,240.33c-.09,0-.17-.02-.25-.07l-49.38-28.52c-.15-.09-.25-.25-.25-.43s.1-.34.25-.43l36.48-21.06c.15-.09.35-.09.5,0l49.38,28.52c.15.09.25.25.25.43s-.1.34-.25.43l-36.48,21.06c-.08.04-.16.07-.25.07Zm-48.38-29.02l48.38,27.94,35.48-20.49-48.38-27.94-35.48,20.49Z"/><polygon class="cls-10" points="837.2 247.36 837.2 218.76 800.72 239.83 800.72 268.43 837.2 247.36"/><path class="cls-17" d="m800.72,268.93c-.09,0-.17-.02-.25-.07-.15-.09-.25-.25-.25-.43v-28.6c0-.18.1-.34.25-.43l36.48-21.06c.15-.09.35-.09.5,0,.15.09.25.25.25.43v28.6c0,.18-.1.34-.25.43l-36.48,21.06c-.08.04-.16.07-.25.07Zm.5-28.81v27.44l35.48-20.49v-27.44l-35.48,20.49Zm35.98,7.25h0,0Z"/><polygon class="cls-10" points="751.34 239.91 751.34 211.31 800.72 239.83 800.72 268.43 751.34 239.91"/><path class="cls-17" d="m800.72,268.93c-.09,0-.17-.02-.25-.07l-49.38-28.52c-.15-.09-.25-.25-.25-.43v-28.6c0-.18.1-.34.25-.43.15-.09.35-.09.5,0l49.38,28.52c.15.09.25.25.25.43v28.6c0,.18-.1.34-.25.43-.08.04-.16.07-.25.07Zm-48.88-29.31l48.38,27.94v-27.44l-48.38-27.94v27.44Z"/><rect class="cls-3" x="346.44" y="225.4" width="419.33" height="199.03"/><path class="cls-20" d="m537.17,599.32l-225.31-129.39c-8.99-5.19-7.87-14.26,2.52-20.26l236.59-138.08c10.39-6,26.1-6.65,35.09-1.45l225.31,129.39c8.99,5.19,7.87,14.26-2.52,20.26l-236.59,138.08c-10.39,6-26.1,6.65-35.09,1.45Z"/><polygon class="cls-7" points="357.26 508.88 366.59 503.77 366.59 314.6 348.87 321.19 357.26 508.88"/><path class="cls-17" d="m357.26,509.38c-.08,0-.17-.02-.25-.06-.15-.08-.25-.24-.25-.41l-8.4-187.69c0-.22.12-.42.33-.49l17.73-6.58c.15-.06.32-.04.46.06.13.09.21.25.21.41v189.17c0,.18-.1.35-.26.44l-9.33,5.11c-.08.04-.16.06-.24.06Zm-7.88-187.85l8.34,186.52,8.37-4.58v-188.15l-16.71,6.21Z"/><path class="cls-4" d="m808.85,473.3l-236.6,137.45c-10.39,6-26.09,6.65-35.09,1.46l-55.25-31.8v-180.99c0-6.17-5.01-14.07-11.19-17.64l-102.27-58.93c-6.17-3.56-11.18-1.45-11.18,4.73v181.31l-45.41-26.07c-3.86-2.23-5.85-5.18-6.04-8.3l-.12-255.89,511.65-12.35v254.56c.54,4.27-2.33,8.91-8.49,12.47Z"/><path class="cls-13" d="m537.17,356.74l-225.31-129.39c-8.99-5.19-7.87-14.26,2.52-20.26l236.59-138.08c10.39-6,26.1-6.65,35.09-1.45l225.31,129.39c8.99,5.19,7.87,14.26-2.52,20.26l-236.59,138.08c-10.39,6-26.1,6.65-35.09,1.45Z"/><path class="cls-16" d="m817.44,215.47c0,3.98-2.91,8.18-8.59,11.46l-236.59,138.08c-10.39,6-26.1,6.65-35.09,1.45l-225.31-129.39c-4.01-2.31-6.01-5.4-6.07-8.64"/><path class="cls-15" d="m544.51,349.04l-219.32-125.93c-5.45-3.14-4.76-8.64,1.53-12.27l230.76-134.71c6.29-3.63,15.8-4.02,21.24-.88l219.32,125.93c5.45,3.14,4.76,8.64-1.53,12.27l-230.76,134.71c-6.29,3.63-15.8,4.02-21.24.88Z"/><path class="cls-18" d="m544.51,349.04l-219.32-125.93c-5.45-3.14-4.76-8.64,1.53-12.27l230.76-134.71c6.29-3.63,15.8-4.02,21.24-.88l219.32,125.93c5.45,3.14,4.76,8.64-1.53,12.27l-230.76,134.71c-6.29,3.63-15.8,4.02-21.24.88Z"/><path class="cls-17" d="m552.4,616.2c-5.8,0-11.35-1.17-15.49-3.56l-55.25-31.8c-.16-.09-.25-.25-.25-.43v-180.99c0-6.01-4.91-13.73-10.94-17.2l-102.27-58.93c-3.08-1.78-5.98-2.15-7.96-1.01-1.6.92-2.48,2.81-2.48,5.31v181.3c0,.18-.09.34-.25.43-.16.09-.34.09-.5,0l-45.41-26.07c-3.85-2.23-6.09-5.32-6.29-8.7l-.12-255.92c0-.27.22-.49.49-.5l511.65-12.35c.12,0,.26.05.36.14.1.09.15.22.15.36v254.56c.59,4.62-2.59,9.35-8.74,12.91l-236.6,137.45c-5.74,3.32-13.11,5.01-20.1,5.01Zm-69.99-36.08l55,31.65c8.85,5.1,24.36,4.45,34.59-1.46l236.6-137.45h0c5.79-3.34,8.79-7.71,8.25-11.98v-254.11s-510.65,12.32-510.65,12.32l.12,255.41c.18,3.05,2.18,5.78,5.79,7.87l44.66,25.64v-180.44c0-2.87,1.06-5.07,2.98-6.17,2.29-1.32,5.55-.95,8.96,1.01l102.27,58.93c6.31,3.64,11.44,11.74,11.44,18.07v180.71Z"/><path class="cls-10" d="m537.17,356.74l-225.31-129.39c-8.99-5.19-7.87-14.26,2.52-20.26l236.59-138.08c10.39-6,26.1-6.65,35.09-1.45l225.31,129.39c8.99,5.19,7.87,14.26-2.52,20.26l-236.59,138.08c-10.39,6-26.1,6.65-35.09,1.45Z"/><path class="cls-17" d="m552.4,360.73c-5.8,0-11.35-1.17-15.48-3.56l-225.31-129.39c-4.08-2.35-6.32-5.63-6.32-9.23,0-4.31,3.22-8.65,8.84-11.89l236.59-138.08c10.51-6.07,26.47-6.72,35.59-1.46l225.31,129.39c4.08,2.35,6.32,5.63,6.32,9.23,0,4.31-3.22,8.65-8.84,11.89l-236.59,138.08c-5.74,3.32-13.11,5.01-20.11,5.01Zm18.42-296.19c-6.81,0-14,1.66-19.6,4.89l-236.59,138.08c-5.3,3.06-8.34,7.08-8.34,11.03,0,3.23,2.07,6.2,5.82,8.37l225.31,129.39s0,0,0,0c8.84,5.1,24.36,4.45,34.59-1.46l236.59-138.08c5.3-3.06,8.34-7.08,8.34-11.03,0-3.23-2.07-6.2-5.82-8.37l-225.31-129.39c-4-2.31-9.36-3.44-14.99-3.44Z"/><path class="cls-17" d="m552.4,370.46c-5.8,0-11.35-1.17-15.48-3.56l-225.31-129.39c-4.01-2.31-6.25-5.53-6.32-9.06,0-.28.21-.5.49-.51.26.02.5.21.51.49.06,3.17,2.13,6.08,5.82,8.22l225.31,129.39c8.84,5.1,24.36,4.45,34.59-1.45l236.59-138.08c5.3-3.06,8.34-7.08,8.34-11.03,0-.28.22-.5.5-.5s.5.22.5.5c0,4.32-3.22,8.65-8.84,11.9l-236.59,138.08c-5.74,3.32-13.11,5.01-20.11,5.01Z"/><path class="cls-17" d="m554.61,336.19c-3.17,0-6.19-.64-8.45-1.94l-194.94-111.93c-2.27-1.31-3.52-3.15-3.52-5.17,0-2.41,1.78-4.81,4.87-6.6l205.1-119.73c5.72-3.3,14.42-3.66,19.38-.78l194.94,111.93c2.27,1.31,3.52,3.15,3.52,5.17,0,2.41-1.78,4.81-4.87,6.6l-205.1,119.73c-3.12,1.8-7.13,2.73-10.94,2.73Zm14.01-247.12c-3.62,0-7.45.88-10.43,2.61l-205.1,119.73c-2.78,1.61-4.38,3.7-4.38,5.74,0,1.65,1.07,3.18,3.02,4.3l194.94,111.93s0,0,0,0c4.69,2.71,12.94,2.36,18.38-.78l205.1-119.73c2.78-1.61,4.38-3.7,4.38-5.74,0-1.65-1.07-3.18-3.02-4.3l-194.94-111.93c-2.12-1.22-4.97-1.82-7.95-1.82Z"/><path class="cls-6" d="m481.91,399.42v17.29c-.2.59-.3,1.11-.3,1.55v91.05l-200.59,145.51h-.02s-112.38-64.87-112.38-64.87l.16-.13c-3.33-2.2-5.33-6.3-5.33-12.02v-7.45c0-13.28,10.77-30.27,24.07-37.95l118.29-67.76,51.46-29.67,102.83-59.3,10.62,6.12c6.19,3.56,11.19,11.46,11.19,17.64Z"/><path class="cls-17" d="m281,655.33c-.09,0-.17-.02-.25-.07l-112.38-64.88c-.14-.08-.24-.23-.25-.4,0,0,0-.01,0-.02-3.34-2.42-5.17-6.72-5.17-12.17v-7.45c0-13.42,10.91-30.64,24.32-38.39l118.29-67.76,154.29-88.97c.15-.09.35-.09.5,0l10.62,6.12c6.31,3.63,11.44,11.74,11.44,18.07v17.29c0,.05,0,.11-.03.16-.18.54-.27,1.01-.27,1.39v91.05c0,.16-.08.31-.21.4l-200.59,145.51s-.07.04-.1.06c-.07.03-.14.05-.22.05Zm-111.72-65.58l111.69,64.49,200.13-145.19v-90.8c0-.47.1-1.02.3-1.63v-17.21c0-6.01-4.91-13.73-10.94-17.2l-10.37-5.98-154.04,88.83-118.29,67.76c-13.13,7.58-23.82,24.42-23.82,37.52v7.45c0,5.38,1.77,9.4,5.11,11.6.12.08.2.21.22.35Zm312.62-173.05h0,0Z"/><path class="cls-10" d="m275.63,635.3v7.45c0,5.75,2.02,9.87,5.4,12.07,4.41,2.87,11.13,2.46,18.67-1.9l181.92-104.56v-55.57s-181.92,104.56-181.92,104.56c-13.29,7.68-24.07,24.67-24.07,37.95Z"/><path class="cls-17" d="m287.67,657.15c-2.61,0-4.95-.63-6.92-1.92-3.63-2.36-5.62-6.79-5.62-12.49v-7.45c0-13.42,10.91-30.64,24.32-38.39l181.92-104.56c.16-.09.35-.09.5,0,.16.09.25.25.25.43v55.57c0,.18-.1.34-.25.43l-181.92,104.56c-4.36,2.52-8.57,3.8-12.27,3.8Zm193.44-163.5l-181.17,104.13c-13.13,7.58-23.82,24.42-23.82,37.52v7.45c0,5.35,1.84,9.48,5.17,11.65,4.43,2.89,11.04,2.19,18.15-1.91l181.67-104.42v-54.42Z"/><path class="cls-3" d="m291.13,630.27v3.99c0,1.86.39,3.41,1.11,4.6.47.79,1.07,1.42,1.79,1.88,2.37,1.55,5.98,1.33,10.03-1.01l177.56-102.55v-29.82s-5.16,2.99-5.16,2.99l-172.41,99.55c-7.14,4.12-12.92,13.24-12.92,20.37Z"/><path class="cls-1" d="m291.13,630.27v3.99c0,1.86.39,3.41,1.11,4.6,1.94.05,4.22-.59,6.66-2l182.72-105.54v-23.97s-177.56,102.55-177.56,102.55c-7.14,4.12-12.92,13.24-12.92,20.37Z"/><path class="cls-17" d="m481.61,428.73c-.08,0-.17-.02-.25-.07l-56.07-32.33c-.24-.14-.32-.44-.18-.68s.44-.32.68-.18l56.07,32.33c.24.14.32.44.18.68-.09.16-.26.25-.43.25Z"/><path class="cls-17" d="m481.61,488.55c-.08,0-.17-.02-.25-.07l-108.09-62.32c-.24-.14-.32-.44-.18-.68s.44-.32.68-.18l108.09,62.32c.24.14.32.44.18.68-.09.16-.26.25-.43.25Z"/><path class="cls-17" d="m433.9,520.59c-.08,0-.17-.02-.25-.07l-112.17-64.67c-.24-.14-.32-.44-.18-.68s.44-.32.68-.18l112.17,64.67c.24.14.32.44.18.68-.09.16-.26.25-.43.25Z"/><path class="cls-17" d="m382.04,550.71c-.08,0-.17-.02-.25-.07l-112.17-64.67c-.24-.14-.32-.44-.18-.68s.44-.32.68-.18l112.17,64.67c.24.14.32.44.18.68-.09.16-.26.25-.43.25Z"/><path class="cls-17" d="m329.96,580.47c-.08,0-.17-.02-.25-.07l-112.17-64.67c-.24-.14-.32-.44-.18-.68s.44-.32.68-.18l112.17,64.67c.24.14.32.44.18.68-.09.16-.26.25-.43.25Z"/><path class="cls-17" d="m275.82,630.49c-.08,0-.17-.02-.25-.07l-112.17-64.67c-.24-.14-.32-.44-.18-.68.14-.24.44-.32.68-.18l112.17,64.67c.24.14.32.44.18.68-.09.16-.26.25-.43.25Z"/><polygon class="cls-17" points="481.91 413.04 481.91 458.16 442.84 435.6 447.06 433.16 471.1 419.28 471.11 419.28 481.91 413.04"/><path class="cls-10" d="m481.91,399.42v26.1l-10.8-6.24h-.01l-24.04-13.88,30.35-17.53c2.73,3.61,4.5,7.89,4.5,11.55Z"/><path class="cls-17" d="m481.91,426.02c-.09,0-.17-.02-.25-.07l-10.75-6.21s-.04-.02-.06-.03l-24.04-13.88c-.15-.09-.25-.25-.25-.43s.1-.34.25-.43l30.35-17.53c.22-.13.5-.07.65.13,2.92,3.87,4.6,8.19,4.6,11.85v26.1c0,.18-.1.34-.25.43-.08.04-.16.07-.25.07Zm-10.61-7.2s.04.02.06.03l10.05,5.81v-25.23c0-3.29-1.54-7.34-4.14-10.89l-29.21,16.87,23.24,13.42Z"/><polygon class="cls-10" points="481.91 425.52 481.91 454.12 447.06 433.99 447.06 405.4 471.1 419.28 471.11 419.28 481.91 425.52"/><path class="cls-17" d="m481.91,454.62c-.09,0-.17-.02-.25-.07l-34.85-20.13c-.15-.09-.25-.25-.25-.43v-28.59c0-.18.1-.34.25-.43.15-.09.35-.09.5,0l23.99,13.85s.04.02.06.03l10.8,6.24c.15.09.25.25.25.43v28.6c0,.18-.1.34-.25.43-.08.04-.16.07-.25.07Zm-34.35-20.92l33.85,19.55v-27.45l-10.5-6.07s-.04-.02-.06-.03l-23.29-13.45v27.43Z"/><path class="cls-8" d="m652.99,211.52v-61.34l-191.39,2.55v63.55h.12c.22,3.52,2.46,6.86,6.83,9.38l68.82,39.9c10.16,5.87,27.92,5.13,39.65-1.64l66.36-38.31c6.96-4.02,10.21-9.26,9.6-14.09Z"/><path class="cls-17" d="m554.59,270.01c-6.55,0-12.8-1.32-17.47-4.01l-68.82-39.9c-4.33-2.5-6.84-5.98-7.08-9.78l-.12-63.58c0-.27.22-.5.49-.5l191.39-2.55c.17,0,.26.05.36.14s.15.22.15.36v61.31c.64,5.26-2.95,10.56-9.86,14.55l-66.36,38.31c-6.48,3.74-14.8,5.66-22.69,5.66Zm-92.49-116.79l.12,63.06c.22,3.48,2.49,6.59,6.58,8.95l68.82,39.9c10.01,5.78,27.57,5.04,39.15-1.64l66.36-38.31c6.56-3.79,9.97-8.74,9.36-13.59,0-.02,0-.04,0-.06v-60.83l-190.39,2.53Z"/><path class="cls-10" d="m537.38,202.49l-68.82-39.9c-10.16-5.87-8.89-16.12,2.85-22.89l66.36-38.31c11.74-6.78,29.49-7.51,39.65-1.64l68.82,39.9c10.16,5.87,8.89,16.12-2.85,22.89l-66.36,38.31c-11.74,6.78-29.49,7.51-39.65,1.64Z"/><path class="cls-17" d="m554.59,206.94c-6.55,0-12.8-1.32-17.47-4.01h0l-68.82-39.9c-4.58-2.65-7.11-6.33-7.11-10.38,0-4.85,3.63-9.73,9.96-13.38l66.36-38.31c11.86-6.85,29.87-7.58,40.15-1.64l68.82,39.9c4.58,2.65,7.11,6.33,7.11,10.38,0,4.85-3.63,9.73-9.96,13.38l-66.36,38.31c-6.48,3.74-14.8,5.66-22.69,5.66Zm-16.97-4.88c10.01,5.78,27.57,5.04,39.15-1.64l66.36-38.31c6.01-3.47,9.46-8.03,9.46-12.52,0-3.67-2.35-7.05-6.61-9.51l-68.82-39.9c-10.01-5.78-27.57-5.04-39.15,1.64l-66.36,38.31c-6.01,3.47-9.46,8.03-9.46,12.52,0,3.67,2.35,7.05,6.61,9.51l68.82,39.9Z"/><path class="cls-17" d="m554.59,217.94c-6.55,0-12.8-1.32-17.47-4.01l-68.82-39.9c-4.51-2.6-7.03-6.22-7.11-10.19,0-.28.21-.5.49-.51h0c.27,0,.49.22.5.49.07,3.6,2.42,6.92,6.61,9.34l68.82,39.9c10.01,5.78,27.57,5.04,39.15-1.64l66.36-38.31c6.01-3.47,9.46-8.04,9.46-12.52,0-.28.22-.5.5-.5s.5.22.5.5c0,4.85-3.63,9.73-9.96,13.39l-66.36,38.31c-6.48,3.74-14.8,5.66-22.69,5.66Z"/><path class="cls-11" d="m545.67,193.79l-62.05-35.99c-6.15-3.55-5.38-9.76,1.72-13.86l59.76-34.51c7.11-4.1,17.85-4.55,24.01-1l62.05,35.99c6.15,3.55,5.38,9.76-1.72,13.86l-59.76,34.51c-7.11,4.1-17.85,4.55-24.01,1Z"/><path class="cls-17" d="m556.1,196.68c-4,0-7.82-.81-10.67-2.45h0l-62.05-35.99c-2.84-1.64-4.4-3.93-4.4-6.45,0-3.01,2.23-6.03,6.13-8.27l59.76-34.5c7.23-4.18,18.22-4.62,24.51-1l62.05,35.99c2.84,1.64,4.4,3.93,4.4,6.45,0,3.01-2.23,6.03-6.13,8.27l-59.76,34.5c-3.95,2.28-9.02,3.45-13.83,3.45Zm-10.17-3.32c6.01,3.47,16.55,3.02,23.51-1l59.76-34.5c3.58-2.07,5.63-4.77,5.63-7.41,0-2.15-1.39-4.13-3.9-5.59l-62.05-35.99c-6.01-3.47-16.55-3.02-23.51,1l-59.76,34.5c-3.58,2.07-5.63,4.77-5.63,7.41,0,2.15,1.39,4.13,3.9,5.59l62.05,35.99Z"/><path class="cls-5" d="m637.37,219.72l-54.82,31.65c-2.63,1.52-4.76.62-4.76-2.01v-16.87c0-2.63,2.13-5.99,4.76-7.51l54.82-31.65c2.63-1.52,4.76-.62,4.76,2.01v16.87c0,2.63-2.13,5.99-4.76,7.51Z"/><polygon class="cls-17" points="285.66 576.44 232.1 545.51 272.58 522.13 326.14 553.07 285.66 576.44"/><polygon class="cls-10" points="285.7 543.82 236.32 515.3 272.8 494.24 322.18 522.75 285.7 543.82"/><path class="cls-17" d="m285.7,544.32c-.09,0-.17-.02-.25-.07l-49.38-28.52c-.15-.09-.25-.25-.25-.43s.1-.34.25-.43l36.48-21.06c.15-.09.35-.09.5,0l49.38,28.52c.15.09.25.25.25.43s-.1.34-.25.43l-36.48,21.06c-.08.04-.16.07-.25.07Zm-48.38-29.02l48.38,27.94,35.48-20.49-48.38-27.94-35.48,20.49Z"/><polygon class="cls-10" points="322.18 551.35 322.18 522.75 285.7 543.82 285.7 572.42 322.18 551.35"/><path class="cls-17" d="m285.7,572.92c-.09,0-.17-.02-.25-.07-.15-.09-.25-.25-.25-.43v-28.6c0-.18.1-.34.25-.43l36.48-21.06c.15-.09.35-.09.5,0,.15.09.25.25.25.43v28.6c0,.18-.1.34-.25.43l-36.48,21.06c-.08.04-.16.07-.25.07Zm.5-28.81v27.44l35.48-20.49v-27.44l-35.48,20.49Zm35.98,7.25h0,0Z"/><polygon class="cls-10" points="236.32 543.9 236.32 515.3 285.7 543.82 285.7 572.42 236.32 543.9"/><path class="cls-17" d="m285.7,572.92c-.09,0-.17-.02-.25-.07l-49.38-28.52c-.15-.09-.25-.25-.25-.43v-28.6c0-.18.1-.34.25-.43.15-.09.35-.09.5,0l49.38,28.52c.15.09.25.25.25.43v28.6c0,.18-.1.34-.25.43-.08.04-.16.07-.25.07Zm-48.88-29.31l48.38,27.94v-27.44l-48.38-27.94v27.44Z"/><polygon class="cls-17" points="386.73 519.57 331.87 487.9 384.27 457.64 439.13 489.31 386.73 519.57"/><polygon class="cls-10" points="386.78 477.34 337.34 448.8 384.56 421.53 434 450.07 386.78 477.34"/><path class="cls-17" d="m386.78,477.84c-.09,0-.17-.02-.25-.07l-49.44-28.54c-.15-.09-.25-.25-.25-.43s.1-.34.25-.43l47.22-27.27c.15-.09.35-.09.5,0l49.44,28.54c.15.09.25.25.25.43s-.1.34-.25.43l-47.23,27.27c-.08.04-.16.07-.25.07Zm-48.44-29.04l48.44,27.96,46.23-26.69-48.44-27.96-46.22,26.69Z"/><polygon class="cls-10" points="434 487.09 434 450.07 386.78 477.34 386.78 514.36 434 487.09"/><path class="cls-17" d="m386.78,514.86c-.09,0-.17-.02-.25-.07-.15-.09-.25-.25-.25-.43v-37.02c0-.18.1-.34.25-.43l47.23-27.27c.15-.09.35-.09.5,0,.15.09.25.25.25.43v37.02c0,.18-.1.34-.25.43l-47.23,27.26c-.08.04-.16.07-.25.07Zm.5-37.23v35.86l46.23-26.69v-35.86l-46.23,26.69Zm46.73,9.46h0,0Z"/><polygon class="cls-10" points="337.34 485.82 337.34 448.8 386.78 477.34 386.78 514.36 337.34 485.82"/><path class="cls-17" d="m386.78,514.86c-.09,0-.17-.02-.25-.07l-49.44-28.54c-.15-.09-.25-.25-.25-.43v-37.02c0-.18.1-.34.25-.43.15-.09.35-.09.5,0l49.44,28.54c.15.09.25.25.25.43v37.02c0,.18-.1.34-.25.43-.08.04-.16.07-.25.07Zm-48.94-29.33l48.44,27.96v-35.86l-48.44-27.96v35.86Z"/><polygon class="cls-17" points="896.4 220.66 854.02 196.19 894.5 172.82 936.88 197.29 896.4 220.66"/><polygon class="cls-10" points="896.44 188.04 858.24 165.99 894.73 144.92 932.92 166.97 896.44 188.04"/><path class="cls-17" d="m896.44,188.54c-.09,0-.17-.02-.25-.07l-38.19-22.05c-.15-.09-.25-.25-.25-.43s.1-.34.25-.43l36.48-21.06c.15-.09.35-.09.5,0l38.19,22.05c.15.09.25.25.25.43s-.1.34-.25.43l-36.48,21.06c-.08.04-.16.07-.25.07Zm-37.19-22.55l37.19,21.47,35.48-20.49-37.19-21.47-35.48,20.49Z"/><polygon class="cls-10" points="932.92 195.57 932.92 166.97 896.44 188.04 896.44 216.63 932.92 195.57"/><path class="cls-17" d="m896.44,217.13c-.09,0-.17-.02-.25-.07-.15-.09-.25-.25-.25-.43v-28.6c0-.18.1-.34.25-.43l36.48-21.06c.15-.09.35-.09.5,0,.15.09.25.25.25.43v28.6c0,.18-.1.34-.25.43l-36.48,21.06c-.08.04-.16.07-.25.07Zm.5-28.81v27.44l35.48-20.49v-27.44l-35.48,20.49Zm35.98,7.25h0,0Z"/><polygon class="cls-10" points="858.24 194.58 858.24 165.99 896.44 188.04 896.44 216.63 858.24 194.58"/><path class="cls-17" d="m896.44,217.13c-.09,0-.17-.02-.25-.07l-38.19-22.05c-.15-.09-.25-.25-.25-.43v-28.6c0-.18.1-.34.25-.43.15-.09.35-.09.5,0l38.19,22.05c.15.09.25.25.25.43v28.6c0,.18-.1.34-.25.43-.08.04-.16.07-.25.07Zm-37.69-22.84l37.19,21.47v-27.44l-37.19-21.47v27.44Z"/><path class="cls-9" d="m769.57,457.26l-139.61,80.6c-6.7,3.87-12.13,1.57-12.13-5.13v-133.63c0-6.7,5.43-15.26,12.13-19.13l139.61-80.6c6.7-3.87,12.13-1.57,12.13,5.13v133.63c0,6.7-5.43,15.26-12.13,19.13Z"/><path class="cls-19" d="m711.99,397.92c-.15-1.86-.42-3.62-.81-5.27l4.21-12.09-4.43-6.55-8.33,6.02c-1.12-.57-2.32-1-3.6-1.23l-2.15-9.55-7.96,2.34-5.24,11.72c-1.47,1.03-2.9,2.22-4.3,3.56l-7.24-1.45-6.83,9.86.91,10.58c-.92,2.02-1.75,4.1-2.49,6.23l-8.09,7.53-1.69,11.6,6.52,3.23c.14,1.87.42,3.63.81,5.27l-4.22,12.09,4.43,6.55,8.33-6.01c1.12.59,2.32,1,3.61,1.22l2.14,9.55,7.97-2.35,5.24-11.72c1.46-1.03,2.9-2.24,4.3-3.56l7.24,1.44,6.83-9.85-.91-10.59c.92-2.02,1.75-4.1,2.49-6.23l8.09-7.53,1.69-11.6-6.52-3.24Zm-25.76,33.7c-6.39,3.69-11.57-.23-11.57-8.75s5.18-18.42,11.57-22.11c6.39-3.69,11.57.23,11.57,8.75s-5.18,18.42-11.57,22.11Z"/><path class="cls-19" d="m746.4,422.91c.2-1.42.31-2.8.34-4.13l4.19-7.55-1.5-6.24-5.59,1.77c-.54-.78-1.15-1.48-1.84-2.05l.24-7.71-4.83-.82-4.72,6.96c-.98.29-1.97.71-2.96,1.25l-3.85-3.37-5.33,5.08-1.09,8.08c-.82,1.19-1.6,2.46-2.34,3.8l-5.68,2.97-2.7,8,3.18,4.45c-.2,1.43-.31,2.81-.34,4.13l-4.2,7.56,1.5,6.24,5.59-1.77c.54.79,1.15,1.47,1.84,2.05l-.24,7.72,4.83.81,4.72-6.95c.97-.3,1.97-.72,2.95-1.25l3.85,3.37,5.33-5.08,1.09-8.09c.82-1.19,1.6-2.46,2.34-3.8l5.68-2.96,2.7-8-3.17-4.46Zm-19.56,16.6c-4.15.68-6.47-3.86-5.18-10.13s5.69-11.91,9.84-12.59c4.15-.68,6.46,3.86,5.18,10.13s-5.69,11.91-9.84,12.59Z"/></svg>