<?xml version="1.0" encoding="UTF-8"?><svg id="Layer_1" xmlns="http://www.w3.org/2000/svg" width="1103.3" height="792.17" xmlns:xlink="http://www.w3.org/1999/xlink" viewBox="0 0 1103.3 792.17"><defs><style>.cls-1{fill:url(#linear-gradient-38);}.cls-1,.cls-2,.cls-3,.cls-4,.cls-5,.cls-6,.cls-7,.cls-8,.cls-9,.cls-10,.cls-11,.cls-12,.cls-13,.cls-14,.cls-15,.cls-16,.cls-17,.cls-18,.cls-19,.cls-20,.cls-21,.cls-22,.cls-23,.cls-24,.cls-25,.cls-26,.cls-27,.cls-28,.cls-29,.cls-30,.cls-31,.cls-32,.cls-33,.cls-34,.cls-35,.cls-36,.cls-37,.cls-38,.cls-39,.cls-40,.cls-41,.cls-42,.cls-43,.cls-44,.cls-45,.cls-46,.cls-47,.cls-48,.cls-49,.cls-50,.cls-51,.cls-52,.cls-53,.cls-54{stroke-width:0px;}.cls-2{fill:url(#linear-gradient-12);}.cls-3{fill:url(#linear-gradient-17);}.cls-4{fill:url(#linear-gradient-19);}.cls-5{fill:url(#linear-gradient-33);}.cls-6{fill:url(#linear-gradient);}.cls-7{fill:url(#linear-gradient-21);}.cls-8{fill:url(#linear-gradient-6);}.cls-9{fill:url(#linear-gradient-42);}.cls-10{fill:url(#linear-gradient-15);}.cls-11{fill:url(#linear-gradient-11);}.cls-12{fill:url(#linear-gradient-5);}.cls-13{fill:url(#linear-gradient-31);}.cls-14{fill:url(#linear-gradient-34);}.cls-15{fill:url(#linear-gradient-41);}.cls-16{fill:url(#linear-gradient-40);}.cls-17{fill:url(#linear-gradient-13);}.cls-18{fill:url(#linear-gradient-23);}.cls-19{fill:url(#linear-gradient-25);}.cls-20{fill:url(#linear-gradient-43);}.cls-21{fill:url(#linear-gradient-16);}.cls-22{fill:url(#linear-gradient-22);}.cls-23{fill:#fff;}.cls-24{fill:url(#linear-gradient-35);}.cls-25{fill:url(#linear-gradient-50);}.cls-26{fill:url(#linear-gradient-32);}.cls-27{fill:url(#linear-gradient-20);}.cls-28{fill:url(#linear-gradient-14);}.cls-29{fill:url(#linear-gradient-2);}.cls-30{fill:url(#linear-gradient-52);}.cls-31{fill:url(#linear-gradient-45);}.cls-32{fill:url(#linear-gradient-7);}.cls-33{fill:url(#linear-gradient-39);}.cls-34{fill:url(#linear-gradient-3);}.cls-35{fill:url(#linear-gradient-9);}.cls-36{fill:url(#linear-gradient-27);}.cls-37{fill:url(#linear-gradient-36);}.cls-38{fill:url(#linear-gradient-48);}.cls-39{fill:url(#linear-gradient-49);}.cls-40{fill:url(#linear-gradient-8);}.cls-41{fill:url(#linear-gradient-47);}.cls-42{fill:url(#linear-gradient-24);}.cls-43{fill:url(#linear-gradient-26);}.cls-44{fill:url(#linear-gradient-18);}.cls-45{fill:url(#linear-gradient-51);}.cls-46{fill:#2b0548;}.cls-47{fill:url(#linear-gradient-30);}.cls-48{fill:url(#linear-gradient-44);}.cls-49{fill:url(#linear-gradient-29);}.cls-50{fill:url(#linear-gradient-46);}.cls-51{fill:url(#linear-gradient-28);}.cls-52{fill:url(#linear-gradient-10);}.cls-53{fill:url(#linear-gradient-4);}.cls-54{fill:url(#linear-gradient-37);}</style><linearGradient id="linear-gradient" x1="159.76" y1="608.39" x2="970.88" y2="608.39" gradientUnits="userSpaceOnUse"><stop offset=".47" stop-color="#b097d0"/><stop offset=".55" stop-color="#d6c9e2"/></linearGradient><linearGradient id="linear-gradient-2" x1="584.59" y1="453.51" x2="879.76" y2="453.51" gradientUnits="userSpaceOnUse"><stop offset=".44" stop-color="#b097d0"/><stop offset=".54" stop-color="#d6c9e2"/></linearGradient><linearGradient id="linear-gradient-3" x1="879.71" y1="364.96" x2="879.76" y2="364.96" xlink:href="#linear-gradient-2"/><linearGradient id="linear-gradient-4" x1="601.2" y1="460.19" x2="874.47" y2="460.19" gradientUnits="userSpaceOnUse"><stop offset=".42" stop-color="#6938b2"/><stop offset=".56" stop-color="#3c1365"/></linearGradient><linearGradient id="linear-gradient-5" y1="356.72" y2="356.72" xlink:href="#linear-gradient-2"/><linearGradient id="linear-gradient-6" x1="838.95" y1="477.78" x2="780.46" y2="426.49" gradientUnits="userSpaceOnUse"><stop offset=".14" stop-color="#b097d0"/><stop offset=".85" stop-color="#d6c9e2"/></linearGradient><linearGradient id="linear-gradient-7" x1="842.62" y1="480.43" x2="800.48" y2="439.36" gradientUnits="userSpaceOnUse"><stop offset=".13" stop-color="#b097d0"/><stop offset=".82" stop-color="#d6c9e2"/></linearGradient><linearGradient id="linear-gradient-8" x1="251.94" y1="453.75" x2="547.1" y2="453.75" xlink:href="#linear-gradient-2"/><linearGradient id="linear-gradient-9" x1="547.05" y1="365.2" x2="547.11" y2="365.2" xlink:href="#linear-gradient-2"/><linearGradient id="linear-gradient-10" x1="257.92" y1="459.98" x2="541.81" y2="459.98" xlink:href="#linear-gradient-4"/><linearGradient id="linear-gradient-11" x1="251.94" y1="356.96" x2="547.1" y2="356.96" xlink:href="#linear-gradient-2"/><linearGradient id="linear-gradient-12" x1="417.18" y1="549.9" x2="712.35" y2="549.9" xlink:href="#linear-gradient-2"/><linearGradient id="linear-gradient-13" x1="712.29" y1="461.35" x2="712.35" y2="461.35" xlink:href="#linear-gradient-2"/><linearGradient id="linear-gradient-14" x1="423.16" y1="556.13" x2="707.06" y2="556.13" xlink:href="#linear-gradient-4"/><linearGradient id="linear-gradient-15" x1="417.18" y1="453.11" x2="712.35" y2="453.11" xlink:href="#linear-gradient-2"/><linearGradient id="linear-gradient-16" x1="458.32" y1="560.92" x2="510.32" y2="560.92" gradientUnits="userSpaceOnUse"><stop offset=".61" stop-color="#b097d0"/><stop offset=".73" stop-color="#d6c9e2"/></linearGradient><linearGradient id="linear-gradient-17" y1="549.19" y2="549.19" xlink:href="#linear-gradient-16"/><linearGradient id="linear-gradient-18" y1="537.46" y2="537.46" xlink:href="#linear-gradient-16"/><linearGradient id="linear-gradient-19" x1="695.32" y1="303.86" x2="782.99" y2="303.86" xlink:href="#linear-gradient-2"/><linearGradient id="linear-gradient-20" x1="695.32" y1="288.35" x2="782.99" y2="288.35" xlink:href="#linear-gradient-2"/><linearGradient id="linear-gradient-21" x1="701.83" y1="274.91" x2="776.52" y2="274.91" gradientUnits="userSpaceOnUse"><stop offset=".39" stop-color="#3c1365"/><stop offset=".6" stop-color="#6938b2"/></linearGradient><linearGradient id="linear-gradient-22" x1="266.78" y1="301.42" x2="354.45" y2="301.42" gradientTransform="translate(701.21) rotate(-180) scale(1 -1)" xlink:href="#linear-gradient-2"/><linearGradient id="linear-gradient-23" x1="266.78" y1="285.91" x2="354.45" y2="285.91" gradientTransform="translate(701.21) rotate(-180) scale(1 -1)" xlink:href="#linear-gradient-2"/><linearGradient id="linear-gradient-24" x1="273.29" y1="272.47" x2="347.98" y2="272.47" gradientTransform="translate(701.21) rotate(-180) scale(1 -1)" xlink:href="#linear-gradient-21"/><linearGradient id="linear-gradient-25" x1="391.01" y1="314.94" x2="739.82" y2="314.94" xlink:href="#linear-gradient-2"/><linearGradient id="linear-gradient-26" x1="739.77" y1="203.66" x2="739.82" y2="203.66" xlink:href="#linear-gradient-2"/><linearGradient id="linear-gradient-27" x1="409.24" y1="323.75" x2="722.57" y2="323.75" gradientUnits="userSpaceOnUse"><stop offset=".44" stop-color="#6938b2"/><stop offset=".56" stop-color="#3c1365"/></linearGradient><linearGradient id="linear-gradient-28" x1="391.01" y1="221.75" x2="739.82" y2="221.75" xlink:href="#linear-gradient-2"/><linearGradient id="linear-gradient-29" x1="403.01" y1="153.86" x2="727.92" y2="153.86" xlink:href="#linear-gradient-2"/><linearGradient id="linear-gradient-30" x1="534.93" y1="216.92" x2="604.68" y2="216.92" xlink:href="#linear-gradient-2"/><linearGradient id="linear-gradient-31" x1="534.93" y1="201.41" x2="604.68" y2="201.41" xlink:href="#linear-gradient-2"/><linearGradient id="linear-gradient-32" x1="541.44" y1="188.43" x2="598.21" y2="188.43" xlink:href="#linear-gradient-21"/><linearGradient id="linear-gradient-33" x1="468.98" y1="178.75" x2="538.73" y2="178.75" xlink:href="#linear-gradient-2"/><linearGradient id="linear-gradient-34" x1="468.98" y1="163.24" x2="538.73" y2="163.24" xlink:href="#linear-gradient-2"/><linearGradient id="linear-gradient-35" x1="475.49" y1="150.26" x2="532.26" y2="150.26" xlink:href="#linear-gradient-21"/><linearGradient id="linear-gradient-36" x1="601.85" y1="180.2" x2="671.6" y2="180.2" xlink:href="#linear-gradient-2"/><linearGradient id="linear-gradient-37" x1="601.85" y1="164.69" x2="671.6" y2="164.69" xlink:href="#linear-gradient-2"/><linearGradient id="linear-gradient-38" x1="608.36" y1="151.71" x2="665.13" y2="151.71" xlink:href="#linear-gradient-21"/><linearGradient id="linear-gradient-39" x1="535.9" y1="142.03" x2="605.64" y2="142.03" xlink:href="#linear-gradient-2"/><linearGradient id="linear-gradient-40" x1="535.9" y1="126.52" x2="605.64" y2="126.52" xlink:href="#linear-gradient-2"/><linearGradient id="linear-gradient-41" x1="542.4" y1="113.54" x2="599.18" y2="113.54" xlink:href="#linear-gradient-21"/><linearGradient id="linear-gradient-42" x1="457.69" y1="421.03" x2="680.42" y2="421.03" gradientUnits="userSpaceOnUse"><stop offset="0" stop-color="#3c1365"/><stop offset="1" stop-color="#6938b2"/></linearGradient><linearGradient id="linear-gradient-43" x1="454.68" y1="388.36" x2="461.62" y2="388.36" xlink:href="#linear-gradient-42"/><linearGradient id="linear-gradient-44" x1="534.28" y1="455.3" x2="541.21" y2="455.3" xlink:href="#linear-gradient-42"/><linearGradient id="linear-gradient-45" x1="589.51" y1="455.3" x2="596.45" y2="455.3" xlink:href="#linear-gradient-42"/><linearGradient id="linear-gradient-46" x1="671.86" y1="386.01" x2="679.48" y2="386.01" xlink:href="#linear-gradient-42"/><linearGradient id="linear-gradient-47" x1="303.45" y1="321.81" x2="383.86" y2="321.81" xlink:href="#linear-gradient-42"/><linearGradient id="linear-gradient-48" x1="300.44" y1="288" x2="307.38" y2="288" xlink:href="#linear-gradient-42"/><linearGradient id="linear-gradient-49" x1="380.04" y1="354.94" x2="386.97" y2="354.94" xlink:href="#linear-gradient-42"/><linearGradient id="linear-gradient-50" x1="738.97" y1="326.57" x2="826.51" y2="326.57" xlink:href="#linear-gradient-42"/><linearGradient id="linear-gradient-51" x1="735.6" y1="360.87" x2="742.54" y2="360.87" xlink:href="#linear-gradient-42"/><linearGradient id="linear-gradient-52" x1="817.95" y1="291.57" x2="825.56" y2="291.57" xlink:href="#linear-gradient-42"/></defs><path class="cls-6" d="m949.94,484.57l-775.38-6.78-14.81.1v23.48h.07c.22,7.32,4.77,14.27,13.82,19.5l363.92,210.13c20.49,11.83,56.29,10.35,79.96-3.32l333.78-192.85c12.58-7.27,19.19-16.51,19.55-25.36h.03v-25.05l-20.94.15Z"/><path class="cls-46" d="m572.28,739.46c-13.11,0-25.63-2.64-34.96-8.03l-363.92-210.13c-8.66-5-13.63-11.89-14.05-19.43h-.02l-.07-.5v-23.98l15.31-.1,775.38,6.78,21.44-.15v26.05h-.06c-.6,9.17-7.78,18.36-19.77,25.29l-333.78,192.85c-13,7.5-29.68,11.35-45.5,11.35Zm-412.03-238.51l.07.4c.22,7.38,5.04,14.15,13.57,19.08l363.92,210.13c20.33,11.74,55.97,10.25,79.46-3.32l333.78-192.85c11.9-6.88,18.93-15.97,19.3-24.95l.03-.48v-24.05l-20.44.15-775.38-6.78-14.31.1v22.57Z"/><path class="cls-23" d="m951.3,510.83l-333.78,192.85c-23.67,13.66-59.46,15.15-79.96,3.32l-363.91-210.13c-20.5-11.84-17.93-32.5,5.74-46.17l333.78-192.85c23.67-13.66,59.46-15.15,79.96-3.31l363.91,210.12c20.5,11.84,17.93,32.5-5.74,46.17Z"/><path class="cls-46" d="m572.27,715.46c-13.11,0-25.62-2.64-34.96-8.03l-363.91-210.13c-9.09-5.25-14.09-12.52-14.09-20.49,0-9.59,7.23-19.27,19.83-26.55l333.78-192.85c23.77-13.72,59.87-15.2,80.46-3.31l363.91,210.12c9.09,5.25,14.09,12.52,14.09,20.49,0,9.59-7.23,19.27-19.83,26.55l-333.78,192.85c-13,7.5-29.68,11.35-45.5,11.35Zm-13.87-468.4c-15.63,0-32.13,3.8-44.99,11.23l-333.78,192.85c-12.28,7.09-19.33,16.46-19.33,25.68,0,7.59,4.83,14.56,13.59,19.62l363.91,210.13c20.32,11.73,55.97,10.24,79.46-3.32l333.78-192.85h0c12.28-7.09,19.33-16.46,19.33-25.68,0-7.59-4.83-14.56-13.59-19.62l-363.91-210.12c-9.2-5.31-21.54-7.92-34.47-7.92Z"/><path class="cls-29" d="m879.7,479.06v-137.83l-295.11-.23v139.53h.09c.17,2.71,1.89,5.28,5.26,7.22l128.5,75.21c7.82,4.52,21.48,3.95,30.51-1.26l123.35-71.8c5.36-3.09,7.86-7.13,7.39-10.84Z"/><path class="cls-46" d="m731.7,566.5c-5.06,0-9.89-1.02-13.5-3.1l-128.51-75.21c-3.37-1.94-5.32-4.65-5.5-7.62l-.1-139.56c0-.13.05-.26.15-.35s.22-.15.35-.15h0l295.11.23c.28,0,.5.22.5.5v137.8c.5,4.09-2.28,8.21-7.64,11.31l-123.35,71.8c-5,2.89-11.42,4.37-17.52,4.37Zm-146.6-224.99l.09,139.03c.16,2.63,1.89,4.99,5.01,6.79l128.51,75.21c7.67,4.43,21.13,3.86,30.01-1.27l123.35-71.8c5.01-2.89,7.61-6.66,7.15-10.35,0-.02,0-.04,0-.06v-137.33l-294.11-.23Z"/><path class="cls-23" d="m718.45,423.8l-128.5-75.21c-7.82-4.52-6.84-12.4,2.19-17.62l123.35-71.8c9.03-5.21,22.69-5.78,30.51-1.26l128.5,75.21c7.82,4.52,6.84,12.4-2.19,17.62l-123.35,71.8c-9.03,5.21-22.69,5.78-30.51,1.26Z"/><path class="cls-46" d="m731.7,427.34c-5.06,0-9.89-1.02-13.5-3.1h0s-128.5-75.21-128.5-75.21c-3.56-2.06-5.53-4.93-5.53-8.08,0-3.78,2.81-7.57,7.72-10.4l123.35-71.8c9.16-5.29,23.07-5.85,31.02-1.27l128.51,75.21c3.56,2.06,5.53,4.93,5.53,8.08,0,3.78-2.81,7.57-7.72,10.4l-123.35,71.8c-5,2.89-11.42,4.37-17.52,4.37Zm-13-3.97c7.67,4.43,21.13,3.86,30.01-1.27l123.35-71.8c4.59-2.65,7.22-6.13,7.22-9.53,0-2.78-1.79-5.35-5.03-7.22l-128.51-75.21c-7.67-4.43-21.13-3.86-30.01,1.27l-123.35,71.8c-4.59,2.65-7.22,6.12-7.22,9.53,0,2.78,1.79,5.35,5.03,7.22l128.5,75.21Z"/><path class="cls-34" d="m879.71,365.81v-1.71c.07.57.08,1.13,0,1.71Z"/><path class="cls-53" d="m874.47,367.29v106.39c0,4.38-1.83,8.36-5.61,10.56l-120.66,70.28c-8.59,4.95-21.59,5.49-29.02,1.2l-112.36-65.91c-3.48-2.04-5.61-5.77-5.61-9.8v-108.63c0-3.46,3.76-5.61,6.74-3.86l111.23,65.25c7.43,4.3,20.43,3.76,29.02-1.2l118.56-69.07c3.65-2.12,7.71.58,7.71,4.8Z"/><path class="cls-12" d="m879.7,328.19v-29.68l-295.11-.23v31.38h.09c.17,2.71,1.89,5.28,5.26,7.22l128.5,75.21c7.82,4.52,21.48,3.95,30.51-1.26l123.35-71.8c5.36-3.09,7.86-7.13,7.39-10.84Z"/><path class="cls-46" d="m731.7,415.63c-5.06,0-9.89-1.02-13.5-3.1l-128.51-75.21c-3.37-1.94-5.32-4.65-5.5-7.62l-.1-31.41c0-.13.05-.26.15-.35.09-.09.22-.15.35-.15h0l295.11.23c.28,0,.5.22.5.5v29.65c.5,4.09-2.28,8.21-7.64,11.3l-123.35,71.8c-5,2.89-11.42,4.37-17.52,4.37Zm-146.6-116.85l.09,30.88c.16,2.63,1.89,4.99,5.01,6.79l128.51,75.21c7.67,4.43,21.13,3.86,30.01-1.27l123.35-71.8c5.01-2.89,7.61-6.66,7.15-10.35,0-.02,0-.04,0-.06v-29.18l-294.11-.23Z"/><path class="cls-23" d="m718.45,381.09l-128.5-75.21c-7.82-4.52-6.84-12.4,2.19-17.62l123.35-71.8c9.03-5.21,22.69-5.78,30.51-1.26l128.5,75.21c7.82,4.52,6.84,12.4-2.19,17.62l-123.35,71.8c-9.03,5.21-22.69,5.78-30.51,1.26Z"/><path class="cls-46" d="m731.7,384.62c-5.06,0-9.89-1.02-13.5-3.1h0s-128.5-75.21-128.5-75.21c-3.56-2.06-5.53-4.93-5.53-8.08,0-3.78,2.81-7.57,7.72-10.4l123.35-71.8c9.16-5.29,23.07-5.85,31.02-1.27l128.51,75.21c3.56,2.06,5.53,4.93,5.53,8.08,0,3.78-2.81,7.57-7.72,10.4l-123.35,71.8c-5,2.89-11.42,4.37-17.52,4.37Zm-13-3.97c7.67,4.43,21.13,3.86,30.01-1.27l123.35-71.8c4.59-2.65,7.22-6.12,7.22-9.53,0-2.78-1.79-5.35-5.03-7.22l-128.51-75.21c-7.67-4.43-21.13-3.86-30.01,1.27l-123.35,71.8c-4.59,2.65-7.22,6.12-7.22,9.53,0,2.78,1.79,5.35,5.03,7.22l128.5,75.21Z"/><path class="cls-46" d="m731.7,397.93c-5.06,0-9.89-1.02-13.5-3.1l-128.51-75.21c-3.5-2.02-5.47-4.84-5.53-7.94,0-.28.21-.5.49-.51.28-.02.5.21.51.49.05,2.73,1.84,5.25,5.03,7.09l128.51,75.21c7.67,4.43,21.13,3.86,30.01-1.27l123.35-71.8c4.59-2.65,7.22-6.13,7.22-9.54,0-.28.22-.5.5-.5s.5.22.5.5c0,3.78-2.81,7.57-7.72,10.4l-123.35,71.8c-5,2.89-11.42,4.37-17.52,4.37Z"/><path class="cls-23" d="m839.69,410.26l-4.07-2.54c-.8-.68-2.14-.67-3.64.2l-47.19,27.24c-2.46,1.42-4.45,4.56-4.45,7.02v52.02c0,1.12.42,1.9,1.11,2.29l4.1,2.44,54.15-88.68Z"/><path class="cls-46" d="m785.54,499.38c-.08,0-.15-.02-.22-.06l-4.1-2.44c-.85-.48-1.32-1.42-1.32-2.66v-52.02c0-2.59,2.09-5.91,4.67-7.39l47.19-27.24c1.61-.93,3.16-.99,4.14-.16l4.02,2.5c.2.13.26.39.14.59l-54.15,88.68c-.08.13-.22.21-.37.21Zm48.63-91.7c-.59,0-1.27.21-1.98.62l-47.19,27.24c-2.33,1.35-4.23,4.33-4.23,6.64v52.02c0,.93.31,1.59.88,1.91l3.74,2.23,53.7-87.95-3.71-2.31c-.33-.28-.74-.41-1.22-.41Z"/><path class="cls-8" d="m836.09,471.42l-47.19,27.24c-2.46,1.42-4.45.58-4.45-1.88v-52.02c0-2.46,1.99-5.6,4.45-7.02l47.19-27.24c2.46-1.42,4.45-.58,4.45,1.88v52.02c0,2.46-1.99,5.6-4.45,7.02Z"/><path class="cls-46" d="m786.67,499.78c-.5,0-.96-.11-1.35-.34-.84-.48-1.3-1.43-1.3-2.66v-52.02c0-2.59,2.09-5.91,4.67-7.39l47.19-27.24c1.43-.82,2.81-.97,3.8-.4.84.48,1.3,1.43,1.3,2.66v52.02c0,2.59-2.09,5.91-4.67,7.39l-47.19,27.24c-.86.49-1.7.75-2.44.75Zm51.64-89.54c-.59,0-1.28.21-2,.63l-47.19,27.24c-2.33,1.35-4.23,4.33-4.23,6.64v52.02c0,.91.31,1.59.87,1.91.71.41,1.78.26,2.93-.4l47.19-27.24h0c2.33-1.35,4.23-4.33,4.23-6.64v-52.02c0-.91-.31-1.59-.87-1.91-.26-.15-.58-.23-.93-.23Z"/><path class="cls-23" d="m847.72,417.26l-8.17-4.8c-.78-.66-2.06-.64-3.51.2l-45.45,26.24c-2.37,1.37-4.29,4.39-4.29,6.76v49.97c0,1.08.4,1.83,1.07,2.21l8.19,4.71,52.15-85.29Z"/><path class="cls-46" d="m795.57,502.98c-.07,0-.15-.02-.22-.06l-8.19-4.71c-.83-.46-1.28-1.38-1.28-2.58v-49.97c0-2.5,2.02-5.7,4.5-7.13l45.45-26.24c1.56-.9,3.06-.96,4.01-.15l8.11,4.76c.1.06.17.16.2.27.03.11,0,.23-.05.33l-52.15,85.29c-.08.13-.22.21-.37.21Zm42.59-90.55c-.57,0-1.22.2-1.9.6l-45.45,26.24c-2.24,1.3-4.07,4.16-4.07,6.38v49.97c0,.89.29,1.52.84,1.83l7.83,4.51,51.7-84.55-7.79-4.58c-.32-.27-.72-.4-1.18-.4Z"/><path class="cls-32" d="m844.26,476.03l-45.45,26.24c-2.37,1.37-4.29.56-4.29-1.81v-49.97c0-2.37,1.92-5.39,4.29-6.76l45.45-26.24c2.37-1.37,4.29-.56,4.29,1.81v49.97c0,2.37-1.92,5.39-4.29,6.76Z"/><path class="cls-46" d="m796.67,503.37c-.49,0-.93-.11-1.31-.33-.81-.47-1.26-1.38-1.26-2.58v-49.97c0-2.5,2.02-5.7,4.5-7.13l45.45-26.24c1.38-.8,2.72-.94,3.67-.39.81.47,1.26,1.38,1.26,2.58v49.97c0,2.5-2.02,5.7-4.5,7.13l-.22-.38.22.38-45.45,26.24c-.83.48-1.64.72-2.36.72Zm49.73-86.11c-.56,0-1.23.21-1.92.61l-45.45,26.24c-2.24,1.3-4.07,4.16-4.07,6.38v49.97c0,.88.29,1.51.83,1.83.68.39,1.7.25,2.81-.39l45.45-26.24c2.24-1.3,4.07-4.16,4.07-6.38v-49.97c0-.88-.29-1.51-.83-1.83-.25-.15-.55-.22-.89-.22Z"/><path class="cls-46" d="m844.42,426.09v41.16c0,2.01-1.63,4.57-3.64,5.73l-38.5,22.23c-1.77,1.02-3.24.6-3.55-.89-.06-.2-.08-.42-.08-.65v-41.16c0-2.01,1.63-4.57,3.63-5.73l38.5-22.23c.55-.32,1.08-.49,1.55-.54,1.23-.14,2.09.63,2.09,2.08Z"/><path class="cls-40" d="m547.05,479.3v-137.83l-295.11-.23v139.53h.09c.17,2.71,1.89,5.28,5.26,7.22l128.5,75.21c7.82,4.52,21.48,3.95,30.51-1.26l123.35-71.8c5.36-3.09,7.86-7.13,7.39-10.84Z"/><path class="cls-46" d="m399.04,566.74c-5.06,0-9.89-1.02-13.5-3.1l-128.51-75.21c-3.37-1.94-5.32-4.65-5.5-7.62l-.1-139.56c0-.13.05-.26.15-.35s.22-.15.35-.15h0l295.11.23c.28,0,.5.22.5.5v137.8c.5,4.09-2.28,8.21-7.64,11.3l-123.35,71.8c-5,2.89-11.42,4.37-17.52,4.37Zm-146.6-224.99l.09,139.03c.16,2.63,1.89,4.99,5.01,6.79l128.51,75.21c7.67,4.43,21.13,3.86,30.01-1.27l123.35-71.8c5.01-2.89,7.61-6.66,7.15-10.35,0-.02,0-.04,0-.06v-137.33l-294.11-.23Z"/><path class="cls-23" d="m385.79,424.05l-128.5-75.21c-7.82-4.52-6.84-12.4,2.19-17.62l123.35-71.8c9.03-5.21,22.69-5.78,30.51-1.26l128.5,75.21c7.82,4.52,6.84,12.4-2.19,17.62l-123.35,71.8c-9.03,5.21-22.69,5.78-30.51,1.26Z"/><path class="cls-46" d="m399.04,427.58c-5.06,0-9.89-1.02-13.5-3.1h0s-128.5-75.21-128.5-75.21c-3.56-2.06-5.53-4.93-5.53-8.08,0-3.78,2.81-7.57,7.72-10.4l123.35-71.8c9.16-5.29,23.07-5.86,31.02-1.27l128.51,75.21c3.56,2.06,5.53,4.93,5.53,8.08,0,3.78-2.81,7.57-7.72,10.4l-123.35,71.8c-5,2.89-11.42,4.37-17.52,4.37Zm-13-3.97c7.67,4.43,21.13,3.86,30.01-1.27l123.35-71.8c4.59-2.65,7.22-6.13,7.22-9.53,0-2.78-1.79-5.35-5.03-7.22l-128.51-75.21c-7.67-4.43-21.13-3.86-30.01,1.27l-123.35,71.8c-4.59,2.65-7.22,6.12-7.22,9.53,0,2.78,1.79,5.35,5.03,7.22l128.5,75.21Z"/><path class="cls-35" d="m547.05,366.06v-1.71c.07.57.08,1.13,0,1.71Z"/><path class="cls-52" d="m541.81,367.53v106.39c0,4.38-1.83,8.36-5.61,10.56l-120.66,70.28c-8.59,4.95-21.59,5.49-29.02,1.2l-122.99-71.95c-3.48-2.04-5.61-5.77-5.61-9.8v-108.63c0-3.46,3.76-5.61,6.74-3.86l121.86,71.29c7.43,4.3,20.43,3.76,29.02-1.2l118.56-69.07c3.65-2.12,7.71.58,7.71,4.8Z"/><path class="cls-11" d="m547.05,328.44v-29.68l-295.11-.23v31.38h.09c.17,2.71,1.89,5.28,5.26,7.22l128.5,75.21c7.82,4.52,21.48,3.95,30.51-1.26l123.35-71.8c5.36-3.09,7.86-7.13,7.39-10.84Z"/><path class="cls-46" d="m399.04,415.88c-5.06,0-9.89-1.02-13.5-3.1l-128.51-75.21c-3.37-1.94-5.32-4.65-5.5-7.62l-.1-31.41c0-.13.05-.26.15-.35.09-.09.22-.15.35-.15h0l295.11.23c.28,0,.5.22.5.5v29.65c.5,4.09-2.28,8.21-7.64,11.3l-123.35,71.8c-5,2.89-11.42,4.37-17.52,4.37Zm-146.6-116.85l.09,30.88c.16,2.63,1.89,4.99,5.01,6.79l128.51,75.21c7.67,4.43,21.13,3.86,30.01-1.27l123.35-71.8c5.01-2.89,7.61-6.66,7.15-10.35,0-.02,0-.04,0-.06v-29.18l-294.11-.23Z"/><path class="cls-23" d="m385.79,381.33l-128.5-75.21c-7.82-4.52-6.84-12.4,2.19-17.62l123.35-71.8c9.03-5.21,22.69-5.78,30.51-1.26l128.5,75.21c7.82,4.52,6.84,12.4-2.19,17.62l-123.35,71.8c-9.03,5.21-22.69,5.78-30.51,1.26Z"/><path class="cls-46" d="m399.04,384.87c-5.06,0-9.89-1.02-13.5-3.1h0s-128.5-75.21-128.5-75.21c-3.56-2.06-5.53-4.93-5.53-8.08,0-3.78,2.81-7.57,7.72-10.4l123.35-71.8c9.16-5.29,23.07-5.85,31.02-1.27l128.51,75.21c3.56,2.06,5.53,4.93,5.53,8.08,0,3.78-2.81,7.57-7.72,10.4l-123.35,71.8c-5,2.89-11.42,4.37-17.52,4.37Zm-13-3.97c7.67,4.43,21.13,3.86,30.01-1.27l123.35-71.8c4.59-2.65,7.22-6.12,7.22-9.53,0-2.78-1.79-5.35-5.03-7.22l-128.51-75.21c-7.67-4.43-21.13-3.86-30.01,1.27l-123.35,71.8c-4.59,2.65-7.22,6.12-7.22,9.53,0,2.78,1.79,5.35,5.03,7.22l128.5,75.21Z"/><path class="cls-46" d="m399.04,398.17c-5.06,0-9.89-1.02-13.5-3.1l-128.51-75.21c-3.5-2.02-5.46-4.84-5.53-7.94,0-.28.21-.5.49-.51.25.01.5.21.51.49.05,2.73,1.84,5.25,5.03,7.09l128.51,75.21c7.67,4.43,21.13,3.86,30.01-1.27l123.35-71.8c4.59-2.65,7.22-6.13,7.22-9.54,0-.28.22-.5.5-.5s.5.22.5.5c0,3.78-2.81,7.57-7.72,10.4l-123.35,71.8c-5,2.89-11.42,4.37-17.52,4.37Z"/><path class="cls-23" d="m445.47,483.19c-.88-.11-1.57-.57-2.07-1.38-.5-.81-.75-1.92-.75-3.31s.25-2.79.75-4.17c.5-1.39,1.19-2.64,2.07-3.77.88-1.13,1.88-2.01,2.99-2.66s2.11-.91,2.98-.79c.88.11,1.56.58,2.06,1.39.5.81.75,1.92.75,3.31s-.25,2.79-.75,4.17c-.5,1.39-1.18,2.64-2.06,3.77-.88,1.13-1.87,2.01-2.98,2.65s-2.11.91-2.99.8Zm4.93-6.32c.5-1,.76-2.09.76-3.28s-.25-1.99-.76-2.4c-.5-.42-1.15-.4-1.93.06-.79.45-1.43,1.18-1.94,2.18-.51,1-.77,2.09-.77,3.28s.25,1.99.77,2.4c.51.41,1.16.39,1.94-.06.79-.45,1.43-1.18,1.93-2.18Z"/><path class="cls-23" d="m465.21,459.13c.8.14,1.44.62,1.89,1.44.46.83.69,1.96.69,3.41s-.23,2.85-.69,4.2c-.46,1.35-1.09,2.57-1.89,3.63-.8,1.07-1.7,1.88-2.68,2.45-1.45.84-2.56.87-3.32.08v1.62l-2.92,1.69v-19.42l3.06-1.77v6.83c.77-1.58,1.83-2.76,3.18-3.54.98-.57,1.87-.78,2.68-.64Zm-1.28,9.92c.5-1,.76-2.09.76-3.28s-.25-1.99-.76-2.4c-.5-.42-1.15-.4-1.93.06-.79.45-1.43,1.18-1.93,2.18-.5,1-.76,2.09-.76,3.28s.25,1.99.76,2.4c.5.42,1.15.4,1.93-.06.78-.45,1.43-1.18,1.93-2.18Z"/><path class="cls-23" d="m466.59,476.22l.83-3.43c.35.13.78.04,1.29-.25.39-.23.7-.57.92-1.04.22-.47.33-1.04.33-1.72v-14.08l3.06-1.77v14.05c0,1.64-.35,3.14-1.05,4.49-.7,1.36-1.68,2.4-2.93,3.12-1.07.62-1.89.83-2.45.63Zm3.53-23.23c-.35-.23-.53-.67-.53-1.32s.18-1.29.53-1.93c.35-.64.81-1.12,1.37-1.45s1.02-.38,1.37-.17c.35.22.53.64.53,1.26,0,.68-.18,1.35-.53,1.99-.35.65-.81,1.14-1.37,1.46s-1.02.37-1.37.14Z"/><path class="cls-23" d="m486.14,454.54l-7.99,4.61c.14.79.48,1.28,1.02,1.48.54.2,1.2.06,2-.4.55-.32,1.04-.71,1.46-1.17.42-.46.82-1.04,1.19-1.72l1.63,1.41c-1,2.09-2.45,3.69-4.36,4.79-1.19.69-2.25.99-3.16.9-.92-.09-1.62-.54-2.12-1.35-.5-.81-.75-1.92-.75-3.31s.25-2.76.74-4.15c.49-1.39,1.16-2.64,2.02-3.76.86-1.11,1.82-1.98,2.88-2.59,1.03-.6,1.97-.84,2.81-.73.84.11,1.5.58,1.97,1.41.48.83.72,1.98.72,3.45,0,.05-.02.43-.06,1.13Zm-7.16-.39c-.47.79-.76,1.68-.86,2.65l5.2-3c-.1-.83-.39-1.37-.86-1.63-.47-.26-1.05-.19-1.73.2-.69.4-1.28,1-1.75,1.79Z"/><path class="cls-23" d="m490.31,457.3c-.9-.1-1.6-.56-2.1-1.36-.5-.81-.76-1.91-.76-3.31s.25-2.79.76-4.18c.5-1.39,1.2-2.65,2.1-3.79.9-1.14,1.91-2.03,3.03-2.68,1.11-.64,2.08-.89,2.91-.75.83.14,1.44.68,1.82,1.61l-2.37,3.07c-.55-.97-1.34-1.16-2.38-.56-.8.46-1.46,1.19-1.98,2.19-.52,1-.79,2.1-.79,3.31s.26,2,.79,2.4c.52.4,1.18.36,1.98-.1,1.05-.6,1.84-1.71,2.38-3.31l2.37.36c-.38,1.34-.98,2.56-1.82,3.67-.83,1.11-1.8,1.98-2.91,2.62-1.12.65-2.14.92-3.03.82Z"/><path class="cls-23" d="m506.8,447.82c-.3.47-.67.91-1.11,1.31-.44.4-.9.74-1.38,1.02-1.26.73-2.23.86-2.91.4-.69-.46-1.03-1.52-1.03-3.17v-5.78l-1.63.94v-3.14l1.63-.94v-3.43l3.06-1.77v3.43l2.63-1.52v3.14l-2.63,1.52v5.73c0,.59.11.99.34,1.18.23.19.55.17.97-.08.48-.28.9-.69,1.24-1.24l.82,2.4Z"/><path class="cls-23" d="m450.89,507.57c-.84.2-1.5.22-2,.07l1.02-3.52c.47.13,1.04.13,1.71,0,.67-.13,1.32-.38,1.96-.75,1.29-.75,1.94-1.55,1.94-2.4,0-.4-.18-.59-.53-.56-.35.03-.9.2-1.63.5-.86.32-1.58.54-2.14.63-.56.1-1.05-.02-1.46-.36-.41-.34-.62-1.04-.62-2.1,0-.89.19-1.79.58-2.7.39-.91.95-1.77,1.69-2.58.74-.81,1.61-1.51,2.62-2.09.75-.43,1.49-.75,2.23-.96s1.35-.26,1.83-.16l-1.02,3.49c-.93-.16-1.94.08-3.04.71-.65.38-1.15.78-1.47,1.22-.33.43-.49.84-.49,1.23,0,.44.18.64.53.61.35-.03.92-.19,1.69-.48.86-.31,1.57-.51,2.12-.61.55-.1,1.03.02,1.43.36.41.34.61,1.03.61,2.06,0,.87-.2,1.76-.59,2.67s-.96,1.77-1.72,2.57c-.75.81-1.65,1.51-2.68,2.11-.88.51-1.73.86-2.57,1.05Z"/><path class="cls-23" d="m467.14,497.73c-.3.47-.67.91-1.11,1.31-.44.4-.9.74-1.38,1.02-1.26.73-2.23.86-2.91.4-.69-.46-1.03-1.52-1.03-3.17v-5.78l-1.63.94v-3.14l1.63-.94v-3.43l3.06-1.77v3.43l2.63-1.52v3.14l-2.63,1.52v5.73c0,.59.11.99.34,1.18.23.19.55.17.97-.08.48-.28.9-.69,1.24-1.24l.82,2.4Z"/><path class="cls-23" d="m470.57,495.71c-.88-.11-1.57-.57-2.07-1.38-.5-.81-.75-1.92-.75-3.31s.25-2.79.75-4.17c.5-1.39,1.19-2.64,2.07-3.77.88-1.13,1.88-2.01,2.99-2.66,1.11-.64,2.11-.91,2.98-.79.88.11,1.56.58,2.06,1.39.5.81.75,1.92.75,3.31s-.25,2.79-.75,4.17c-.5,1.39-1.18,2.64-2.06,3.77-.88,1.13-1.87,2.01-2.98,2.65-1.11.64-2.11.91-2.99.8Zm4.92-6.32c.5-1,.76-2.09.76-3.28s-.25-1.99-.76-2.4c-.5-.42-1.15-.4-1.93.06-.79.45-1.43,1.18-1.94,2.18-.51,1-.76,2.09-.76,3.28s.25,1.99.76,2.4c.51.41,1.16.39,1.94-.06.79-.45,1.43-1.18,1.93-2.18Z"/><path class="cls-23" d="m485.79,473.88c.62-.71,1.34-1.3,2.15-1.76v3.77c-.34.16-.57.28-.69.34-.88.51-1.56,1.23-2.06,2.17-.5.94-.75,2.07-.75,3.37v6.65l-3.06,1.77v-14.08l2.92-1.69v1.86c.37-.89.86-1.69,1.48-2.4Z"/><path class="cls-23" d="m499.96,473.58l-7.99,4.61c.14.79.48,1.28,1.02,1.48.54.2,1.2.06,2-.4.55-.32,1.04-.71,1.46-1.17.43-.46.82-1.04,1.19-1.72l1.63,1.41c-1,2.09-2.45,3.69-4.36,4.79-1.19.69-2.24.99-3.16.9-.92-.09-1.62-.54-2.12-1.35-.5-.81-.75-1.92-.75-3.31s.25-2.76.74-4.15,1.16-2.64,2.02-3.76c.86-1.11,1.81-1.98,2.88-2.59,1.03-.6,1.97-.84,2.81-.73.84.11,1.49.58,1.97,1.41.48.83.72,1.98.72,3.45,0,.05-.02.43-.06,1.13Zm-7.16-.39c-.47.79-.76,1.68-.86,2.65l5.2-3c-.11-.83-.39-1.37-.86-1.63-.47-.26-1.05-.19-1.73.2-.69.4-1.28,1-1.75,1.79Z"/><path class="cls-23" d="m290.54,462.75c.48,0,1.04.19,1.67.56v2.93c-.26-.18-.44-.3-.53-.35-.68-.39-1.22-.45-1.6-.16s-.58.94-.58,1.96v5.17l-2.38-1.38v-10.96l2.28,1.31v1.45c.29-.36.67-.54,1.15-.54Z"/><path class="cls-23" d="m303.06,476.11l-6.22-3.59c.11.74.38,1.43.79,2.07.42.64.94,1.13,1.56,1.49.43.25.81.38,1.14.4.33.02.64-.07.92-.27l1.27,2.57c-.77.73-1.91.67-3.39-.19-.93-.54-1.75-1.25-2.46-2.14-.71-.89-1.26-1.88-1.65-2.96-.39-1.08-.58-2.16-.58-3.25s.19-1.93.57-2.57c.38-.64.91-1.01,1.57-1.11.67-.1,1.41.09,2.24.57.8.46,1.53,1.12,2.18,1.95.65.84,1.16,1.8,1.54,2.87s.56,2.19.56,3.33c0,.04-.01.32-.05.83Zm-5.58-6.74c-.37.2-.59.62-.67,1.28l4.05,2.34c-.08-.74-.31-1.42-.67-2.05s-.81-1.09-1.34-1.4c-.54-.31-.99-.37-1.36-.17Z"/><path class="cls-23" d="m307.81,482.87c-.7-.88-1.24-1.87-1.63-2.95-.39-1.08-.59-2.17-.59-3.25s.2-1.94.59-2.57c.39-.63.94-.98,1.63-1.06.7-.08,1.48.13,2.36.64.87.5,1.62,1.18,2.27,2.03.65.86,1.12,1.82,1.41,2.88l-1.85.26c-.43-1.25-1.04-2.11-1.85-2.58-.62-.36-1.14-.38-1.54-.08-.41.31-.61.93-.61,1.87s.2,1.8.61,2.57c.41.78.92,1.35,1.54,1.71.82.47,1.43.32,1.85-.44l1.85,2.41c-.3.7-.77,1.11-1.41,1.22-.65.12-1.4-.08-2.27-.58-.88-.51-1.66-1.2-2.36-2.09Z"/><path class="cls-23" d="m318.2,488.87c-.69-.88-1.23-1.86-1.61-2.94-.39-1.08-.58-2.16-.58-3.25s.19-1.95.58-2.58.92-.99,1.61-1.08c.69-.08,1.46.12,2.33.62s1.64,1.19,2.32,2.06,1.22,1.85,1.6,2.93c.39,1.08.58,2.16.58,3.25s-.19,1.95-.58,2.58c-.39.63-.92.99-1.6,1.08-.68.09-1.46-.12-2.32-.62s-1.64-1.19-2.33-2.07Zm3.83-.5c.39-.32.59-.95.59-1.87s-.2-1.77-.59-2.55c-.39-.78-.89-1.34-1.5-1.69s-1.12-.37-1.51-.05c-.4.32-.59.94-.59,1.87s.2,1.77.59,2.55c.4.78.9,1.35,1.51,1.7s1.11.37,1.5.04Z"/><path class="cls-23" d="m331.55,486.42c.48,0,1.04.19,1.67.56v2.93c-.26-.18-.44-.3-.53-.35-.68-.39-1.22-.45-1.6-.16s-.58.94-.58,1.96v5.17l-2.38-1.38v-10.96l2.28,1.31v1.45c.29-.36.67-.54,1.15-.54Z"/><path class="cls-23" d="m344.44,489.47v15.12l-2.28-1.31v-1.26c-.59.61-1.45.59-2.57-.06-.77-.45-1.47-1.08-2.1-1.91-.63-.82-1.12-1.77-1.47-2.83-.36-1.06-.54-2.16-.54-3.28s.18-2.02.54-2.67c.36-.65.85-1.03,1.47-1.13.63-.1,1.33.07,2.1.52,1.05.61,1.87,1.52,2.46,2.75v-5.32l2.38,1.38Zm-2.93,10.15c.4-.32.6-.94.6-1.87s-.2-1.77-.6-2.55-.9-1.34-1.5-1.69c-.61-.35-1.12-.37-1.51-.05-.4.32-.6.94-.6,1.87s.2,1.77.6,2.55c.4.78.9,1.35,1.51,1.7.6.35,1.1.36,1.5.04Z"/><path class="cls-23" d="m348.9,506.98c-.65-.6-1.17-1.18-1.56-1.75l.79-1.82c.37.52.81,1.04,1.33,1.53.52.5,1.03.89,1.53,1.18,1.01.58,1.51.54,1.51-.12,0-.31-.14-.62-.41-.91-.28-.29-.7-.65-1.27-1.08-.67-.52-1.23-1-1.67-1.43-.44-.43-.82-.96-1.14-1.59-.32-.63-.48-1.36-.48-2.19,0-.69.15-1.22.45-1.58.3-.36.74-.53,1.31-.49.58.03,1.25.28,2.04.73.58.34,1.16.75,1.74,1.26.58.5,1.05,1.01,1.43,1.53l-.79,1.8c-.72-.96-1.51-1.69-2.37-2.18-.51-.29-.89-.42-1.15-.38-.25.04-.38.21-.38.51,0,.34.14.66.41.95.28.29.71.68,1.31,1.15.67.54,1.22,1.01,1.65,1.43.43.42.8.94,1.12,1.57.32.63.47,1.35.47,2.15,0,.68-.15,1.2-.46,1.55-.31.35-.75.51-1.34.46-.59-.05-1.28-.3-2.08-.77-.68-.39-1.35-.89-2-1.49Z"/><path class="cls-2" d="m712.29,575.45v-137.83l-295.11-.23v139.53h.09c.17,2.71,1.89,5.28,5.26,7.22l128.5,75.21c7.82,4.52,21.48,3.95,30.51-1.26l123.35-71.8c5.36-3.09,7.86-7.13,7.39-10.84Z"/><path class="cls-46" d="m564.28,662.89c-5.06,0-9.89-1.02-13.5-3.1l-128.51-75.21c-3.37-1.94-5.32-4.65-5.5-7.62l-.1-139.56c0-.13.05-.26.15-.35s.22-.15.35-.15h0l295.11.23c.28,0,.5.22.5.5v137.8c.5,4.09-2.28,8.21-7.64,11.31l-123.35,71.8c-5,2.89-11.42,4.37-17.52,4.37Zm-146.6-224.99l.09,139.03c.16,2.63,1.89,4.99,5.01,6.79l128.51,75.21c7.67,4.43,21.13,3.86,30.01-1.27l123.35-71.8c5.01-2.89,7.61-6.66,7.15-10.35,0-.02,0-.04,0-.06v-137.33l-294.11-.23Z"/><path class="cls-23" d="m551.03,520.2l-128.5-75.21c-7.82-4.52-6.84-12.4,2.19-17.62l123.35-71.8c9.03-5.21,22.69-5.78,30.51-1.26l128.5,75.21c7.82,4.52,6.84,12.4-2.19,17.62l-123.35,71.8c-9.03,5.21-22.69,5.78-30.51,1.26Z"/><path class="cls-46" d="m564.28,523.73c-5.06,0-9.89-1.02-13.5-3.1h0s-128.5-75.21-128.5-75.21c-3.56-2.06-5.53-4.93-5.53-8.08,0-3.78,2.81-7.57,7.72-10.4l123.35-71.8c9.15-5.29,23.07-5.85,31.02-1.27l128.51,75.21c3.56,2.06,5.53,4.93,5.53,8.08,0,3.78-2.81,7.57-7.72,10.4l-123.35,71.8c-5,2.89-11.42,4.37-17.52,4.37Zm-13-3.97c7.67,4.43,21.13,3.86,30.01-1.27l123.35-71.8c4.59-2.65,7.22-6.13,7.22-9.53,0-2.78-1.79-5.35-5.03-7.22l-128.51-75.21c-7.67-4.43-21.13-3.86-30.01,1.27l-123.35,71.8c-4.59,2.65-7.22,6.13-7.22,9.53,0,2.78,1.79,5.35,5.03,7.22l128.5,75.21Z"/><path class="cls-17" d="m712.29,462.2v-1.71c.07.57.08,1.13,0,1.71Z"/><path class="cls-28" d="m707.06,463.68v106.39c0,4.38-1.83,8.36-5.61,10.56l-120.66,70.28c-8.59,4.95-21.59,5.49-29.02,1.2l-122.99-71.95c-3.48-2.04-5.61-5.77-5.61-9.8v-108.63c0-3.46,3.76-5.61,6.74-3.86l121.86,71.29c7.43,4.3,20.43,3.76,29.02-1.2l118.56-69.07c3.65-2.12,7.71.58,7.71,4.8Z"/><path class="cls-10" d="m712.29,424.59v-29.68l-295.11-.23v31.38h.09c.17,2.71,1.89,5.28,5.26,7.22l128.5,75.21c7.82,4.52,21.48,3.95,30.51-1.26l123.35-71.8c5.36-3.09,7.86-7.13,7.39-10.84Z"/><path class="cls-46" d="m564.28,512.02c-5.06,0-9.89-1.02-13.5-3.1l-128.51-75.21c-3.37-1.94-5.32-4.65-5.5-7.62l-.1-31.41c0-.13.05-.26.15-.35.09-.09.22-.15.35-.15h0l295.11.23c.28,0,.5.22.5.5v29.65c.5,4.09-2.28,8.21-7.64,11.3l-123.35,71.8c-5,2.89-11.42,4.37-17.52,4.37Zm-146.6-116.85l.09,30.88c.16,2.63,1.89,4.99,5.01,6.79l128.51,75.21c7.67,4.43,21.13,3.86,30.01-1.27l123.35-71.8c5.01-2.89,7.61-6.66,7.15-10.35,0-.02,0-.04,0-.06v-29.18l-294.11-.23Z"/><path class="cls-23" d="m551.03,477.48l-128.5-75.21c-7.82-4.52-6.84-12.4,2.19-17.62l123.35-71.8c9.03-5.21,22.69-5.78,30.51-1.26l128.5,75.21c7.82,4.52,6.84,12.4-2.19,17.62l-123.35,71.8c-9.03,5.21-22.69,5.78-30.51,1.26Z"/><path class="cls-46" d="m564.28,481.02c-5.06,0-9.89-1.02-13.5-3.1h0s-128.5-75.21-128.5-75.21c-3.56-2.06-5.53-4.93-5.53-8.08,0-3.78,2.81-7.57,7.72-10.4l123.35-71.8c9.16-5.29,23.07-5.85,31.02-1.27l128.51,75.21c3.56,2.06,5.53,4.93,5.53,8.08,0,3.78-2.81,7.57-7.72,10.4l-123.35,71.8c-5,2.89-11.42,4.37-17.52,4.37Zm-13-3.97c7.67,4.43,21.13,3.86,30.01-1.27l123.35-71.8c4.59-2.65,7.22-6.12,7.22-9.53,0-2.78-1.79-5.35-5.03-7.22l-128.51-75.21c-7.67-4.43-21.13-3.86-30.01,1.27l-123.35,71.8c-4.59,2.65-7.22,6.12-7.22,9.53,0,2.78,1.79,5.35,5.03,7.22l128.5,75.21Z"/><path class="cls-46" d="m564.28,494.32c-5.06,0-9.89-1.02-13.5-3.1l-128.51-75.21c-3.5-2.02-5.46-4.84-5.53-7.94,0-.28.21-.5.49-.51.3,0,.5.21.51.49.05,2.73,1.84,5.25,5.03,7.09l128.51,75.21c7.67,4.43,21.13,3.86,30.01-1.27l123.35-71.8c4.59-2.65,7.22-6.13,7.22-9.54,0-.28.22-.5.5-.5s.5.22.5.5c0,3.78-2.81,7.57-7.72,10.4l-123.35,71.8c-5,2.89-11.42,4.37-17.52,4.37Z"/><path class="cls-23" d="m625.45,590.65c.61.46.91,1.49.91,3.11v6.28l-2.38,1.38v-5.79c0-.87-.14-1.44-.41-1.71-.27-.27-.66-.26-1.15.02-.56.32-1,.82-1.33,1.49-.33.67-.49,1.48-.49,2.43v5.5l-2.38,1.38v-5.79c0-1.72-.52-2.29-1.56-1.69-.55.32-.99.81-1.31,1.48-.33.67-.49,1.48-.49,2.43v5.5l-2.38,1.38v-10.96l2.28-1.31v1.26c.3-.64.68-1.21,1.12-1.71.44-.5.93-.9,1.46-1.21.58-.34,1.1-.48,1.57-.45s.85.26,1.13.68c.34-.76.76-1.45,1.28-2.06.51-.61,1.08-1.09,1.69-1.44,1.03-.59,1.85-.66,2.45-.2Z"/><path class="cls-23" d="m631.67,596.41c-.69-.08-1.23-.44-1.61-1.08-.39-.63-.58-1.49-.58-2.58s.19-2.17.58-3.25c.39-1.08.92-2.06,1.61-2.94s1.46-1.57,2.33-2.07c.87-.5,1.64-.71,2.32-.62s1.22.45,1.6,1.08c.39.63.58,1.49.58,2.58s-.19,2.17-.58,3.25c-.39,1.08-.92,2.06-1.6,2.93-.68.88-1.46,1.56-2.32,2.06-.87.5-1.64.71-2.33.62Zm3.83-4.92c.39-.78.59-1.63.59-2.55s-.2-1.55-.59-1.87c-.39-.32-.89-.31-1.5.04s-1.12.92-1.51,1.7c-.4.78-.59,1.63-.59,2.55s.2,1.55.59,1.87c.4.32.9.3,1.51-.05s1.11-.92,1.5-1.69Z"/><path class="cls-23" d="m649.97,571.29v15.12l-2.28,1.31v-1.26c-.59,1.29-1.45,2.26-2.57,2.91-.77.45-1.47.62-2.1.52-.63-.1-1.12-.48-1.47-1.13-.36-.65-.54-1.54-.54-2.67s.18-2.22.54-3.28c.36-1.06.85-2,1.47-2.83.63-.82,1.33-1.46,2.1-1.91,1.05-.61,1.87-.64,2.46-.1v-5.32l2.38-1.38Zm-2.93,13.54c.4-.78.6-1.63.6-2.55s-.2-1.55-.6-1.87c-.4-.32-.9-.31-1.5.04-.61.35-1.12.92-1.51,1.7-.4.78-.6,1.63-.6,2.55s.2,1.55.6,1.87c.4.32.9.3,1.51-.05.6-.35,1.1-.91,1.5-1.69Z"/><path class="cls-23" d="m661.67,575.07l-6.22,3.59c.11.62.38,1,.79,1.15.42.15.94.05,1.56-.31.43-.25.81-.55,1.14-.91.33-.36.64-.81.92-1.34l1.27,1.1c-.77,1.63-1.91,2.87-3.39,3.73-.93.54-1.75.77-2.46.7-.71-.07-1.26-.42-1.65-1.05-.39-.63-.58-1.49-.58-2.58s.19-2.15.57-3.23c.38-1.08.91-2.06,1.57-2.93.67-.87,1.41-1.54,2.24-2.02.8-.46,1.53-.65,2.18-.57.65.09,1.16.45,1.54,1.1.37.65.56,1.54.56,2.68,0,.04-.02.33-.05.88Zm-5.58-.3c-.37.62-.59,1.31-.67,2.06l4.05-2.34c-.08-.65-.31-1.07-.67-1.27-.37-.2-.82-.15-1.34.16-.54.31-.99.78-1.36,1.4Z"/><path class="cls-23" d="m664.8,562.73l2.38-1.38v15.12l-2.38,1.38v-15.12Z"/><path class="cls-23" d="m671.66,573.71c-.65.15-1.17.17-1.56.05l.79-2.74c.37.1.81.1,1.33,0,.52-.1,1.03-.3,1.53-.59,1.01-.58,1.51-1.21,1.51-1.87,0-.31-.14-.46-.41-.43-.27.02-.7.15-1.27.39-.67.25-1.23.42-1.67.49s-.82-.02-1.14-.28c-.32-.26-.48-.81-.48-1.64,0-.69.15-1.39.45-2.1.3-.71.74-1.38,1.31-2.01.58-.63,1.25-1.17,2.04-1.63.58-.34,1.16-.58,1.73-.75.58-.16,1.05-.2,1.43-.12l-.79,2.72c-.72-.13-1.51.06-2.37.55-.51.29-.89.61-1.15.95-.25.34-.38.66-.38.95,0,.34.14.5.41.47.27-.02.71-.15,1.31-.37.67-.24,1.22-.4,1.65-.47s.8.02,1.12.28.47.8.47,1.6c0,.68-.15,1.37-.46,2.08-.31.71-.75,1.37-1.34,2s-1.28,1.18-2.09,1.64c-.68.39-1.35.67-2,.82Z"/><path class="cls-23" d="m637.99,554.61l-14,8.08-2.67,10.15-7.15,4.13,13.44-47.95,6.89-3.98,13.48,32.41-7.32,4.23-2.67-7.07Zm-2.2-5.79l-4.78-12.63-4.78,18.15,9.56-5.52Z"/><path class="cls-23" d="m651.12,515.45l6.98-4.03v40.19l-6.98,4.03v-40.19Z"/><path class="cls-23" d="m466.63,571.2c.61,1.16.91,2.55.91,4.16v6.27l-2.38-1.38v-5.79c0-.87-.14-1.6-.41-2.18-.27-.58-.65-1.02-1.15-1.31-.56-.32-1-.34-1.33-.04s-.49.92-.49,1.87v5.5l-2.38-1.38v-5.79c0-1.72-.52-2.89-1.56-3.49-.55-.32-.99-.33-1.31-.03-.33.29-.49.92-.49,1.87v5.5l-2.38-1.38v-10.96l2.28,1.31v1.26c.31-.29.68-.42,1.12-.41.44.01.93.17,1.46.48.58.33,1.11.79,1.57,1.37.47.58.85,1.24,1.13,1.99.34-.38.76-.57,1.28-.59s1.08.15,1.69.51c1.03.59,1.85,1.47,2.45,2.63Z"/><path class="cls-23" d="m472.85,584.14c-.69-.88-1.23-1.86-1.61-2.94s-.58-2.16-.58-3.25.19-1.95.58-2.58c.39-.63.92-.99,1.61-1.08s1.46.12,2.33.62,1.64,1.19,2.32,2.06c.68.88,1.22,1.85,1.6,2.93.39,1.08.58,2.16.58,3.25s-.19,1.95-.58,2.58c-.39.63-.92.99-1.6,1.08s-1.46-.12-2.32-.62-1.64-1.19-2.33-2.07Zm3.83-.5c.39-.32.59-.95.59-1.87s-.2-1.77-.59-2.55-.89-1.34-1.5-1.69-1.12-.37-1.51-.05-.6.94-.6,1.87.2,1.78.6,2.55c.4.78.9,1.35,1.51,1.7s1.11.37,1.5.04Z"/><path class="cls-23" d="m491.15,580.15v15.12l-2.28-1.31v-1.26c-.59.61-1.45.59-2.57-.06-.77-.45-1.47-1.08-2.1-1.91-.63-.82-1.12-1.77-1.47-2.83s-.54-2.16-.54-3.28.18-2.02.54-2.67.85-1.02,1.47-1.12c.63-.1,1.33.07,2.1.52,1.05.61,1.87,1.52,2.46,2.74v-5.32l2.38,1.38Zm-2.93,10.15c.4-.32.6-.94.6-1.87s-.2-1.77-.6-2.55-.9-1.34-1.5-1.69c-.61-.35-1.12-.37-1.51-.05-.4.32-.6.94-.6,1.87s.2,1.78.6,2.55c.4.78.9,1.35,1.51,1.7.6.35,1.1.36,1.5.04Z"/><path class="cls-23" d="m502.85,597.44l-6.22-3.59c.11.74.38,1.43.79,2.07.42.64.94,1.13,1.56,1.49.43.25.81.38,1.14.4.33.02.64-.07.92-.27l1.27,2.57c-.77.73-1.91.67-3.39-.19-.93-.54-1.75-1.25-2.46-2.14-.71-.89-1.26-1.88-1.65-2.96-.39-1.08-.58-2.16-.58-3.25s.19-1.93.57-2.57c.38-.64.91-1.01,1.57-1.11.67-.1,1.41.09,2.24.57.8.46,1.53,1.12,2.18,1.95.65.84,1.16,1.8,1.54,2.87.37,1.08.56,2.19.56,3.33,0,.04-.01.32-.05.83Zm-5.58-6.74c-.37.2-.59.62-.67,1.28l4.05,2.34c-.08-.74-.31-1.42-.67-2.05s-.81-1.09-1.34-1.4c-.54-.31-.99-.37-1.36-.17Z"/><path class="cls-23" d="m505.98,588.71l2.38,1.38v15.12l-2.38-1.38v-15.12Z"/><path class="cls-23" d="m512.84,607.62c-.65-.6-1.17-1.18-1.56-1.75l.79-1.82c.37.52.81,1.03,1.33,1.53.52.5,1.03.89,1.53,1.18,1.01.58,1.51.54,1.51-.12,0-.31-.14-.62-.41-.91-.28-.29-.7-.65-1.27-1.08-.67-.52-1.23-1-1.67-1.43-.44-.43-.82-.96-1.14-1.59s-.48-1.36-.48-2.19c0-.69.15-1.22.45-1.58.3-.36.74-.53,1.31-.49.58.03,1.25.28,2.04.73.58.33,1.16.75,1.73,1.26s1.05,1.01,1.43,1.53l-.79,1.8c-.72-.96-1.51-1.69-2.37-2.18-.51-.29-.89-.42-1.15-.38-.25.04-.38.21-.38.51,0,.34.14.66.41.95.27.29.71.68,1.31,1.15.67.54,1.22,1.01,1.65,1.43.43.42.8.94,1.12,1.57.32.63.47,1.35.47,2.15,0,.68-.15,1.19-.46,1.55-.3.35-.75.51-1.34.46-.59-.05-1.28-.3-2.09-.77-.68-.39-1.35-.89-2-1.49Z"/><path class="cls-21" d="m510.32,560.37v6.58l-7.44,4.3c-5.08,2.94-12.76,3.25-17.16.71l-24.41-13.14c-1.95-1.12-2.92-2.62-2.97-4.19h-.02v-6.47h.02c.09,1.53,1.06,2.98,2.96,4.08l24.41,13.14c4.4,2.54,12.08,2.22,17.15-.71l7.44-4.3Z"/><path class="cls-46" d="m493.17,574.17c-2.89,0-5.64-.58-7.7-1.77l-24.4-13.13c-1.98-1.14-3.12-2.73-3.22-4.47-.02-.05-.03-.1-.03-.15v-6.47c0-.28.22-.5.5-.5s.51.21.52.47c.08,1.43,1.02,2.7,2.71,3.67l24.4,13.13c4.26,2.46,11.74,2.15,16.67-.7l7.45-4.3c.15-.09.35-.09.5,0,.15.09.25.25.25.43v6.58c0,.18-.09.34-.25.43l-7.44,4.3c-2.84,1.64-6.49,2.48-9.96,2.48Zm-34.35-19.66s.02.08.02.12c.04,1.44,1,2.78,2.72,3.77l24.4,13.13c4.27,2.47,11.74,2.15,16.67-.7l7.19-4.16v-5.42l-6.7,3.87c-5.2,3.01-13.12,3.33-17.65.71l-24.4-13.13c-.95-.55-1.71-1.2-2.25-1.92v3.74Z"/><path class="cls-23" d="m470.81,537.56l39.51,22.82-7.44,4.3c-5.07,2.93-12.76,3.25-17.15.71l-24.41-13.14c-1.9-1.1-2.87-2.54-2.96-4.08-.12-2.01,1.3-4.17,4.19-5.83l8.27-4.78Z"/><path class="cls-46" d="m493.17,567.59c-2.88,0-5.64-.58-7.7-1.77l-24.4-13.13c-1.98-1.14-3.12-2.74-3.22-4.49-.13-2.29,1.48-4.59,4.44-6.29l8.27-4.78c.15-.09.34-.09.5,0l39.51,22.81c.15.09.25.25.25.43s-.09.34-.25.43l-7.45,4.3c-2.84,1.64-6.49,2.48-9.95,2.48Zm-22.36-29.46l-8.02,4.64c-2.62,1.51-4.05,3.47-3.94,5.37.08,1.43,1.02,2.7,2.71,3.67l24.4,13.13c4.26,2.46,11.74,2.15,16.67-.7l6.7-3.87-38.51-22.24Z"/><path class="cls-3" d="m510.32,548.64v6.58l-7.44,4.3c-5.08,2.94-12.76,3.25-17.16.71l-24.41-13.14c-1.95-1.12-2.92-2.62-2.97-4.19h-.02v-6.47h.02c.09,1.53,1.06,2.98,2.96,4.08l24.41,13.14c4.4,2.54,12.08,2.22,17.15-.71l7.44-4.3Z"/><path class="cls-46" d="m493.17,562.43c-2.89,0-5.64-.58-7.7-1.77l-24.4-13.13c-1.98-1.14-3.12-2.73-3.22-4.47-.02-.05-.03-.1-.03-.15v-6.47c0-.28.22-.5.5-.5s.51.21.52.47c.08,1.43,1.02,2.7,2.71,3.67l24.4,13.13c4.26,2.46,11.74,2.15,16.67-.7l7.45-4.3c.15-.09.35-.09.5,0,.15.09.25.25.25.43v6.58c0,.18-.09.34-.25.43l-7.44,4.3c-2.84,1.64-6.49,2.48-9.96,2.48Zm-34.35-19.66s.02.08.02.12c.04,1.44,1,2.78,2.72,3.77l24.4,13.13c4.27,2.47,11.74,2.15,16.67-.7l7.19-4.16v-5.42l-6.7,3.87c-5.2,3.01-13.12,3.33-17.65.71l-24.4-13.13c-.95-.55-1.71-1.2-2.25-1.92v3.74Z"/><path class="cls-23" d="m470.81,525.82l39.51,22.82-7.44,4.3c-5.07,2.93-12.76,3.25-17.15.71l-24.41-13.14c-1.9-1.1-2.87-2.54-2.96-4.08-.12-2.01,1.3-4.17,4.19-5.83l8.27-4.78Z"/><path class="cls-46" d="m493.17,555.85c-2.88,0-5.64-.58-7.7-1.77l-24.4-13.13c-1.98-1.14-3.12-2.74-3.22-4.49-.13-2.29,1.48-4.59,4.44-6.29l8.27-4.78c.15-.09.34-.09.5,0l39.51,22.81c.15.09.25.25.25.43s-.09.34-.25.43l-7.45,4.3c-2.84,1.64-6.49,2.48-9.95,2.48Zm-22.36-29.46l-8.02,4.64c-2.62,1.51-4.05,3.47-3.94,5.37.08,1.43,1.02,2.7,2.71,3.67l24.4,13.13c4.26,2.46,11.74,2.15,16.67-.7l6.7-3.87-38.51-22.24Z"/><path class="cls-44" d="m510.32,536.9v6.58l-7.44,4.3c-5.08,2.94-12.76,3.25-17.16.71l-24.41-13.14c-1.95-1.12-2.92-2.62-2.97-4.19h-.02v-6.47h.02c.09,1.53,1.06,2.98,2.96,4.08l24.41,13.14c4.4,2.54,12.08,2.22,17.15-.71l7.44-4.3Z"/><path class="cls-46" d="m493.17,550.7c-2.89,0-5.64-.58-7.7-1.77l-24.4-13.13c-1.98-1.14-3.12-2.73-3.22-4.47-.02-.05-.03-.1-.03-.15v-6.47c0-.28.22-.5.5-.5s.51.21.52.47c.08,1.43,1.02,2.7,2.71,3.67l24.4,13.13c4.27,2.46,11.74,2.15,16.67-.7l7.45-4.3c.15-.09.35-.09.5,0,.15.09.25.25.25.43v6.58c0,.18-.09.34-.25.43l-7.44,4.3c-2.84,1.64-6.49,2.48-9.96,2.48Zm-34.35-19.66s.02.08.02.12c.04,1.44,1,2.78,2.72,3.77l24.4,13.13c4.27,2.47,11.74,2.15,16.67-.7l7.19-4.16v-5.42l-6.7,3.87c-5.21,3.01-13.12,3.33-17.65.71l-24.4-13.13c-.95-.55-1.71-1.2-2.25-1.92v3.74Z"/><path class="cls-23" d="m470.81,514.09l39.51,22.82-7.44,4.3c-5.07,2.93-12.76,3.25-17.15.71l-24.41-13.14c-1.9-1.1-2.87-2.54-2.96-4.08-.12-2.01,1.3-4.17,4.19-5.83l8.27-4.78Z"/><path class="cls-46" d="m493.17,544.12c-2.89,0-5.64-.58-7.7-1.77l-24.4-13.13c-1.98-1.14-3.12-2.74-3.22-4.49-.13-2.29,1.48-4.59,4.44-6.29l8.27-4.78c.15-.09.34-.09.5,0l39.51,22.81c.15.09.25.25.25.43s-.09.34-.25.43l-7.45,4.3c-2.84,1.64-6.49,2.48-9.95,2.48Zm-22.37-29.46l-8.02,4.64c-2.62,1.51-4.05,3.47-3.94,5.37.08,1.43,1.02,2.7,2.71,3.67l24.4,13.13c4.27,2.46,11.74,2.15,16.67-.7l6.7-3.87-38.51-22.24Z"/><path class="cls-4" d="m782.96,305.79v-15.67l-87.64-9.31v16.48h.04c.08,1.28.9,2.5,2.49,3.42l42.99,24.77c3.7,2.14,10.17,1.87,14.44-.6l24.17-13.96c2.54-1.46,3.72-3.37,3.5-5.13Z"/><path class="cls-46" d="m747.11,327.41c-2.44,0-4.78-.49-6.52-1.5l-42.99-24.77c-1.67-.97-2.65-2.32-2.74-3.82l-.04-16.51c0-.14.06-.28.17-.37.11-.1.25-.14.39-.13l87.64,9.31c.25.03.45.24.45.5v15.64c.24,2.04-1.12,4.08-3.75,5.6l-24.17,13.96c-2.4,1.39-5.49,2.1-8.42,2.1Zm-51.29-46.05l.04,15.92c.07,1.14.85,2.18,2.24,2.99l42.99,24.77c3.56,2.05,9.81,1.79,13.95-.6l24.17-13.96c2.24-1.29,3.46-3.03,3.25-4.64,0-.02,0-.04,0-.06v-15.22l-86.63-9.2Z"/><path class="cls-23" d="m740.84,309.17l-42.99-24.77c-3.7-2.14-3.24-5.87,1.04-8.34l24.17-13.96c4.28-2.47,10.74-2.74,14.44-.6l42.99,24.77c3.7,2.14,3.24,5.87-1.04,8.34l-24.17,13.96c-4.28,2.47-10.74,2.74-14.44.6Z"/><path class="cls-46" d="m747.11,311.11c-2.44,0-4.78-.49-6.52-1.5l-42.99-24.77c-1.77-1.02-2.75-2.46-2.75-4.06,0-1.88,1.38-3.76,3.79-5.15l24.17-13.96c4.41-2.54,11.11-2.81,14.95-.6l42.99,24.77c1.77,1.02,2.75,2.46,2.75,4.06,0,1.88-1.38,3.76-3.79,5.15l-24.17,13.96c-2.4,1.39-5.49,2.1-8.42,2.1Zm-15.88-50.55c-2.75,0-5.66.67-7.92,1.98l-24.17,13.96c-2.09,1.21-3.29,2.77-3.29,4.28,0,1.22.8,2.35,2.25,3.19l42.99,24.77h0c3.56,2.05,9.81,1.79,13.95-.6l24.17-13.96c2.09-1.21,3.29-2.77,3.29-4.28,0-1.22-.8-2.35-2.25-3.19l-42.99-24.77c-1.61-.93-3.76-1.38-6.02-1.38Z"/><path class="cls-27" d="m782.96,285.2v-5.51l-87.64-9.31v6.32h.04c.08,1.28.9,2.5,2.49,3.42l42.99,24.77c3.7,2.14,10.17,1.87,14.44-.6l24.17-13.96c2.54-1.46,3.72-3.37,3.5-5.13Z"/><path class="cls-46" d="m747.11,306.82c-2.44,0-4.78-.49-6.52-1.5l-42.99-24.77c-1.67-.97-2.65-2.32-2.74-3.82l-.04-6.34c0-.14.06-.28.16-.37.11-.1.25-.14.39-.13l87.64,9.31c.25.03.45.24.45.5v5.48c.24,2.04-1.12,4.08-3.75,5.6l-24.17,13.96c-2.4,1.39-5.49,2.1-8.42,2.1Zm-51.29-35.88l.04,5.76c.07,1.14.85,2.18,2.24,2.99l42.99,24.77c3.56,2.06,9.82,1.79,13.95-.6l24.17-13.96c2.24-1.29,3.46-3.03,3.25-4.64,0-.02,0-.04,0-.06v-5.06l-86.63-9.2Z"/><path class="cls-23" d="m740.84,298.74l-42.99-24.77c-3.7-2.14-3.24-5.87,1.04-8.34l24.17-13.96c4.28-2.47,10.74-2.74,14.44-.6l42.99,24.77c3.7,2.14,3.24,5.87-1.04,8.34l-24.17,13.96c-4.28,2.47-10.74,2.74-14.44.6Z"/><path class="cls-46" d="m747.11,300.68c-2.44,0-4.78-.49-6.52-1.5l-42.99-24.77c-1.77-1.02-2.75-2.46-2.75-4.06,0-1.88,1.38-3.76,3.79-5.15l24.17-13.96c4.41-2.54,11.11-2.81,14.95-.6l42.99,24.77c1.77,1.02,2.75,2.46,2.75,4.06,0,1.88-1.38,3.76-3.79,5.15l-24.17,13.96c-2.4,1.39-5.49,2.1-8.42,2.1Zm-15.88-50.55c-2.75,0-5.66.67-7.92,1.98l-24.17,13.96c-2.09,1.21-3.29,2.77-3.29,4.28,0,1.22.8,2.35,2.25,3.19l42.99,24.77h0c3.56,2.05,9.81,1.79,13.95-.6l24.17-13.96c2.09-1.21,3.29-2.77,3.29-4.28,0-1.22-.8-2.35-2.25-3.19l-42.99-24.77c-1.61-.93-3.76-1.38-6.02-1.38Z"/><path class="cls-7" d="m743.87,295.58l-40.52-23.35c-2.24-1.29-1.96-3.55.63-5.05l21.77-12.57c2.59-1.49,6.5-1.66,8.75-.36l40.52,23.35c2.24,1.29,1.96,3.55-.63,5.05l-21.77,12.57c-2.59,1.49-6.5,1.66-8.75.36Z"/><path class="cls-22" d="m346.79,303.35v-15.67s87.64-9.31,87.64-9.31v16.48h-.04c-.08,1.28-.9,2.5-2.49,3.42l-42.99,24.77c-3.7,2.14-10.17,1.87-14.44-.6l-24.17-13.96c-2.54-1.46-3.72-3.37-3.5-5.13Z"/><path class="cls-46" d="m382.64,324.97c-2.93,0-6.02-.71-8.42-2.1l-24.17-13.96c-2.62-1.51-3.99-3.55-3.75-5.6v-15.64c0-.26.19-.47.45-.5l87.64-9.31c.14-.02.28.03.39.13.11.09.17.23.17.37l-.04,16.48c-.09,1.53-1.06,2.88-2.74,3.85l-42.99,24.77c-1.74,1.01-4.08,1.5-6.52,1.5Zm-35.35-36.84v15.22s0,.04,0,.06c-.2,1.61,1.01,3.34,3.25,4.64l24.17,13.96c4.13,2.38,10.38,2.65,13.95.6l42.99-24.77c1.39-.8,2.17-1.85,2.24-3.02l.04-15.89-86.64,9.2Zm-.5,15.22h0,0Z"/><path class="cls-23" d="m388.91,306.74l42.99-24.77c3.7-2.14,3.24-5.87-1.04-8.34l-24.17-13.96c-4.28-2.47-10.74-2.74-14.44-.6l-42.99,24.77c-3.7,2.14-3.24,5.87,1.04,8.34l24.17,13.96c4.28,2.47,10.74,2.74,14.44.6Z"/><path class="cls-46" d="m382.64,308.67c-2.93,0-6.02-.71-8.42-2.1l-24.17-13.96c-2.41-1.39-3.79-3.27-3.79-5.15,0-1.59.98-3.03,2.75-4.06l42.99-24.77c3.83-2.21,10.54-1.95,14.94.6l24.17,13.96c2.41,1.39,3.79,3.27,3.79,5.15,0,1.59-.98,3.03-2.75,4.06l-42.99,24.77c-1.74,1.01-4.08,1.5-6.52,1.5Zm15.88-50.55c-2.26,0-4.42.45-6.02,1.38l-42.99,24.77c-1.45.84-2.25,1.97-2.25,3.19,0,1.52,1.2,3.08,3.29,4.28l24.17,13.96c4.13,2.39,10.38,2.65,13.95.6h0l42.99-24.77c1.45-.84,2.25-1.97,2.25-3.19,0-1.52-1.2-3.08-3.29-4.28l-24.17-13.96c-2.27-1.31-5.17-1.98-7.92-1.98Z"/><path class="cls-18" d="m346.79,282.76v-5.51s87.64-9.31,87.64-9.31v6.32h-.04c-.08,1.28-.9,2.5-2.49,3.42l-42.99,24.77c-3.7,2.14-10.17,1.87-14.44-.6l-24.17-13.96c-2.54-1.46-3.72-3.37-3.5-5.13Z"/><path class="cls-46" d="m382.64,304.38c-2.93,0-6.02-.71-8.42-2.1l-24.17-13.96c-2.62-1.52-3.99-3.55-3.75-5.6v-5.48c0-.26.19-.47.45-.5l87.64-9.31c.14-.02.28.03.39.13.11.1.17.23.16.37l-.04,6.32c-.09,1.52-1.06,2.88-2.74,3.85l-42.99,24.77c-1.74,1.01-4.08,1.5-6.52,1.5Zm-35.35-26.68v5.06s0,.04,0,.06c-.2,1.61,1.01,3.34,3.25,4.64l24.17,13.96c4.13,2.38,10.38,2.65,13.95.6l42.99-24.77c1.39-.8,2.17-1.85,2.24-3.02l.04-5.73-86.63,9.2Zm-.5,5.06h0,0Z"/><path class="cls-23" d="m388.91,296.31l42.99-24.77c3.7-2.14,3.24-5.87-1.04-8.34l-24.17-13.96c-4.28-2.47-10.74-2.74-14.44-.6l-42.99,24.77c-3.7,2.14-3.24,5.87,1.04,8.34l24.17,13.96c4.28,2.47,10.74,2.74,14.44.6Z"/><path class="cls-46" d="m382.64,298.24c-2.93,0-6.02-.71-8.42-2.1l-24.17-13.96c-2.41-1.39-3.79-3.27-3.79-5.15,0-1.59.98-3.03,2.75-4.06l42.99-24.77c3.83-2.21,10.54-1.95,14.94.6l24.17,13.96c2.41,1.39,3.79,3.27,3.79,5.15,0,1.59-.98,3.03-2.75,4.06l-42.99,24.77c-1.74,1.01-4.08,1.5-6.52,1.5Zm15.88-50.55c-2.26,0-4.42.45-6.02,1.38l-42.99,24.77c-1.45.84-2.25,1.97-2.25,3.19,0,1.52,1.2,3.08,3.29,4.28l24.17,13.96c4.13,2.38,10.38,2.65,13.95.6h0l42.99-24.77c1.45-.84,2.25-1.97,2.25-3.19,0-1.52-1.2-3.08-3.29-4.28l-24.17-13.96c-2.27-1.31-5.17-1.98-7.92-1.98Z"/><path class="cls-42" d="m385.89,293.14l40.52-23.35c2.24-1.29,1.96-3.55-.63-5.05l-21.77-12.57c-2.59-1.49-6.5-1.66-8.75-.36l-40.52,23.35c-2.24,1.29-1.96,3.55.63,5.05l21.77,12.57c2.59,1.49,6.5,1.66,8.75.36Z"/><path class="cls-19" d="m739.76,328.84v-130.54l-348.75.11v132.41h.1c.18,2.97,2.08,5.79,5.77,7.92l152.75,89.5c8.58,4.95,23.57,4.33,33.48-1.39l148.54-86.12c5.88-3.39,8.62-7.82,8.11-11.89Z"/><path class="cls-46" d="m564.17,432.07c-5.54,0-10.84-1.12-14.79-3.4l-152.75-89.51c-3.68-2.12-5.81-5.08-6.01-8.32l-.1-132.44c0-.13.05-.26.15-.35s.22-.15.35-.15l348.75-.11c.13,0,.26.05.35.15s.15.22.15.35v130.51c.55,4.47-2.5,8.97-8.36,12.36l-148.54,86.12c-5.48,3.16-12.52,4.79-19.19,4.79Zm-172.66-233.16l.1,131.9c.18,2.91,2.09,5.51,5.52,7.49l152.75,89.51c8.42,4.86,23.22,4.24,32.97-1.39l148.54-86.12c5.51-3.18,8.38-7.33,7.86-11.4,0-.02,0-.04,0-.06v-130.04l-347.75.11Z"/><path class="cls-23" d="m549.63,296.25l-152.75-89.5c-8.58-4.95-7.5-13.61,2.4-19.33l148.54-86.12c9.91-5.72,24.9-6.34,33.48-1.39l152.75,89.5c8.58,4.95,7.5,13.61-2.4,19.33l-148.54,86.12c-9.91,5.72-24.9,6.34-33.48,1.39Z"/><path class="cls-46" d="m564.17,300.08c-5.54,0-10.84-1.12-14.79-3.4h0s-152.75-89.51-152.75-89.51c-3.89-2.25-6.04-5.38-6.04-8.83,0-4.12,3.08-8.27,8.45-11.37l148.54-86.12c10.03-5.79,25.27-6.41,33.98-1.39l152.75,89.51c3.89,2.25,6.04,5.38,6.04,8.83,0,4.12-3.08,8.27-8.45,11.37l-148.54,86.12c-5.48,3.16-12.52,4.79-19.19,4.79Zm-14.28-4.26c8.43,4.86,23.22,4.24,32.97-1.39l148.54-86.12c5.05-2.92,7.95-6.74,7.95-10.5,0-3.07-1.97-5.9-5.54-7.96l-152.75-89.51c-8.43-4.87-23.22-4.24-32.97,1.39l-148.54,86.12c-5.05,2.92-7.95,6.74-7.95,10.5,0,3.07,1.97,5.9,5.54,7.96l152.75,89.51Z"/><path class="cls-43" d="m739.77,204.6v-1.87c.07.62.08,1.24,0,1.87Z"/><path class="cls-36" d="m722.57,238.98v82.39c0,4.8-2.56,9.24-6.71,11.65l-133.59,77.73c-9.42,5.43-23.68,6.02-31.84,1.31l-135.04-79.3c-3.81-2.24-6.16-6.33-6.16-10.75v-84.85c0-3.8,4.12-6.16,7.4-4.24l133.8,78.58c8.16,4.71,22.42,4.12,31.84-1.32l131.28-76.39c4-2.32,9.02.57,9.02,5.19Z"/><path class="cls-51" d="m739.76,186.65v-32.56l-348.75.11v34.43h.1c.18,2.97,2.08,5.79,5.77,7.92l152.75,89.5c8.58,4.95,23.57,4.33,33.48-1.39l148.54-86.12c5.88-3.39,8.62-7.82,8.11-11.89Z"/><path class="cls-46" d="m564.17,289.89c-5.54,0-10.84-1.12-14.79-3.4l-152.75-89.51c-3.68-2.12-5.81-5.08-6.01-8.32l-.1-34.46c0-.13.05-.26.15-.35s.22-.15.35-.15l348.75-.11c.13,0,.26.05.35.15s.15.22.15.35v32.53c.55,4.47-2.5,8.97-8.36,12.36l-148.54,86.12c-5.48,3.16-12.52,4.79-19.19,4.79Zm-172.65-135.18l.1,33.93c.18,2.91,2.09,5.51,5.52,7.49l152.75,89.51c8.42,4.86,23.22,4.24,32.97-1.39l148.54-86.12c5.51-3.18,8.38-7.33,7.86-11.4,0-.02,0-.04,0-.06v-32.06l-347.75.11Z"/><path class="cls-23" d="m549.63,252.04l-152.75-89.5c-8.58-4.95-7.5-13.61,2.4-19.33l148.54-86.12c9.91-5.72,24.9-6.34,33.48-1.39l152.75,89.5c8.58,4.95,7.5,13.61-2.4,19.33l-148.54,86.12c-9.91,5.72-24.9,6.34-33.48,1.39Z"/><path class="cls-46" d="m564.17,255.87c-5.54,0-10.84-1.12-14.79-3.4h0s-152.75-89.51-152.75-89.51c-3.89-2.25-6.04-5.38-6.04-8.83,0-4.12,3.08-8.27,8.45-11.37l148.54-86.12c10.03-5.79,25.27-6.41,33.98-1.39l152.75,89.51c3.89,2.25,6.04,5.38,6.04,8.83,0,4.12-3.08,8.27-8.45,11.37l-148.54,86.12c-5.48,3.16-12.52,4.79-19.19,4.79Zm-14.29-4.26c8.43,4.87,23.22,4.24,32.98-1.39l148.54-86.12c5.05-2.92,7.95-6.74,7.95-10.5,0-3.07-1.97-5.9-5.54-7.96l-152.75-89.51c-8.43-4.87-23.22-4.24-32.97,1.39l-148.54,86.12c-5.05,2.92-7.95,6.74-7.95,10.5,0,3.07,1.97,5.9,5.54,7.96l152.75,89.5Z"/><path class="cls-46" d="m564.17,270.47c-5.54,0-10.84-1.12-14.79-3.4l-152.75-89.51c-3.83-2.21-5.97-5.29-6.04-8.66,0-.28.21-.5.49-.51.3-.02.5.21.51.49.06,3.01,2.03,5.79,5.54,7.82l152.75,89.51c8.43,4.86,23.22,4.24,32.97-1.39l148.54-86.12c5.05-2.92,7.95-6.75,7.95-10.5,0-.28.22-.5.5-.5s.5.22.5.5c0,4.12-3.08,8.27-8.45,11.37l-148.54,86.12c-5.48,3.16-12.52,4.79-19.19,4.79Z"/><path class="cls-49" d="m722.87,161.07l-3.94,2.29-3.12,1.81-138.69,80.43c-6.11,3.53-15.36,3.91-20.66.85l-141.34-82.87-3.11-1.82-5.43-3.18c-5.3-3.06-4.63-8.39,1.48-11.93l145.74-84.51c6.11-3.53,15.36-3.91,20.66-.85l149.87,87.86c5.3,3.07,4.63,8.4-1.48,11.93Z"/><path class="cls-23" d="m718.93,163.36l-3.12,1.81-138.69,80.43c-6.11,3.53-15.36,3.91-20.66.85l-141.34-82.87-3.11-1.82,141.8-82.22c6.11-3.53,15.36-3.91,20.66-.85l144.46,84.69Z"/><path class="cls-46" d="m565.44,249c-3.46,0-6.76-.7-9.23-2.12l-144.45-84.7c-.15-.09-.25-.25-.25-.43s.1-.34.25-.43l141.8-82.22c6.24-3.6,15.73-3.98,21.16-.85l144.46,84.69c.15.09.25.25.25.43s-.1.34-.25.43l-3.12,1.81-138.69,80.43c-3.41,1.97-7.78,2.97-11.93,2.97Zm-152.43-87.25l143.71,84.26c5.15,2.97,14.19,2.59,20.16-.85l141.06-81.8-143.72-84.25c-5.15-2.97-14.19-2.59-20.16.85l-141.06,81.79Z"/><path class="cls-46" d="m565.44,249c-3.46,0-6.76-.7-9.23-2.12l-149.88-87.88c-2.46-1.42-3.82-3.41-3.82-5.61,0-2.61,1.93-5.23,5.31-7.19l145.74-84.51c6.24-3.6,15.73-3.99,21.16-.85l149.88,87.87c2.46,1.43,3.82,3.42,3.82,5.62,0,2.61-1.94,5.23-5.31,7.17l-145.74,84.52c-3.41,1.97-7.78,2.97-11.93,2.97Zm.06-189.29c-3.97,0-8.16.97-11.43,2.85l-145.74,84.51c-3.06,1.77-4.81,4.07-4.81,6.32,0,1.82,1.18,3.5,3.33,4.74l8.54,5,141.33,82.87c5.15,2.97,14.19,2.59,20.16-.85l145.74-84.52s0,0,0,0c3.05-1.76,4.81-4.06,4.81-6.31,0-1.82-1.18-3.51-3.33-4.75l-149.88-87.87c-2.33-1.34-5.45-2-8.72-2Z"/><path class="cls-46" d="m693.71,178.49c-.16,0-.31-.07-.41-.21-.43-.61-1.06-1.16-1.89-1.63l-119.05-69.8c-4.06-2.34-11.2-2.04-15.91.68l-115.77,67.14c-1.17.67-2.14,1.48-2.8,2.34-.17.22-.48.26-.7.09s-.26-.48-.09-.7c.75-.98,1.79-1.85,3.09-2.6l115.76-67.14c4.99-2.88,12.57-3.18,16.91-.68l119.05,69.8c.95.55,1.69,1.2,2.2,1.92.16.23.1.54-.12.7-.09.06-.19.09-.29.09Z"/><path class="cls-47" d="m604.65,214.19v-15.67l-69.72.93v16.48h.04c.08,1.28.9,2.5,2.49,3.42l25.07,14.54c3.7,2.14,10.17,1.87,14.44-.6l24.17-13.96c2.54-1.46,3.72-3.37,3.5-5.13Z"/><path class="cls-46" d="m568.81,235.81c-2.44,0-4.78-.49-6.52-1.5l-25.07-14.54c-1.67-.97-2.65-2.32-2.74-3.82l-.05-16.51c0-.27.22-.5.49-.5l69.72-.93c.14.02.26.05.36.14.09.09.15.22.15.36v15.64c.24,2.04-1.12,4.08-3.75,5.6l-24.17,13.96c-2.4,1.39-5.49,2.1-8.42,2.1Zm-33.38-35.87l.04,15.98c.07,1.14.84,2.18,2.24,2.99l25.07,14.54c3.56,2.05,9.81,1.79,13.94-.6l24.17-13.96c2.24-1.29,3.46-3.03,3.25-4.64,0-.02,0-.04,0-.06v-15.17l-68.72.91Z"/><path class="cls-23" d="m562.53,217.57l-25.07-14.54c-3.7-2.14-3.24-5.87,1.04-8.34l24.17-13.96c4.28-2.47,10.74-2.74,14.44-.6l25.07,14.54c3.7,2.14,3.24,5.87-1.04,8.34l-24.17,13.96c-4.28,2.47-10.74,2.74-14.44.6Z"/><path class="cls-46" d="m568.81,219.51c-2.44,0-4.78-.49-6.52-1.5,0,0,0,0,0,0l-25.07-14.54c-1.77-1.02-2.75-2.46-2.75-4.05,0-1.88,1.38-3.76,3.79-5.15l24.17-13.96c4.41-2.54,11.11-2.81,14.94-.6l25.07,14.54c1.77,1.02,2.75,2.46,2.75,4.05,0,1.88-1.38,3.76-3.79,5.15l-24.17,13.96c-2.4,1.39-5.49,2.1-8.42,2.1Zm-6.02-2.37c3.56,2.05,9.81,1.79,13.95-.6l24.17-13.96c2.09-1.21,3.29-2.77,3.29-4.28,0-1.22-.8-2.35-2.25-3.19l-25.07-14.54c-3.56-2.05-9.81-1.79-13.94.6l-24.17,13.96c-2.09,1.21-3.29,2.77-3.29,4.28,0,1.22.8,2.35,2.25,3.19l25.07,14.54Z"/><path class="cls-13" d="m604.65,193.6v-5.51l-69.72.93v6.32h.04c.08,1.28.9,2.5,2.49,3.42l25.07,14.54c3.7,2.14,10.17,1.87,14.44-.6l24.17-13.96c2.54-1.46,3.72-3.37,3.5-5.13Z"/><path class="cls-46" d="m568.81,215.22c-2.44,0-4.78-.49-6.52-1.5l-25.07-14.54c-1.67-.97-2.65-2.32-2.74-3.82l-.05-6.34c0-.27.22-.5.49-.5l69.72-.93c.14.01.26.05.36.14.09.09.15.22.15.36v5.48c.24,2.04-1.12,4.08-3.75,5.6l-24.17,13.96c-2.4,1.39-5.49,2.1-8.42,2.1Zm-33.37-25.71l.04,5.82c.07,1.14.84,2.18,2.24,2.99l25.07,14.54c3.56,2.05,9.81,1.79,13.94-.6l24.17-13.96c2.24-1.29,3.46-3.03,3.25-4.64,0-.02,0-.04,0-.06v-5l-68.72.91Z"/><path class="cls-23" d="m562.53,207.14l-25.07-14.54c-3.7-2.14-3.24-5.87,1.04-8.34l24.17-13.96c4.28-2.47,10.74-2.74,14.44-.6l25.07,14.54c3.7,2.14,3.24,5.87-1.04,8.34l-24.17,13.96c-4.28,2.47-10.74,2.74-14.44.6Z"/><path class="cls-46" d="m568.81,209.08c-2.44,0-4.78-.49-6.52-1.5,0,0,0,0,0,0l-25.07-14.54c-1.77-1.02-2.75-2.46-2.75-4.05,0-1.88,1.38-3.76,3.79-5.15l24.17-13.96c4.41-2.54,11.11-2.81,14.94-.6l25.07,14.54c1.77,1.02,2.75,2.46,2.75,4.05,0,1.88-1.38,3.76-3.79,5.15l-24.17,13.96c-2.4,1.39-5.49,2.1-8.42,2.1Zm-6.02-2.37c3.56,2.05,9.81,1.79,13.95-.6l24.17-13.96c2.09-1.21,3.29-2.77,3.29-4.28,0-1.22-.8-2.35-2.25-3.19l-25.07-14.54c-3.56-2.05-9.81-1.79-13.94.6l-24.17,13.96c-2.09,1.21-3.29,2.77-3.29,4.29,0,1.22.8,2.35,2.25,3.19l25.07,14.54Z"/><path class="cls-26" d="m565.56,203.97l-22.6-13.11c-2.24-1.29-1.96-3.55.63-5.05l21.77-12.57c2.59-1.49,6.5-1.66,8.75-.36l22.6,13.11c2.24,1.29,1.96,3.55-.63,5.05l-21.77,12.57c-2.59,1.49-6.5,1.66-8.75.36Z"/><path class="cls-5" d="m538.7,176.02v-15.67l-69.72.93v16.48h.04c.08,1.28.9,2.5,2.49,3.42l25.07,14.54c3.7,2.14,10.17,1.87,14.44-.6l24.17-13.96c2.54-1.46,3.72-3.37,3.5-5.13Z"/><path class="cls-46" d="m502.85,197.64c-2.44,0-4.78-.49-6.52-1.5l-25.07-14.54c-1.67-.97-2.64-2.32-2.74-3.82l-.05-16.51c0-.27.22-.5.49-.5l69.72-.93c.14,0,.26.05.36.14.09.09.15.22.15.36v15.64c.24,2.04-1.12,4.08-3.75,5.6l-24.17,13.96c-2.4,1.39-5.49,2.1-8.42,2.1Zm-33.38-35.87l.04,15.98c.07,1.14.85,2.18,2.24,2.99l25.07,14.54c3.56,2.05,9.81,1.79,13.94-.6l24.17-13.96c2.24-1.29,3.46-3.03,3.25-4.64,0-.02,0-.04,0-.06v-15.17l-68.72.91Z"/><path class="cls-23" d="m496.58,179.4l-25.07-14.54c-3.7-2.14-3.24-5.87,1.04-8.34l24.17-13.96c4.28-2.47,10.74-2.74,14.44-.6l25.07,14.54c3.7,2.14,3.24,5.87-1.04,8.34l-24.17,13.96c-4.28,2.47-10.74,2.74-14.44.6Z"/><path class="cls-46" d="m502.85,181.34c-2.44,0-4.78-.49-6.52-1.5,0,0,0,0,0,0l-25.07-14.54c-1.77-1.02-2.75-2.46-2.75-4.05,0-1.88,1.38-3.76,3.79-5.15l24.17-13.96c4.41-2.54,11.11-2.81,14.95-.6l25.07,14.54c1.77,1.02,2.75,2.46,2.75,4.05,0,1.88-1.38,3.76-3.79,5.15l-24.17,13.96c-2.4,1.39-5.49,2.1-8.42,2.1Zm-6.02-2.37c3.56,2.05,9.81,1.79,13.94-.6l24.17-13.96c2.09-1.21,3.29-2.77,3.29-4.28,0-1.22-.8-2.35-2.25-3.19l-25.07-14.54c-3.56-2.05-9.81-1.79-13.94.6l-24.17,13.96c-2.09,1.21-3.29,2.77-3.29,4.28,0,1.22.8,2.35,2.25,3.19l25.07,14.54Z"/><path class="cls-14" d="m538.7,155.43v-5.51l-69.72.93v6.32h.04c.08,1.28.9,2.5,2.49,3.42l25.07,14.54c3.7,2.14,10.17,1.87,14.44-.6l24.17-13.96c2.54-1.46,3.72-3.37,3.5-5.13Z"/><path class="cls-46" d="m502.85,177.05c-2.44,0-4.78-.49-6.52-1.5l-25.07-14.54c-1.67-.97-2.64-2.32-2.74-3.82l-.05-6.34c0-.27.22-.5.49-.5l69.72-.93c.14.02.26.05.36.14.09.09.15.22.15.36v5.48c.24,2.04-1.12,4.08-3.75,5.6l-24.17,13.96c-2.4,1.39-5.49,2.1-8.42,2.1Zm-33.37-25.71l.04,5.82c.07,1.14.85,2.18,2.24,2.99l25.07,14.54c3.56,2.05,9.81,1.78,13.94-.6l24.17-13.96c2.24-1.29,3.46-3.03,3.25-4.64,0-.02,0-.04,0-.06v-5l-68.72.91Z"/><path class="cls-23" d="m496.58,168.97l-25.07-14.54c-3.7-2.14-3.24-5.87,1.04-8.34l24.17-13.96c4.28-2.47,10.74-2.74,14.44-.6l25.07,14.54c3.7,2.14,3.24,5.87-1.04,8.34l-24.17,13.96c-4.28,2.47-10.74,2.74-14.44.6Z"/><path class="cls-46" d="m502.85,170.91c-2.44,0-4.78-.49-6.52-1.5,0,0,0,0,0,0l-25.07-14.54c-1.77-1.02-2.75-2.46-2.75-4.05,0-1.88,1.38-3.76,3.79-5.15l24.17-13.96c4.41-2.54,11.11-2.81,14.95-.6l25.07,14.54c1.77,1.02,2.75,2.46,2.75,4.05,0,1.88-1.38,3.76-3.79,5.15l-24.17,13.96c-2.4,1.39-5.49,2.1-8.42,2.1Zm-6.02-2.37c3.56,2.05,9.81,1.79,13.94-.6l24.17-13.96c2.09-1.21,3.29-2.77,3.29-4.28,0-1.22-.8-2.35-2.25-3.19l-25.07-14.54c-3.56-2.05-9.81-1.79-13.94.6l-24.17,13.96c-2.09,1.21-3.29,2.77-3.29,4.28,0,1.22.8,2.35,2.25,3.19l25.07,14.54Z"/><path class="cls-24" d="m499.6,165.81l-22.6-13.11c-2.24-1.29-1.96-3.55.63-5.05l21.77-12.57c2.59-1.49,6.5-1.66,8.75-.36l22.6,13.11c2.24,1.29,1.96,3.55-.63,5.05l-21.77,12.57c-2.59,1.49-6.5,1.66-8.75.36Z"/><path class="cls-37" d="m671.57,177.47v-15.67l-69.72.93v16.48h.04c.08,1.28.9,2.5,2.49,3.42l25.07,14.54c3.7,2.14,10.17,1.87,14.44-.6l24.17-13.96c2.54-1.46,3.72-3.37,3.5-5.13Z"/><path class="cls-46" d="m635.72,199.09c-2.44,0-4.78-.49-6.52-1.5l-25.07-14.54c-1.67-.97-2.64-2.32-2.74-3.82l-.04-16.51c0-.27.22-.5.49-.5l69.72-.93c.12.01.26.05.36.14.09.09.15.22.15.36v15.64c.24,2.04-1.12,4.08-3.75,5.6l-24.17,13.96c-2.4,1.39-5.49,2.1-8.42,2.1Zm-33.38-35.87l.04,15.98c.07,1.14.85,2.18,2.24,2.99l25.07,14.54c3.56,2.05,9.81,1.79,13.94-.6l24.17-13.96c2.24-1.29,3.46-3.03,3.25-4.64,0-.02,0-.04,0-.06v-15.17l-68.72.91Z"/><path class="cls-23" d="m629.45,180.85l-25.07-14.54c-3.7-2.14-3.24-5.87,1.04-8.34l24.17-13.96c4.28-2.47,10.74-2.74,14.44-.6l25.07,14.54c3.7,2.14,3.24,5.87-1.04,8.34l-24.17,13.96c-4.28,2.47-10.74,2.74-14.44.6Z"/><path class="cls-46" d="m635.72,182.79c-2.44,0-4.78-.49-6.52-1.5,0,0,0,0,0,0l-25.07-14.54c-1.77-1.02-2.75-2.46-2.75-4.05,0-1.88,1.38-3.76,3.79-5.15l24.17-13.96c4.41-2.54,11.11-2.81,14.95-.6l25.07,14.54c1.77,1.02,2.75,2.46,2.75,4.05,0,1.88-1.38,3.76-3.79,5.15l-24.17,13.96c-2.4,1.39-5.49,2.1-8.42,2.1Zm-6.02-2.37c3.56,2.05,9.81,1.79,13.94-.6l24.17-13.96c2.09-1.21,3.29-2.77,3.29-4.28,0-1.22-.8-2.35-2.25-3.19l-25.07-14.54c-3.56-2.05-9.81-1.79-13.94.6l-24.17,13.96c-2.09,1.21-3.29,2.77-3.29,4.29,0,1.22.8,2.35,2.25,3.19l25.07,14.54Z"/><path class="cls-54" d="m671.57,156.88v-5.51l-69.72.93v6.32h.04c.08,1.28.9,2.5,2.49,3.42l25.07,14.54c3.7,2.14,10.17,1.87,14.44-.6l24.17-13.96c2.54-1.46,3.72-3.37,3.5-5.13Z"/><path class="cls-46" d="m635.72,178.5c-2.44,0-4.78-.49-6.52-1.5l-25.07-14.54c-1.67-.96-2.64-2.32-2.74-3.82l-.04-6.34c0-.27.22-.5.49-.5l69.72-.93c.12,0,.26.05.36.14.09.09.15.22.15.36v5.48c.24,2.04-1.12,4.08-3.75,5.6l-24.17,13.96c-2.4,1.39-5.49,2.1-8.42,2.1Zm-33.37-25.71l.04,5.82c.07,1.14.85,2.18,2.24,2.99l25.07,14.54c3.56,2.05,9.81,1.79,13.94-.6l24.17-13.96c2.24-1.29,3.46-3.03,3.25-4.64,0-.02,0-.04,0-.06v-5l-68.72.91Z"/><path class="cls-23" d="m629.45,170.42l-25.07-14.54c-3.7-2.14-3.24-5.87,1.04-8.34l24.17-13.96c4.28-2.47,10.74-2.74,14.44-.6l25.07,14.54c3.7,2.14,3.24,5.87-1.04,8.34l-24.17,13.96c-4.28,2.47-10.74,2.74-14.44.6Z"/><path class="cls-46" d="m635.72,172.36c-2.44,0-4.78-.49-6.52-1.5,0,0,0,0,0,0l-25.07-14.54c-1.77-1.02-2.75-2.46-2.75-4.05,0-1.88,1.38-3.76,3.79-5.15l24.17-13.96c4.41-2.54,11.11-2.81,14.95-.6l25.07,14.54c1.77,1.02,2.75,2.46,2.75,4.05,0,1.88-1.38,3.76-3.79,5.15l-24.17,13.96c-2.4,1.39-5.49,2.1-8.42,2.1Zm-6.02-2.37c3.56,2.05,9.81,1.79,13.94-.6l24.17-13.96c2.09-1.21,3.29-2.77,3.29-4.28,0-1.22-.8-2.35-2.25-3.19l-25.07-14.54c-3.56-2.05-9.81-1.79-13.94.6l-24.17,13.96c-2.09,1.21-3.29,2.77-3.29,4.29,0,1.22.8,2.35,2.25,3.19l25.07,14.54Z"/><path class="cls-1" d="m632.47,167.25l-22.6-13.11c-2.24-1.29-1.96-3.55.63-5.05l21.77-12.57c2.59-1.49,6.5-1.66,8.75-.36l22.6,13.11c2.24,1.29,1.96,3.55-.63,5.05l-21.77,12.57c-2.59,1.49-6.5,1.66-8.75.36Z"/><path class="cls-33" d="m605.62,139.3v-15.67l-69.72.93v16.48h.04c.08,1.28.9,2.5,2.49,3.42l25.07,14.54c3.7,2.14,10.17,1.87,14.44-.6l24.17-13.96c2.54-1.46,3.72-3.37,3.5-5.13Z"/><path class="cls-46" d="m569.77,160.92c-2.44,0-4.78-.49-6.52-1.5l-25.07-14.54c-1.67-.97-2.64-2.32-2.74-3.82l-.05-16.51c0-.27.22-.5.49-.5l69.72-.93c.11.02.26.05.36.14.09.09.15.22.15.36v15.64c.24,2.04-1.12,4.08-3.75,5.6l-24.17,13.96c-2.4,1.39-5.49,2.1-8.42,2.1Zm-33.38-35.87l.04,15.98c.07,1.14.85,2.18,2.24,2.99l25.07,14.54c3.56,2.05,9.81,1.79,13.94-.6l24.17-13.96c2.24-1.29,3.46-3.03,3.25-4.64,0-.02,0-.04,0-.06v-15.17l-68.72.91Z"/><path class="cls-23" d="m563.5,142.68l-25.07-14.54c-3.7-2.14-3.24-5.87,1.04-8.34l24.17-13.96c4.28-2.47,10.74-2.74,14.44-.6l25.07,14.54c3.7,2.14,3.24,5.87-1.04,8.34l-24.17,13.96c-4.28,2.47-10.74,2.74-14.44.6Z"/><path class="cls-46" d="m569.77,144.62c-2.44,0-4.78-.49-6.52-1.5h0s-25.07-14.54-25.07-14.54c-1.77-1.02-2.75-2.46-2.75-4.06,0-1.88,1.38-3.76,3.79-5.15l24.17-13.96c4.41-2.54,11.11-2.81,14.95-.6l25.07,14.54c1.77,1.02,2.75,2.46,2.75,4.06,0,1.88-1.38,3.76-3.79,5.15l-24.17,13.96c-2.4,1.39-5.49,2.1-8.42,2.1Zm-6.02-2.37c3.56,2.05,9.82,1.79,13.95-.6l24.17-13.96c2.09-1.21,3.29-2.77,3.29-4.28,0-1.22-.8-2.35-2.25-3.19l-25.07-14.54c-3.56-2.05-9.82-1.79-13.94.6l-24.17,13.96c-2.09,1.21-3.29,2.77-3.29,4.28,0,1.22.8,2.35,2.25,3.19l25.07,14.54Z"/><path class="cls-16" d="m605.62,118.71v-5.51l-69.72.93v6.32h.04c.08,1.28.9,2.5,2.49,3.42l25.07,14.54c3.7,2.14,10.17,1.87,14.44-.6l24.17-13.96c2.54-1.46,3.72-3.37,3.5-5.13Z"/><path class="cls-46" d="m569.77,140.33c-2.44,0-4.78-.49-6.52-1.5l-25.07-14.54c-1.67-.97-2.64-2.32-2.74-3.82l-.05-6.34c0-.27.22-.5.49-.5l69.72-.93c.11.01.26.05.36.14.09.09.15.22.15.36v5.48c.24,2.04-1.12,4.08-3.75,5.6l-24.17,13.96c-2.4,1.39-5.49,2.1-8.42,2.1Zm-33.37-25.71l.04,5.82c.07,1.14.85,2.18,2.24,2.99l25.07,14.54c3.56,2.05,9.81,1.78,13.94-.6l24.17-13.96c2.24-1.29,3.46-3.03,3.25-4.64,0-.02,0-.04,0-.06v-5l-68.72.91Z"/><path class="cls-23" d="m563.5,132.25l-25.07-14.54c-3.7-2.14-3.24-5.87,1.04-8.34l24.17-13.96c4.28-2.47,10.74-2.74,14.44-.6l25.07,14.54c3.7,2.14,3.24,5.87-1.04,8.34l-24.17,13.96c-4.28,2.47-10.74,2.74-14.44.6Z"/><path class="cls-46" d="m569.77,134.19c-2.44,0-4.78-.49-6.52-1.5h0s-25.07-14.54-25.07-14.54c-1.77-1.02-2.75-2.46-2.75-4.06,0-1.88,1.38-3.76,3.79-5.15l24.17-13.96c4.41-2.54,11.11-2.81,14.95-.6l25.07,14.54c1.77,1.02,2.75,2.46,2.75,4.05,0,1.88-1.38,3.76-3.79,5.15l-24.17,13.96c-2.4,1.39-5.49,2.1-8.42,2.1Zm-6.02-2.37c3.56,2.05,9.82,1.79,13.95-.6l24.17-13.96c2.09-1.21,3.29-2.77,3.29-4.28,0-1.22-.8-2.35-2.25-3.19l-25.07-14.54c-3.56-2.05-9.82-1.79-13.94.6l-24.17,13.96c-2.09,1.21-3.29,2.77-3.29,4.28,0,1.22.8,2.35,2.25,3.19l25.07,14.54Z"/><path class="cls-15" d="m566.52,129.08l-22.6-13.11c-2.24-1.29-1.96-3.55.63-5.05l21.77-12.57c2.59-1.49,6.5-1.66,8.75-.36l22.6,13.11c2.24,1.29,1.96,3.55-.63,5.05l-21.77,12.57c-2.59,1.49-6.5,1.66-8.75.36Z"/><path class="cls-23" d="m625.4,334.19c-.69-.08-1.23-.44-1.61-1.08-.39-.63-.58-1.49-.58-2.58s.19-2.17.58-3.25c.39-1.08.92-2.06,1.61-2.94s1.46-1.57,2.33-2.07c.87-.5,1.64-.71,2.32-.62s1.22.45,1.6,1.08c.39.63.58,1.49.58,2.58s-.19,2.17-.58,3.25c-.39,1.08-.92,2.06-1.6,2.93-.68.88-1.46,1.56-2.32,2.06-.87.5-1.64.71-2.33.62Zm3.83-4.92c.39-.78.59-1.63.59-2.55s-.2-1.55-.59-1.87c-.39-.32-.89-.31-1.5.04-.61.35-1.12.92-1.51,1.7-.4.78-.59,1.63-.59,2.55s.2,1.55.59,1.87c.4.32.9.3,1.51-.05.61-.35,1.11-.92,1.5-1.69Z"/><path class="cls-23" d="m642.26,314.59c.63.11,1.12.48,1.48,1.12.36.64.53,1.53.53,2.66s-.18,2.22-.53,3.27c-.36,1.05-.85,2-1.48,2.83-.62.83-1.32,1.47-2.08,1.91-1.13.65-1.99.67-2.58.06v1.26l-2.28,1.31v-15.12l2.38-1.38v5.32c.6-1.23,1.43-2.15,2.48-2.75.76-.44,1.46-.61,2.08-.5Zm-.99,7.72c.39-.78.59-1.63.59-2.55s-.2-1.55-.59-1.87c-.39-.32-.89-.31-1.51.04-.61.35-1.11.92-1.5,1.69-.39.78-.59,1.63-.59,2.55s.2,1.55.59,1.87c.39.32.89.31,1.5-.04.61-.35,1.11-.92,1.51-1.69Z"/><path class="cls-23" d="m644.84,327.03l.64-2.67c.27.1.61.03,1.01-.2.31-.18.54-.45.72-.81.17-.36.26-.81.26-1.34v-10.96l2.38-1.38v10.94c0,1.28-.27,2.44-.82,3.5s-1.31,1.86-2.28,2.43c-.83.48-1.47.65-1.91.49Zm2.75-18.09c-.28-.18-.41-.52-.41-1.03s.14-1,.41-1.5c.27-.5.63-.87,1.07-1.13.44-.25.79-.3,1.07-.13.28.17.41.5.41.98,0,.53-.14,1.05-.41,1.55-.27.51-.63.88-1.07,1.14-.44.25-.79.29-1.07.11Z"/><path class="cls-23" d="m661.56,309.29l-6.22,3.59c.11.62.38,1,.79,1.15.42.15.94.05,1.56-.31.43-.25.81-.55,1.14-.91.33-.36.64-.81.92-1.34l1.27,1.1c-.77,1.63-1.91,2.87-3.39,3.73-.93.54-1.75.77-2.46.7-.71-.07-1.26-.42-1.65-1.05-.39-.63-.58-1.49-.58-2.58s.19-2.15.57-3.23c.38-1.08.91-2.06,1.57-2.93.67-.87,1.41-1.54,2.24-2.02.8-.46,1.53-.65,2.18-.57s1.16.45,1.54,1.1c.37.65.56,1.54.56,2.68,0,.04-.01.33-.04.88Zm-5.58-.3c-.37.62-.59,1.31-.67,2.06l4.05-2.34c-.08-.65-.3-1.07-.67-1.27-.37-.2-.82-.15-1.34.16-.54.31-.99.78-1.36,1.4Z"/><path class="cls-23" d="m666.3,310.57c-.7-.08-1.24-.43-1.63-1.06-.39-.63-.59-1.49-.59-2.57s.2-2.17.59-3.25c.39-1.08.94-2.07,1.63-2.95.7-.89,1.48-1.58,2.36-2.09.87-.5,1.62-.7,2.27-.59.65.11,1.12.53,1.41,1.25l-1.85,2.39c-.43-.76-1.04-.9-1.85-.44-.62.36-1.14.93-1.54,1.71-.41.78-.61,1.64-.61,2.57s.2,1.56.61,1.87c.41.31.92.28,1.54-.08.82-.47,1.43-1.33,1.85-2.58l1.85.28c-.3,1.04-.77,1.99-1.41,2.85-.65.86-1.4,1.54-2.27,2.04-.88.51-1.66.72-2.36.64Z"/><path class="cls-23" d="m680.64,302.33c-.23.37-.52.71-.86,1.02-.34.31-.7.58-1.08.79-.98.56-1.73.67-2.27.31-.54-.36-.8-1.18-.8-2.47v-4.5l-1.27.73v-2.45l1.27-.73v-2.67l2.38-1.38v2.67l2.05-1.18v2.45l-2.05,1.18v4.46c0,.46.09.77.27.92.18.15.43.13.76-.06.38-.22.7-.54.96-.96l.64,1.87Z"/><path class="cls-23" d="m633.28,357.04c-.65.15-1.17.17-1.56.05l.79-2.74c.37.1.81.1,1.33,0,.52-.1,1.03-.3,1.53-.59,1.01-.58,1.51-1.21,1.51-1.87,0-.31-.14-.46-.41-.43-.28.02-.7.15-1.27.39-.67.25-1.23.42-1.67.49-.44.08-.82-.02-1.14-.28-.32-.26-.48-.81-.48-1.64,0-.69.15-1.39.45-2.1.3-.71.74-1.38,1.31-2.01.58-.63,1.25-1.17,2.04-1.63.58-.34,1.16-.58,1.73-.75.58-.16,1.05-.2,1.43-.12l-.79,2.72c-.72-.13-1.51.06-2.37.55-.51.29-.89.61-1.15.95s-.38.66-.38.95c0,.34.14.5.41.47.28-.02.71-.15,1.31-.37.67-.24,1.22-.4,1.65-.47.43-.08.8.02,1.12.28s.47.8.47,1.6c0,.68-.15,1.37-.46,2.08-.31.71-.75,1.37-1.34,2s-1.28,1.18-2.08,1.64c-.68.39-1.35.67-2,.82Z"/><path class="cls-23" d="m647.43,348.51c-.23.37-.52.71-.86,1.02-.34.31-.7.58-1.08.79-.98.56-1.74.67-2.27.31-.54-.36-.8-1.18-.8-2.47v-4.5l-1.27.73v-2.45l1.27-.73v-2.67l2.38-1.38v2.67l2.05-1.18v2.45l-2.05,1.18v4.46c0,.46.09.77.27.92.18.15.43.13.76-.06.38-.22.7-.54.96-.96l.64,1.87Z"/><path class="cls-23" d="m651.59,346.08c-.69-.08-1.23-.44-1.61-1.08-.39-.63-.58-1.49-.58-2.58s.19-2.17.58-3.25c.39-1.08.92-2.06,1.61-2.94s1.46-1.57,2.33-2.07c.87-.5,1.64-.71,2.32-.62s1.22.45,1.6,1.08c.39.63.58,1.49.58,2.58s-.19,2.17-.58,3.25c-.39,1.08-.92,2.06-1.6,2.93-.68.88-1.46,1.56-2.32,2.06-.87.5-1.64.71-2.33.62Zm3.83-4.92c.39-.78.59-1.63.59-2.55s-.2-1.55-.59-1.87c-.39-.32-.89-.31-1.5.04s-1.12.92-1.51,1.7c-.4.78-.59,1.63-.59,2.55s.2,1.55.59,1.87c.4.32.9.3,1.51-.05s1.11-.92,1.5-1.69Z"/><path class="cls-23" d="m664.95,328.21c.48-.55,1.04-1.01,1.67-1.37v2.93c-.26.13-.44.22-.53.27-.68.39-1.22.96-1.6,1.69s-.58,1.61-.58,2.63v5.17l-2.38,1.38v-10.96l2.28-1.31v1.45c.29-.69.67-1.32,1.15-1.87Z"/><path class="cls-23" d="m677.47,327.11l-6.22,3.59c.11.62.38,1,.79,1.15.42.15.94.05,1.56-.31.43-.25.81-.55,1.14-.91.33-.36.64-.81.92-1.34l1.27,1.1c-.77,1.63-1.91,2.87-3.39,3.73-.93.54-1.75.77-2.46.7-.71-.07-1.26-.42-1.65-1.05-.39-.63-.58-1.49-.58-2.58s.19-2.15.57-3.23c.38-1.08.91-2.06,1.57-2.93.67-.87,1.41-1.54,2.24-2.02.8-.46,1.53-.65,2.18-.57s1.16.45,1.54,1.1c.37.65.56,1.54.56,2.68,0,.04-.01.33-.04.88Zm-5.58-.3c-.37.62-.59,1.31-.67,2.06l4.05-2.34c-.08-.65-.3-1.07-.67-1.27-.37-.2-.82-.15-1.34.16-.54.31-.99.78-1.36,1.4Z"/><path class="cls-23" d="m453.4,305.38c-.69-.88-1.23-1.86-1.61-2.94s-.58-2.16-.58-3.25.19-1.95.58-2.58c.39-.63.92-.99,1.61-1.08s1.46.12,2.33.62,1.64,1.19,2.32,2.06c.68.88,1.22,1.85,1.6,2.93s.58,2.16.58,3.25-.19,1.95-.58,2.58c-.39.63-.92.99-1.6,1.08s-1.46-.12-2.32-.62-1.64-1.19-2.33-2.07Zm3.83-.5c.39-.32.59-.95.59-1.87s-.2-1.77-.59-2.55-.89-1.34-1.5-1.69-1.12-.37-1.51-.05c-.4.32-.59.94-.59,1.87s.2,1.78.59,2.55c.4.78.9,1.35,1.51,1.7s1.11.37,1.5.04Z"/><path class="cls-23" d="m470.27,305.26c.63.83,1.12,1.77,1.47,2.83s.53,2.15.53,3.27-.18,2.01-.53,2.66-.85,1.02-1.47,1.12c-.63.11-1.32-.06-2.09-.5-1.13-.65-1.99-1.62-2.58-2.92v1.26l-2.28-1.31v-15.12l2.38,1.38v5.32c.6-.54,1.43-.5,2.48.1.76.44,1.46,1.08,2.09,1.91Zm-.99,6.58c.39-.32.59-.95.59-1.87s-.2-1.77-.59-2.55-.89-1.34-1.51-1.69c-.61-.35-1.11-.37-1.5-.04-.39.32-.59.95-.59,1.87s.2,1.77.59,2.55c.39.78.89,1.34,1.5,1.69.61.35,1.11.37,1.51.04Z"/><path class="cls-23" d="m472.84,320.67l.64-1.93c.28.42.61.74,1.01.97.31.18.54.18.72.02.17-.17.26-.51.26-1.04v-10.96l2.38,1.38v10.94c0,1.28-.27,2.13-.82,2.55-.54.43-1.31.36-2.28-.21-.83-.48-1.47-1.05-1.91-1.71Zm2.75-14.91c-.27-.5-.41-1-.41-1.5s.14-.84.41-1.02c.28-.18.63-.14,1.07.11.44.25.79.62,1.07,1.11.28.49.41.97.41,1.46,0,.53-.14.89-.41,1.08-.27.19-.63.15-1.07-.1-.44-.25-.79-.63-1.07-1.13Z"/><path class="cls-23" d="m489.56,322.23l-6.22-3.59c.11.74.38,1.43.79,2.07.42.64.94,1.13,1.56,1.49.43.25.81.38,1.14.4.33.02.64-.07.92-.27l1.27,2.57c-.77.73-1.91.67-3.39-.19-.93-.54-1.75-1.25-2.46-2.14-.71-.89-1.26-1.88-1.65-2.96-.39-1.08-.58-2.16-.58-3.25s.19-1.93.57-2.57c.38-.64.91-1.01,1.57-1.11.67-.1,1.41.09,2.24.57.8.46,1.53,1.12,2.18,1.95.65.84,1.16,1.8,1.54,2.87.37,1.08.56,2.19.56,3.33,0,.04-.02.32-.05.83Zm-5.58-6.74c-.37.2-.59.62-.67,1.28l4.05,2.34c-.08-.74-.3-1.42-.67-2.05-.37-.63-.82-1.09-1.34-1.4-.54-.31-.99-.37-1.36-.17Z"/><path class="cls-23" d="m494.3,329c-.7-.88-1.24-1.87-1.63-2.95-.39-1.08-.59-2.17-.59-3.25s.2-1.94.59-2.57c.39-.63.94-.98,1.63-1.06.7-.08,1.48.13,2.36.64.87.5,1.62,1.18,2.27,2.03.65.86,1.12,1.82,1.41,2.88l-1.85.26c-.43-1.25-1.04-2.11-1.85-2.58-.62-.36-1.14-.38-1.54-.08s-.61.93-.61,1.87.2,1.8.61,2.57.92,1.35,1.54,1.71c.81.47,1.43.32,1.85-.44l1.85,2.41c-.3.7-.77,1.11-1.41,1.22-.65.12-1.4-.08-2.27-.58-.88-.51-1.66-1.2-2.36-2.09Z"/><path class="cls-23" d="m508.65,337.31c-.23.1-.52.1-.86.02-.34-.08-.7-.23-1.08-.45-.98-.56-1.73-1.33-2.27-2.31s-.8-2.11-.8-3.4v-4.5l-1.27-.73v-2.44l1.27.73v-2.67l2.38,1.38v2.67l2.05,1.18v2.44l-2.05-1.18v4.46c0,.46.09.87.27,1.22s.43.63.76.81c.38.22.7.27.96.15l.64,2.61Z"/><path class="cls-23" d="m455.46,333.97c-.65-.6-1.17-1.18-1.56-1.75l.79-1.82c.37.52.81,1.03,1.33,1.53.52.5,1.03.89,1.53,1.18,1.01.58,1.51.54,1.51-.12,0-.31-.14-.62-.41-.91-.27-.29-.7-.65-1.27-1.08-.67-.52-1.23-1-1.67-1.43-.44-.43-.82-.96-1.14-1.59-.32-.63-.48-1.36-.48-2.19,0-.69.15-1.22.45-1.58.3-.36.74-.53,1.31-.49.58.03,1.25.28,2.04.73.58.34,1.16.75,1.73,1.26.58.5,1.05,1.01,1.43,1.53l-.79,1.8c-.72-.96-1.51-1.69-2.37-2.18-.51-.29-.89-.42-1.15-.38-.25.04-.38.21-.38.51,0,.34.14.66.41.95.27.29.71.68,1.31,1.15.67.54,1.22,1.01,1.65,1.43s.8.94,1.12,1.57.47,1.35.47,2.15c0,.68-.15,1.19-.46,1.55-.31.35-.75.51-1.34.46-.59-.05-1.28-.3-2.09-.77-.68-.39-1.35-.89-2-1.49Z"/><path class="cls-23" d="m469.61,341.78c-.23.1-.52.1-.86.02-.34-.08-.7-.23-1.08-.45-.98-.56-1.73-1.33-2.27-2.31-.54-.97-.8-2.11-.8-3.4v-4.5l-1.27-.73v-2.45l1.27.73v-2.67l2.38,1.38v2.67l2.05,1.18v2.44l-2.05-1.18v4.46c0,.46.09.87.27,1.22.18.35.43.62.76.81.38.22.7.27.96.15l.64,2.61Z"/><path class="cls-23" d="m473.78,344.16c-.69-.88-1.23-1.86-1.61-2.94-.39-1.08-.58-2.16-.58-3.25s.19-1.95.58-2.58c.39-.63.92-.99,1.61-1.08.69-.08,1.46.12,2.33.62s1.64,1.19,2.32,2.06c.68.88,1.22,1.85,1.6,2.93.39,1.08.58,2.16.58,3.25s-.19,1.95-.58,2.58c-.39.63-.92.99-1.6,1.08-.68.09-1.46-.12-2.32-.62s-1.64-1.19-2.33-2.07Zm3.84-.5c.39-.32.59-.95.59-1.87s-.2-1.77-.59-2.55c-.39-.78-.89-1.34-1.51-1.69-.61-.35-1.12-.37-1.51-.05-.4.32-.6.94-.6,1.87s.2,1.78.6,2.55c.4.78.9,1.35,1.51,1.7.61.35,1.11.37,1.51.04Z"/><path class="cls-23" d="m487.13,341.71c.48,0,1.04.19,1.67.56v2.93c-.27-.18-.44-.3-.54-.35-.68-.39-1.22-.45-1.6-.16-.39.29-.58.94-.58,1.96v5.17l-2.38-1.38v-10.96l2.28,1.31v1.45c.29-.37.67-.54,1.15-.54Z"/><path class="cls-23" d="m499.65,355.07l-6.22-3.59c.11.74.38,1.43.79,2.07.42.64.94,1.13,1.56,1.49.43.25.81.38,1.14.4s.64-.07.92-.27l1.27,2.57c-.78.73-1.91.67-3.39-.19-.93-.54-1.75-1.25-2.46-2.14-.71-.89-1.26-1.88-1.65-2.96-.39-1.08-.58-2.16-.58-3.25s.19-1.93.57-2.57c.38-.64.91-1.01,1.57-1.11.67-.1,1.41.09,2.24.57.8.46,1.53,1.12,2.18,1.95.65.84,1.16,1.8,1.54,2.87.37,1.08.56,2.19.56,3.33,0,.04-.02.32-.05.83Zm-5.58-6.74c-.37.2-.59.62-.67,1.28l4.05,2.34c-.08-.74-.31-1.42-.67-2.05-.37-.63-.82-1.09-1.34-1.4-.54-.31-.99-.37-1.36-.17Z"/><path class="cls-23" d="m298.06,426.69c-.48,1-.82,2.07-1.03,3.16-.8-.26-1.64-.4-2.49-.4-.76,0-1.52.13-2.25.38l5.77-3.14Z"/><path class="cls-46" d="m297.03,430.35c-.05,0-.1,0-.15-.02-.76-.25-1.54-.37-2.34-.38-.71,0-1.42.12-2.08.35-.25.09-.52-.03-.62-.27-.11-.24-.01-.52.22-.64l5.77-3.14c.19-.1.43-.07.58.08.16.15.2.38.11.58-.46.97-.79,1.99-.99,3.04-.03.14-.11.26-.24.34-.08.05-.17.07-.26.07Zm-2.1-1.39c.58.03,1.16.12,1.72.26.11-.48.25-.95.41-1.42l-2.13,1.16Z"/><path class="cls-23" d="m337.16,433.14l-13.12,7.6s-.03-.01-.05-.02l-.04-.03c-1.92-7.6-6.65-14.61-12.06-17.74-1.76-1.08-3.77-1.67-5.84-1.72-1.07,0-2.12.2-3.09.58l12.02-6.95.18-.1c1.25-.71,2.67-1.09,4.1-1.09,2.06.05,4.07.64,5.83,1.72,5.41,3.13,10.14,10.15,12.05,17.75Z"/><path class="cls-46" d="m324.04,441.24c-.07,0-.14-.01-.2-.04-.05-.02-.14-.07-.18-.1-.08-.07-.17-.19-.19-.29-1.9-7.54-6.54-14.38-11.82-17.42-1.69-1.04-3.62-1.61-5.6-1.66-.97-.03-1.97.18-2.9.54-.24.1-.52-.01-.63-.25-.11-.24-.03-.52.2-.65l12.21-7.06c1.32-.75,2.83-1.15,4.35-1.15,2.16.05,4.26.67,6.09,1.8,5.5,3.18,10.32,10.27,12.27,18.05.05.22-.04.44-.23.55l-13.12,7.6c-.08.04-.16.07-.25.07Zm-18.01-20.51h.03c2.16.05,4.26.67,6.09,1.8,5.36,3.09,10.09,9.92,12.14,17.49l12.28-7.12c-1.95-7.39-6.52-14.06-11.72-17.07-1.69-1.04-3.62-1.61-5.59-1.66-1.34,0-2.67.35-3.85,1.02l-.19.1-9.41,5.44c.07,0,.13,0,.2,0Z"/><path class="cls-23" d="m324.04,440.74h-.01s-.03-.02-.03-.02c.02,0,.03.01.05.02Z"/><path class="cls-46" d="m324.03,441.25c-.12,0-.23-.04-.32-.12-.19-.16-.25-.44-.12-.65.13-.21.37-.31.6-.22.18.07.32.25.33.44.01.19-.06.38-.23.48h-.01c-.08.05-.16.07-.25.07Zm.01-.51h0,0Z"/><path class="cls-23" d="m348.29,449.26l-13.13,7.6s-.02,0-.02-.01l-.03-.04c-1.15-6.4-5.13-12.73-9.76-15.4-.42-.25-.86-.47-1.31-.66l13.12-7.6c.48.2.94.43,1.39.69,4.63,2.67,8.6,9.02,9.74,15.43Z"/><path class="cls-46" d="m335.16,457.36c-.1,0-.2-.03-.28-.09-.05-.04-.12-.09-.15-.15-.04-.06-.09-.16-.11-.23-1.14-6.29-5.05-12.48-9.52-15.06-.4-.24-.82-.45-1.25-.63-.18-.07-.29-.24-.31-.43s.08-.37.25-.46l13.12-7.6c.14-.08.3-.09.44-.03.5.21.98.45,1.45.72,4.71,2.72,8.81,9.2,9.98,15.77.04.21-.06.41-.24.52l-13.13,7.6c-.08.04-.17.07-.25.07Zm-10.04-16.66c.17.09.33.18.49.27,4.55,2.63,8.55,8.78,9.88,15.12l12.25-7.09c-1.2-6.18-5.04-12.2-9.43-14.74-.36-.21-.73-.4-1.11-.56l-12.08,7Z"/><path class="cls-23" d="m335.16,456.86h0s-.01-.01-.01-.01c0,0,.02,0,.02.01Z"/><path class="cls-46" d="m335.15,457.36c-.16,0-.31-.08-.41-.21-.14-.2-.12-.47.04-.64.17-.17.42-.21.62-.08.15.09.25.27.24.44s-.09.34-.25.43h0c-.08.05-.16.07-.24.07Z"/><path class="cls-23" d="m354.37,469.77c-.25.37-.55.7-.87,1.01-.33.3-.69.57-1.07.79l-.11.06-12.75,7.39c.67-.42,1.26-.98,1.71-1.66,1.09-1.7,1.64-3.69,1.56-5.7,0-5.7-3.35-12.13-7.67-14.81,0,0-.02,0-.02-.01,0,0,0,0-.01,0l13.1-7.58c4.32,2.65,7.72,9.1,7.72,14.83.08,2.01-.47,4-1.57,5.69Z"/><path class="cls-46" d="m339.56,479.53c-.17,0-.33-.09-.43-.24-.14-.23-.07-.54.16-.68.62-.39,1.15-.9,1.56-1.52,1.04-1.61,1.55-3.48,1.48-5.4,0-5.5-3.27-11.82-7.44-14.4-.15-.09-.26-.27-.25-.44,0-.18.08-.35.23-.44l13.1-7.58c.16-.09.36-.09.51,0,4.46,2.74,7.95,9.44,7.95,15.25.08,2.11-.49,4.18-1.65,5.97,0,0,0,0,0,.01-.28.4-.59.76-.95,1.09-.35.33-.74.61-1.16.86l-12.86,7.46c-.08.05-.17.07-.25.07Zm-3.49-22.66c4.2,3.02,7.26,9.2,7.26,14.8.07,1.86-.36,3.69-1.26,5.32l10.09-5.85c.35-.21.69-.45.98-.73.3-.27.57-.58.8-.92,1.04-1.61,1.56-3.48,1.48-5.4,0-5.41-3.15-11.6-7.23-14.26l-12.14,7.03Zm18.3,12.91h0,0Z"/><path class="cls-23" d="m324.98,474.42l7.58,4.37c1.16.72,2.49,1.12,3.85,1.15l.03-.02c1.12,0,2.21-.31,3.13-.9.67-.42,1.25-.98,1.71-1.66.03-.05.06-.1.1-.15.06-.1.12-.2.18-.3h0c.05-.09.09-.17.14-.26.04-.07.07-.13.11-.2,0,0,0,0,0,0,.03-.06.06-.12.09-.18.02-.04.03-.07.05-.11,0-.02.02-.04.02-.05.02-.04.04-.08.06-.13,0-.02.01-.03.02-.05.04-.09.07-.17.11-.26,0-.02.01-.03.02-.04.02-.04.04-.09.05-.14,0,0,0-.02,0-.03,0-.01,0-.02.01-.03.02-.04.03-.08.04-.12.04-.11.08-.22.11-.33,0,0,0,0,0-.01.01-.04.03-.09.04-.13.02-.05.03-.11.05-.16.02-.05.03-.1.04-.16.02-.08.04-.16.06-.24,0-.04.02-.07.03-.11,0-.02.01-.04.01-.06.01-.05.02-.09.03-.14.04-.21.08-.42.11-.64.01-.08.02-.15.03-.23,0-.07.01-.13.02-.2,0-.05,0-.1.01-.14,0,0,0-.01,0-.02,0-.1.01-.19.02-.29,0-.02,0-.05,0-.07,0-.05,0-.1,0-.15,0-.18,0-.37,0-.55,0-.07,0-.15,0-.22,0-.02,0-.03,0-.05,0-.09,0-.17,0-.26,0-.09,0-.18-.01-.27,0-.09,0-.17-.02-.26,0-.09-.01-.19-.02-.28,0-.09-.02-.18-.03-.27-.02-.18-.04-.36-.07-.54-.02-.18-.05-.36-.08-.54-.02-.09-.03-.18-.05-.27-.03-.18-.07-.36-.11-.54,0-.01,0-.02,0-.03-.04-.17-.08-.34-.12-.51-.09-.36-.19-.72-.3-1.08-.06-.18-.11-.36-.18-.54-.03-.09-.06-.18-.09-.27-.09-.27-.19-.53-.3-.79-.03-.09-.07-.17-.11-.26-.05-.11-.09-.21-.14-.32-.02-.04-.04-.08-.05-.12-.05-.11-.1-.22-.15-.33-.05-.11-.1-.21-.15-.32-.04-.08-.07-.15-.11-.23-.03-.07-.07-.13-.1-.2,0,0-.01-.02-.02-.03-.04-.07-.08-.14-.11-.22-.05-.09-.09-.17-.14-.26-.09-.16-.18-.32-.28-.48-.05-.08-.09-.16-.14-.24-.05-.08-.09-.15-.14-.23-.02-.03-.04-.06-.05-.08-.01-.02-.03-.05-.05-.07-.07-.1-.13-.21-.2-.31-.1-.15-.21-.3-.31-.45-.05-.07-.11-.15-.16-.22-.05-.06-.09-.12-.14-.18-.06-.08-.12-.16-.19-.25-.11-.14-.22-.28-.34-.42-.23-.27-.46-.53-.7-.79-.13-.13-.26-.26-.38-.39-.04-.04-.09-.08-.13-.12-.04-.03-.07-.07-.11-.1,0,0-.01,0-.02-.01-.04-.03-.07-.07-.11-.1-.02-.02-.03-.03-.05-.05-.04-.04-.08-.08-.13-.11-.06-.06-.13-.11-.19-.16-.05-.04-.1-.08-.15-.12-.02-.02-.04-.04-.06-.05-.06-.05-.12-.09-.17-.14-.06-.05-.13-.1-.2-.15-.05-.04-.1-.07-.15-.11-.03-.03-.07-.05-.1-.07,0,0-.02-.01-.02-.02-.04-.03-.09-.06-.13-.09-.06-.04-.13-.09-.19-.13-.07-.04-.13-.09-.2-.13,0,0-.02-.01-.02-.02,0,0,0,0-.01,0,0,0,0,0,0,0,0,0,0-.02,0-.03-.03-.14-.05-.27-.08-.41-.02-.12-.05-.25-.08-.37,0-.01,0-.03,0-.04,0,0,0-.02,0-.02-.01-.06-.03-.13-.04-.19-.01-.06-.03-.13-.04-.19-.01-.06-.03-.12-.04-.19-.01-.05-.03-.11-.04-.16-.04-.17-.09-.35-.14-.52-.05-.2-.11-.4-.17-.59-.03-.1-.06-.2-.09-.3-.02-.07-.05-.15-.07-.22-.02-.07-.05-.15-.07-.22-.02-.07-.05-.13-.07-.2-.03-.08-.06-.16-.08-.24-.03-.1-.07-.19-.11-.29-.14-.39-.29-.77-.46-1.15-.08-.19-.16-.38-.25-.57-.09-.19-.17-.37-.26-.56-.09-.19-.18-.37-.27-.55-.05-.09-.09-.18-.14-.27-.09-.18-.19-.36-.29-.54-.06-.1-.12-.21-.18-.31-.06-.1-.12-.21-.18-.31-.08-.14-.16-.27-.24-.41-.04-.07-.08-.13-.12-.2-.04-.07-.08-.13-.13-.2-.04-.07-.09-.13-.13-.2-.14-.21-.27-.41-.42-.62-.04-.05-.07-.11-.11-.16-.02-.03-.04-.06-.07-.09-.02-.03-.04-.06-.07-.09-.09-.13-.18-.25-.27-.37-.04-.06-.09-.12-.13-.17-.05-.06-.1-.12-.14-.19-.05-.06-.1-.12-.14-.18-.12-.15-.24-.29-.36-.43-.06-.07-.13-.15-.19-.22-.05-.06-.11-.13-.17-.19-.02-.02-.03-.04-.05-.05-.05-.06-.11-.12-.17-.18-.06-.07-.13-.14-.19-.21-.12-.13-.24-.25-.37-.38-.01-.01-.02-.02-.04-.04-.06-.06-.12-.12-.19-.18-.06-.06-.12-.12-.19-.18-.07-.07-.14-.13-.21-.2-.13-.12-.27-.24-.41-.36-.27-.23-.55-.45-.83-.66-.05-.04-.11-.08-.16-.12-.05-.04-.11-.08-.16-.11-.05-.04-.11-.07-.16-.11-.05-.04-.11-.07-.16-.11-.11-.07-.21-.14-.32-.21-.05-.03-.11-.07-.16-.1-.05-.03-.11-.06-.16-.1-.05-.03-.11-.06-.16-.09-.05-.03-.11-.06-.16-.09-.05-.03-.11-.06-.16-.09-.05-.03-.11-.06-.16-.08,0,0-.01,0-.02,0-.05-.02-.1-.05-.14-.07-.02,0-.04-.02-.06-.03-.06-.03-.12-.05-.17-.08-.01,0-.02-.01-.03-.01-.08-.04-.16-.07-.24-.1-.02,0-.03-.01-.05-.02-.01,0-.02,0-.03-.01,0,0,0-.01,0-.02-.03-.13-.07-.26-.1-.4,0-.01,0-.03-.01-.04-.01-.06-.03-.12-.05-.17,0-.02,0-.03-.01-.05-.02-.08-.04-.15-.06-.23-.02-.07-.04-.14-.06-.22-.04-.13-.08-.27-.12-.4,0-.02,0-.03-.01-.04-.02-.07-.04-.14-.07-.21-.02-.08-.05-.15-.07-.23,0-.02-.01-.03-.02-.05-.02-.05-.03-.11-.05-.16-.04-.12-.08-.23-.11-.34-.04-.11-.08-.23-.12-.34-.03-.09-.06-.18-.1-.27-.04-.12-.08-.23-.13-.34-.02-.04-.03-.09-.05-.13-.02-.06-.04-.12-.07-.17-.02-.06-.04-.12-.07-.17-.03-.07-.05-.14-.08-.21-.04-.1-.08-.2-.12-.3,0-.02-.02-.04-.02-.06-.04-.1-.08-.19-.12-.29,0-.01,0-.02-.01-.03-.07-.16-.14-.32-.21-.48-.07-.16-.14-.32-.22-.48,0-.01-.01-.03-.02-.04-.06-.14-.13-.28-.2-.42-.03-.05-.05-.11-.08-.16-.07-.14-.13-.27-.2-.41-.05-.11-.11-.22-.16-.32-.11-.21-.22-.43-.34-.64-.06-.1-.11-.21-.17-.31-.02-.03-.03-.06-.05-.09-.09-.16-.18-.31-.27-.47-.02-.04-.05-.08-.07-.12-.05-.08-.09-.16-.14-.24-.02-.04-.05-.08-.07-.12-.09-.15-.18-.29-.27-.44,0,0,0,0,0,0-.07-.12-.15-.24-.23-.35-.1-.15-.2-.3-.3-.45-.06-.09-.12-.18-.18-.26-.09-.13-.18-.26-.27-.38-.04-.06-.08-.11-.12-.17-.08-.11-.16-.23-.25-.34-.12-.16-.24-.32-.36-.48-.08-.11-.17-.21-.25-.32-.01-.01-.02-.03-.03-.04-.09-.12-.19-.24-.29-.35,0,0,0,0,0,0-.07-.09-.14-.17-.21-.26-.07-.08-.14-.16-.2-.24-.59-.68-1.2-1.32-1.84-1.91-.08-.07-.16-.14-.24-.22-.08-.07-.16-.14-.24-.21-.08-.07-.16-.14-.24-.21-.08-.07-.16-.14-.24-.2-.08-.07-.16-.13-.24-.2-.16-.13-.33-.26-.49-.38-.08-.06-.16-.12-.25-.18-.07-.05-.13-.1-.2-.14-.02-.01-.04-.03-.06-.04-.02-.01-.03-.02-.05-.03-.06-.04-.12-.09-.19-.13-.08-.06-.17-.11-.25-.17-.08-.05-.17-.11-.25-.16-.08-.05-.17-.11-.25-.15-.08-.05-.17-.1-.25-.15-.05-.03-.11-.07-.17-.1-.06-.03-.11-.07-.17-.1-.06-.03-.11-.06-.17-.09-.06-.03-.11-.06-.17-.09-.06-.03-.11-.06-.17-.09-.06-.03-.12-.06-.17-.09-.06-.03-.12-.06-.17-.08-.12-.05-.23-.11-.35-.16-.1-.04-.19-.08-.29-.12-.05-.02-.09-.04-.14-.05-.14-.06-.29-.11-.44-.16-.03-.01-.07-.02-.1-.03-.06-.02-.13-.04-.2-.06-.06-.02-.13-.04-.19-.06-.06-.02-.13-.04-.19-.05-.09-.02-.18-.05-.27-.07-.06-.02-.12-.03-.19-.04-.06-.01-.12-.03-.19-.04-.06-.01-.13-.03-.19-.04-.13-.02-.25-.05-.38-.07-.13-.02-.25-.04-.38-.05-.06,0-.13-.02-.19-.02-.13-.01-.26-.03-.38-.03-.13-.01-.26-.02-.38-.02-.06,0-.13,0-.19,0-1.07,0-2.12.2-3.09.58-1.51.59-2.84,1.62-3.8,2.98-.42.6-.79,1.23-1.11,1.89h0c-.04.1-.09.19-.13.28-.04.09-.08.19-.12.29h0c-.07.16-.13.32-.19.49-.12.33-.23.66-.32.99-.02.08-.04.16-.07.24-.02.09-.04.17-.06.26-.02.07-.03.14-.05.2-.03.14-.06.27-.08.41-.07-.02-.14-.04-.2-.06,0,0,0,0-.01,0-.08-.02-.16-.05-.24-.07-.07-.02-.14-.04-.21-.05-.01,0-.02,0-.04,0,0,0,0,0,0,0-.14-.03-.29-.06-.44-.09-.05,0-.09-.02-.14-.02,0,0-.02,0-.02,0-.06,0-.11-.02-.17-.02,0,0,0,0,0,0-.03,0-.06,0-.09-.01,0,0-.01,0-.02,0-.02,0-.05,0-.07,0h0c-.06,0-.12-.01-.18-.02-.11,0-.21-.02-.32-.02-.11,0-.21,0-.32,0-.19,0-.38,0-.57.02-.08,0-.17.02-.25.03-.04,0-.08.01-.12.02-.04,0-.08.01-.12.02-.08.01-.17.03-.25.04-.04,0-.08.02-.12.03-.04,0-.08.02-.12.03-.09.02-.19.05-.28.07-.03.01-.07.02-.1.03-.03.01-.07.02-.1.03-.04.01-.07.02-.1.03-.03.01-.07.02-.1.04-2.91,1.02-5.34,4.1-5.34,9.61,0,7.3,4.36,15.54,9.93,18.76l2.7,1.56,25.4,14.67Z"/><path class="cls-46" d="m336.4,480.45h0c-1.45-.04-2.87-.46-4.1-1.23l-7.56-4.36h0l-28.1-16.22c-5.71-3.3-10.17-11.73-10.17-19.19,0-5.07,2.12-8.84,5.68-10.09l.22-.07s.11-.03.12-.04c0,0,.11-.03.11-.03.1-.03.2-.05.3-.08l.24.46-.1-.49.14-.03c.08-.02.17-.03.26-.05,0,0,.14-.02.14-.02l.18.48-.06-.5.27-.03c.32-.02.64-.03.95-.02.11,0,.22.01.33.02l.2.02s.1.01.11.01c0,0,.11.01.11.01l.32.05c.15.03.31.06.46.09,0,0,.02,0,.03,0l.19.05.16-.62c.1-.35.21-.69.34-1.03.06-.17.13-.34.2-.5l.25-.55c.34-.72.73-1.38,1.17-2,1.01-1.43,2.4-2.52,4.03-3.16,1.05-.41,2.14-.59,3.28-.61h.14c.21.01.34.02.48.03.13,0,.27.02.4.04l.2.02c.13.02.26.03.4.06.13.02.26.04.39.07l1.58.41c.15.05.31.1.46.16l.45.18c.12.05.25.11.37.16l1.49.81c.08.05.17.1.26.16l.7.47s.11.08.11.08l.47.34c.16.12.33.25.5.39.08.06.16.13.25.2l.97.86c.64.6,1.27,1.25,1.87,1.95l1.01,1.23c.12.16.25.32.37.49l.37.51c.09.13.18.26.27.4l.71,1.08s.01.02.02.03l.55.92c.09.15.18.31.27.47l.18.33c.16.29.28.51.39.73l.42.85s.07.14.07.14l.72,1.61s.05.11.05.11l.86,2.34-.42.31.47-.16.13.41s.03.11.04.12l.38,1.34,1.49.78,1.07.72c.29.21.57.44.85.68.14.12.28.24.42.37l.61.58c.16.16.29.29.41.42l1.53,1.81c.13.18.23.31.32.43,0,0,.07.1.07.1l.17.25c.14.21.29.42.42.63l.24.37s.07.11.07.11l.68,1.17c.1.18.2.36.29.55l.14.28c.09.19.19.37.28.56.09.19.18.38.26.57.09.19.17.39.25.58.16.38.32.78.46,1.17l.5,1.49c.06.2.12.4.18.6l.27,1.09-.44.3.49-.11s.02.09.02.1l.12.57.69.48c.07.05.14.1.21.16.05.04.12.09.18.14l.71.62s.13.12.13.12c0,0,.13.12.13.12.13.13.27.27.4.4.25.26.49.53.72.81.12.14.23.28.34.43l.5.67c.11.15.22.31.32.46l.21.32s.07.11.07.12l.18.28c.05.08.1.16.15.25.09.15.19.32.28.49l.65,1.28c.05.11.11.23.16.34l.31.72c.11.27.21.54.31.81l.1.28c.06.18.12.36.18.54.11.37.22.74.31,1.11.04.17.08.35.12.52.05.22.09.41.12.6l.05.28c.03.19.06.37.09.56.03.19.05.38.07.56l.07.84c0,.08,0,.18.01.28v.26s0,.09,0,.11v.17c.01.18.02.37.01.56l-.02.54c0,.07,0,.13-.02.19l-.05.44c-.03.22-.07.44-.11.66l-.08.35c-.02.07-.04.16-.06.25l-.14.47c-.04.12-.08.24-.12.36,0,.03-.03.08-.05.13l-.5-.08.47.18s-.04.1-.04.11c-.05.13-.09.22-.13.31l-.08.18-.5-.11.45.21s-.06.12-.06.12l-.06.13s0,0,0,0h0s-.26.48-.26.48c-.06.11-.12.21-.19.32l-.1.16c-.5.73-1.12,1.34-1.86,1.81-.99.62-2.12.96-3.29.97-.05.02-.09.02-.14.02Zm-11.17-6.46l7.58,4.37c1.07.66,2.27,1.03,3.5,1.08.04-.01.08-.02.13-.02,1.04-.02,2-.28,2.86-.82.62-.39,1.15-.9,1.57-1.52l.09-.14c.06-.09.11-.19.17-.29l.23-.44h0s.06-.13.06-.13h.02s0,0,.01,0l.02.02.45.09-.45-.21s.05-.1.05-.1l.05-.11c.06-.13.09-.21.12-.29l.52.04-.47-.18.51.08-.47-.18s.04-.11.04-.11c.04-.1.07-.21.1-.31h.52s-.48-.13-.48-.13l.08-.3c.03-.09.04-.16.06-.24,0,0,.02-.11.03-.11l.03-.15c.05-.24.08-.44.11-.65l.08-1.05c0-.19,0-.36,0-.53v-.53c-.01-.09-.02-.18-.02-.26l-.06-.78c-.02-.19-.04-.36-.06-.54-.02-.18-.05-.35-.08-.53l-.05-.27c-.03-.18-.07-.36-.11-.53-.04-.2-.08-.36-.12-.53-.09-.36-.19-.71-.29-1.06-.05-.17-.11-.35-.17-.52l-.09-.26c-.09-.26-.19-.52-.29-.77l-.29-.67c-.05-.12-.1-.23-.15-.33l-.62-1.22c-.09-.16-.18-.31-.27-.47l-.28-.46s-.06-.09-.06-.09l-.24-.37c-.1-.15-.2-.29-.3-.44l-.47-.63c-.11-.14-.21-.27-.33-.4-.22-.27-.45-.52-.68-.76-.12-.13-.25-.25-.37-.38l.22-.48-.34.37.23-.47-.34.37-1.27-1.04.17-.49-.28.41-.42-.27s-.06-.04-.1-.07c-.08-.07-.14-.17-.17-.28l-.19-.96s-.02-.1-.02-.1l-.26-1.04c-.05-.19-.11-.39-.17-.58l-.48-1.44c-.14-.38-.29-.75-.45-1.13-.08-.19-.16-.37-.24-.56-.08-.18-.17-.37-.25-.55-.09-.18-.18-.36-.27-.54l-.14-.27c-.09-.17-.18-.35-.28-.52l-.66-1.12.35-.38-.42.27-.23-.36c-.13-.2-.27-.41-.41-.6l-.18-.25.34-.38-.41.29c-.09-.12-.18-.24-.27-.36l-1.1-1.35s-.06-.07-.07-.08l-.33-.36c-.12-.13-.24-.25-.36-.37l-.61-.58c-.13-.12-.26-.23-.39-.35-.27-.23-.53-.44-.8-.64l-2.23-1.33-.26-.11s-.09-.04-.09-.04c-.13-.06-.24-.18-.28-.32l-.15-.59s-.03-.1-.03-.1l-.39-1.31.43-.28-.48.15-.47-1.35s-.05-.14-.05-.14l-.33-.84.41-.31-.46.19-.7-1.56.39-.35-.45.22-.41-.82c-.11-.21-.22-.42-.33-.63l-.17-.3s-.05-.09-.05-.1c-.09-.15-.17-.31-.26-.46l-.54-.9s0-.01-.01-.02l-.68-1.04c-.09-.13-.17-.25-.26-.38l-.36-.5c-.12-.16-.24-.32-.36-.47l-.97-1.19c-.58-.67-1.18-1.3-1.8-1.87l-1.16-1.01c-.16-.13-.32-.25-.48-.37l-.44-.32.19-.48-.29.41-2.32-1.36c-.11-.05-.22-.1-.33-.15l-.41-.17c-.15-.06-.29-.1-.42-.15l-1.44-.38c-.12-.02-.24-.04-.36-.06-.12-.02-.24-.04-.37-.05l-.19-.02c-.12-.01-.24-.02-.37-.03-.12,0-.25-.02-.37-.02h-.18s-.02,0-.03,0c-.98,0-1.95.18-2.87.54-1.45.57-2.68,1.54-3.57,2.81-.41.58-.76,1.19-1.07,1.82l-.24.55c-.07.16-.12.31-.18.47-.12.31-.22.63-.31.95l-.17.68c-.03.12-.05.26-.08.39-.03.14-.11.27-.24.34-.12.07-.27.09-.41.04l-.62-.17s-.03,0-.04-.01h0c-.14-.03-.27-.06-.41-.08l-.28-.04s-.12-.01-.12-.01l-.26-.03c-.1,0-.19-.01-.29-.02-.29-.01-.55,0-.83.01l-.23.02-.19-.48.08.49-.47.08-.23-.46.12.49c-.09.02-.17.04-.26.07l-.24-.45.1.49-.31-.43.16.48c-3.28,1.15-5.1,4.48-5.1,9.17,0,7.14,4.25,15.19,9.67,18.32l28.1,16.22Zm9.89-17.16h0,0Z"/><path class="cls-23" d="m818.6,450.05l-12.07,6.97c-.77.44-1.39.18-1.39-.59v-1.62c0-.77.62-1.75,1.39-2.19l12.07-6.97c.77-.44,1.39-.18,1.39.59v1.62c0,.77-.62,1.75-1.39,2.19Z"/><path class="cls-23" d="m837.33,439.23l-12.07,6.97c-.77.44-1.39.18-1.39-.59v-1.62c0-.77.62-1.75,1.39-2.19l12.07-6.97c.77-.44,1.39-.18,1.39.59v1.62c0,.77-.62,1.75-1.39,2.19Z"/><path class="cls-23" d="m818.6,464.53l-12.07,6.97c-.77.44-1.39.18-1.39-.59v-1.62c0-.77.62-1.75,1.39-2.19l12.07-6.97c.77-.44,1.39-.18,1.39.59v1.62c0,.77-.62,1.75-1.39,2.19Z"/><path class="cls-23" d="m837.33,453.71l-12.07,6.97c-.77.44-1.39.18-1.39-.59v-1.62c0-.77.62-1.75,1.39-2.19l12.07-6.97c.77-.44,1.39-.18,1.39.59v1.62c0,.77-.62,1.75-1.39,2.19Z"/><path class="cls-23" d="m818.6,479.01l-12.07,6.97c-.77.44-1.39.18-1.39-.59v-1.62c0-.77.62-1.75,1.39-2.19l12.07-6.97c.77-.44,1.39-.18,1.39.59v1.62c0,.77-.62,1.75-1.39,2.19Z"/><path class="cls-23" d="m837.33,468.19l-12.07,6.97c-.77.44-1.39.18-1.39-.59v-1.62c0-.77.62-1.75,1.39-2.19l12.07-6.97c.77-.44,1.39-.18,1.39.59v1.62c0,.77-.62,1.75-1.39,2.19Z"/><polygon class="cls-9" points="593.26 456.02 537.72 456.02 457.69 410.21 457.71 388.39 458.71 388.39 458.69 409.63 537.98 455.02 593 455.02 679.3 405.44 675.31 386.25 676.29 386.05 680.42 405.94 593.26 456.02"/><path class="cls-20" d="m460.59,386.94c-1.36-.78-3.55-.78-4.9,0-1.35.78-1.34,2.06.02,2.84,1.36.78,3.55.78,4.9,0,1.35-.78,1.34-2.06-.02-2.84h0Z"/><path class="cls-48" d="m540.19,453.88c-1.36-.78-3.55-.78-4.9,0-1.35.78-1.34,2.06.02,2.84,1.36.78,3.55.78,4.9,0,1.35-.78,1.34-2.06-.02-2.84h0Z"/><path class="cls-31" d="m595.42,453.88c-1.36-.78-3.55-.78-4.9,0-1.35.78-1.34,2.06.02,2.84,1.36.78,3.55.78,4.9,0,1.35-.78,1.34-2.06-.02-2.84h0Z"/><path class="cls-50" d="m678.35,384.45c-1.49-.86-3.9-.86-5.38,0-1.48.86-1.47,2.26.02,3.12,1.49.86,3.9.86,5.38,0,1.48-.86,1.47-2.26-.02-3.12h0Z"/><polygon class="cls-41" points="383.36 355.6 303.45 309.85 303.47 288.03 304.47 288.03 304.45 309.27 383.86 354.73 383.36 355.6"/><path class="cls-38" d="m306.35,286.58c-1.36-.78-3.55-.78-4.9,0-1.35.78-1.34,2.06.02,2.84,1.36.78,3.55.78,4.9,0,1.35-.78,1.34-2.06-.02-2.84h0Z"/><path class="cls-39" d="m385.95,353.52c-1.36-.78-3.55-.78-4.9,0-1.35.78-1.34,2.06.02,2.84,1.36.78,3.55.78,4.9,0,1.35-.78,1.34-2.06-.02-2.84h0Z"/><polygon class="cls-25" points="739.47 361.52 738.97 360.65 825.38 311 821.4 291.81 822.38 291.61 826.51 311.51 739.47 361.52"/><path class="cls-45" d="m741.51,359.45c-1.36-.78-3.55-.78-4.9,0-1.35.78-1.34,2.06.02,2.84,1.36.78,3.55.78,4.9,0,1.35-.78,1.34-2.06-.02-2.84h0Z"/><path class="cls-30" d="m824.44,290.01c-1.49-.86-3.9-.86-5.38,0-1.48.86-1.47,2.26.02,3.12,1.49.86,3.9.86,5.38,0,1.48-.86,1.47-2.26-.02-3.12h0Z"/></svg>