<?xml version="1.0" encoding="UTF-8" standalone="no"?>
<svg
   width="452"
   height="63"
   viewBox="0 0 452 63"
   fill="none"
   version="1.1"
   id="svg11"
   sodipodi:docname="2023-12-ced-logo.svg"
   inkscape:export-filename="2023-12-ced-logo.png"
   inkscape:export-xdpi="300"
   inkscape:export-ydpi="300"
   inkscape:version="1.4 (86a8ad7, 2024-10-11)"
   xmlns:inkscape="http://www.inkscape.org/namespaces/inkscape"
   xmlns:sodipodi="http://sodipodi.sourceforge.net/DTD/sodipodi-0.dtd"
   xmlns="http://www.w3.org/2000/svg"
   xmlns:svg="http://www.w3.org/2000/svg">
  <defs
     id="defs11" />
  <sodipodi:namedview
     id="namedview11"
     pagecolor="#ffffff"
     bordercolor="#000000"
     borderopacity="0.25"
     inkscape:showpageshadow="2"
     inkscape:pageopacity="0.0"
     inkscape:pagecheckerboard="0"
     inkscape:deskcolor="#d1d1d1"
     inkscape:export-bgcolor="#ffffff00"
     inkscape:zoom="3.1681416"
     inkscape:cx="226.15782"
     inkscape:cy="31.564246"
     inkscape:window-width="1536"
     inkscape:window-height="890"
     inkscape:window-x="-6"
     inkscape:window-y="-6"
     inkscape:window-maximized="1"
     inkscape:current-layer="svg11" />
  <path
     d="M107 21.4566C108.754 18.2726 111.207 15.7952 114.349 14.0162C117.492 12.2372 121.058 11.3477 125.04 11.3477C129.92 11.3477 134.102 12.6362 137.576 15.2133C141.051 17.7904 143.379 21.3069 144.543 25.7545H133.528C132.705 24.0337 131.549 22.7285 130.045 21.8307C128.54 20.9328 126.836 20.4839 124.915 20.4839C121.831 20.4839 119.329 21.5563 117.417 23.7095C115.505 25.8543 114.549 28.7307 114.549 32.322C114.549 35.9133 115.505 38.7814 117.417 40.9345C119.329 43.0794 121.831 44.1601 124.915 44.1601C126.827 44.1601 128.54 43.7112 130.045 42.8133C131.549 41.9155 132.713 40.6103 133.528 38.8895H144.543C143.371 43.3371 141.051 46.8453 137.576 49.4057C134.102 51.9662 129.92 53.2465 125.04 53.2465C121.058 53.2465 117.492 52.3569 114.349 50.5779C111.207 48.7989 108.754 46.3298 107 43.1708C105.246 40.0118 104.365 36.3955 104.365 32.3303C104.365 28.2651 105.246 24.6489 107 21.4649V21.4566Z"
     fill="#21448B"
     id="path1" />
  <path
     d="M150.611 27.6916C151.883 25.156 153.604 23.2024 155.799 21.8307C157.985 20.4673 160.429 19.7773 163.123 19.7773C165.425 19.7773 167.445 20.2429 169.183 21.1823C170.92 22.1217 172.259 23.352 173.198 24.8734V20.2429H183.216V52.9306H173.198V48.3001C172.226 49.8214 170.862 51.0518 169.125 51.9912C167.387 52.9306 165.367 53.3961 163.064 53.3961C160.404 53.3961 157.985 52.7061 155.799 51.3178C153.612 49.9295 151.883 47.9593 150.611 45.3988C149.339 42.8383 148.707 39.8871 148.707 36.5285C148.707 33.17 149.339 30.2188 150.611 27.6832V27.6916ZM171.112 30.676C169.723 29.2295 168.036 28.5063 166.049 28.5063C164.062 28.5063 162.366 29.2212 160.986 30.6428C159.598 32.0643 158.908 34.0346 158.908 36.5285C158.908 39.0225 159.598 41.0094 160.986 42.4725C162.374 43.9357 164.062 44.6672 166.049 44.6672C168.036 44.6672 169.732 43.944 171.112 42.4975C172.5 41.051 173.19 39.0807 173.19 36.5784C173.19 34.0761 172.5 32.1059 171.112 30.6594V30.676Z"
     fill="#21448B"
     id="path2" />
  <path
     d="M219.553 23.6179C221.839 26.0952 222.978 29.5037 222.978 33.8349V52.9304H213.019V35.1816C213.019 32.9952 212.454 31.2993 211.323 30.0856C210.193 28.8719 208.663 28.2733 206.751 28.2733C204.839 28.2733 203.317 28.8802 202.179 30.0856C201.048 31.2993 200.483 32.9952 200.483 35.1816V52.9304H190.465V20.251H200.483V24.5822C201.497 23.1357 202.86 21.9968 204.581 21.1572C206.302 20.3175 208.231 19.8936 210.375 19.8936C214.2 19.8936 217.259 21.1322 219.545 23.6096L219.553 23.6179Z"
     fill="#21448B"
     id="path3" />
  <path
     d="M239.963 19.8438V28.1654H253.372V35.8967H239.963V44.9166H255.134V52.9389H229.945V11.8215H255.134V19.8438H239.963Z"
     fill="#21448B"
     id="path4" />
  <path
     d="M261.544 27.6915C262.816 25.1559 264.537 23.2023 266.731 21.8306C268.918 20.4672 271.362 19.7772 274.055 19.7772C276.2 19.7772 278.162 20.2262 279.941 21.124C281.72 22.0218 283.117 23.2356 284.131 24.7569V9.59351H294.148V52.9388H284.131V48.2501C283.192 49.813 281.853 51.06 280.116 51.9994C278.378 52.9388 276.358 53.4044 274.055 53.4044C271.362 53.4044 268.918 52.7144 266.731 51.326C264.545 49.9377 262.816 47.9675 261.544 45.407C260.272 42.8465 259.64 39.8953 259.64 36.5368C259.64 33.1782 260.272 30.227 261.544 27.6915ZM282.044 30.6759C280.656 29.2294 278.968 28.5062 276.982 28.5062C274.995 28.5062 273.299 29.2211 271.919 30.6427C270.53 32.0642 269.84 34.0345 269.84 36.5285C269.84 39.0224 270.53 41.0093 271.919 42.4724C273.307 43.9356 274.995 44.6671 276.982 44.6671C278.968 44.6671 280.664 43.9439 282.044 42.4974C283.433 41.0509 284.123 39.0806 284.123 36.5783C284.123 34.076 283.433 32.1058 282.044 30.6593V30.6759Z"
     fill="#21448B"
     id="path5" />
  <path
     d="M333.686 20.2512V52.9389H323.669V48.4913C322.655 49.9379 321.275 51.0934 319.537 51.9746C317.8 52.8558 315.879 53.2881 313.768 53.2881C311.265 53.2881 309.062 52.7311 307.15 51.6171C305.238 50.5032 303.75 48.8904 302.703 46.7871C301.647 44.6756 301.123 42.1982 301.123 39.3468V20.2512H311.083V38C311.083 40.1864 311.648 41.8823 312.778 43.096C313.909 44.3098 315.43 44.9083 317.351 44.9083C319.271 44.9083 320.842 44.3015 321.981 43.096C323.112 41.8823 323.677 40.1864 323.677 38V20.2512H333.695H333.686Z"
     fill="#21448B"
     id="path6" />
  <path
     d="M367.655 14.3986C370.897 16.1195 373.407 18.5303 375.178 21.6312C376.949 24.732 377.847 28.315 377.847 32.3802C377.847 36.4454 376.957 39.9785 375.178 43.096C373.399 46.2218 370.88 48.6409 367.621 50.3618C364.362 52.0826 360.58 52.9389 356.29 52.9389H340.886V11.8215H356.29C360.622 11.8215 364.412 12.6778 367.655 14.3986ZM364.496 41.1673C366.607 39.0973 367.655 36.1711 367.655 32.3802C367.655 28.5894 366.599 25.6465 364.496 23.5349C362.392 21.4233 359.441 20.3759 355.65 20.3759H350.903V44.2765H355.65C359.441 44.2765 362.384 43.2456 364.496 41.1756V41.1673Z"
     fill="#21448B"
     id="path7" />
  <path
     d="M414.1 38.9976H391.43C391.588 41.026 392.237 42.5806 393.392 43.653C394.539 44.7254 395.961 45.2658 397.64 45.2658C400.134 45.2658 401.88 44.21 402.853 42.0984H413.51C412.961 44.2433 411.98 46.1803 410.551 47.9011C409.121 49.6219 407.342 50.9687 405.189 51.9413C403.044 52.914 400.641 53.4045 397.981 53.4045C394.78 53.4045 391.929 52.7228 389.427 51.3511C386.924 49.9877 384.971 48.0341 383.566 45.4903C382.161 42.9547 381.454 39.9869 381.454 36.5868C381.454 33.1866 382.144 30.2188 383.533 27.6833C384.921 25.1477 386.858 23.1941 389.36 21.8224C391.854 20.459 394.73 19.769 397.973 19.769C401.215 19.769 403.95 20.4341 406.411 21.7642C408.871 23.0943 410.792 24.9898 412.18 27.4422C413.568 29.9029 414.258 32.771 414.258 36.0547C414.258 36.9941 414.2 37.9668 414.084 38.981L414.1 38.9976ZM404.025 33.436C404.025 31.7152 403.443 30.3518 402.271 29.3376C401.098 28.3234 399.635 27.8163 397.873 27.8163C396.11 27.8163 394.78 28.3068 393.625 29.2794C392.469 30.2521 391.763 31.6404 391.488 33.436H404.025Z"
     fill="#21448B"
     id="path8" />
  <path
     d="M434.252 43.5616L441.343 20.2512H452.001L440.404 52.9389H428.042L416.445 20.2512H427.161L434.252 43.5616Z"
     fill="#21448B"
     id="path9" />
  <path
     opacity="0.5"
     d="M33.7435 62.9978H0V0H33.7435L52.0493 31.4989L33.7435 62.9978Z"
     fill="#3076BC"
     id="path10" />
  <path
     opacity="0.5"
     d="M81.1208 39.5046V23.4933L75.4761 17.8486L81.1208 12.2039V0H47.3773L27.8495 31.4989L47.3773 62.9978H81.1208V50.794L75.4761 45.1493L81.1208 39.5046ZM69.7815 39.1139L62.3744 46.521V16.8842L69.7815 24.2913L62.3744 31.6984L69.7815 39.1056V39.1139Z"
     fill="#3076BC"
     id="path11" />
</svg>
